%TF.GenerationSoftware,KiCad,Pcbnew,8.0.5*%
%TF.CreationDate,2024-10-28T22:39:27-05:00*%
%TF.ProjectId,audio_dsp_board,61756469-6f5f-4647-9370-5f626f617264,rev?*%
%TF.SameCoordinates,Original*%
%TF.FileFunction,Copper,L1,Top*%
%TF.FilePolarity,Positive*%
%FSLAX46Y46*%
G04 Gerber Fmt 4.6, Leading zero omitted, Abs format (unit mm)*
G04 Created by KiCad (PCBNEW 8.0.5) date 2024-10-28 22:39:27*
%MOMM*%
%LPD*%
G01*
G04 APERTURE LIST*
G04 Aperture macros list*
%AMRoundRect*
0 Rectangle with rounded corners*
0 $1 Rounding radius*
0 $2 $3 $4 $5 $6 $7 $8 $9 X,Y pos of 4 corners*
0 Add a 4 corners polygon primitive as box body*
4,1,4,$2,$3,$4,$5,$6,$7,$8,$9,$2,$3,0*
0 Add four circle primitives for the rounded corners*
1,1,$1+$1,$2,$3*
1,1,$1+$1,$4,$5*
1,1,$1+$1,$6,$7*
1,1,$1+$1,$8,$9*
0 Add four rect primitives between the rounded corners*
20,1,$1+$1,$2,$3,$4,$5,0*
20,1,$1+$1,$4,$5,$6,$7,0*
20,1,$1+$1,$6,$7,$8,$9,0*
20,1,$1+$1,$8,$9,$2,$3,0*%
G04 Aperture macros list end*
%TA.AperFunction,SMDPad,CuDef*%
%ADD10RoundRect,0.140000X-0.170000X0.140000X-0.170000X-0.140000X0.170000X-0.140000X0.170000X0.140000X0*%
%TD*%
%TA.AperFunction,SMDPad,CuDef*%
%ADD11R,1.000000X0.800000*%
%TD*%
%TA.AperFunction,SMDPad,CuDef*%
%ADD12R,0.700000X1.500000*%
%TD*%
%TA.AperFunction,SMDPad,CuDef*%
%ADD13R,1.200000X1.400000*%
%TD*%
%TA.AperFunction,SMDPad,CuDef*%
%ADD14RoundRect,0.135000X-0.185000X0.135000X-0.185000X-0.135000X0.185000X-0.135000X0.185000X0.135000X0*%
%TD*%
%TA.AperFunction,SMDPad,CuDef*%
%ADD15RoundRect,0.250000X-0.475000X0.250000X-0.475000X-0.250000X0.475000X-0.250000X0.475000X0.250000X0*%
%TD*%
%TA.AperFunction,SMDPad,CuDef*%
%ADD16RoundRect,0.140000X0.140000X0.170000X-0.140000X0.170000X-0.140000X-0.170000X0.140000X-0.170000X0*%
%TD*%
%TA.AperFunction,SMDPad,CuDef*%
%ADD17RoundRect,0.375000X0.375000X-0.625000X0.375000X0.625000X-0.375000X0.625000X-0.375000X-0.625000X0*%
%TD*%
%TA.AperFunction,SMDPad,CuDef*%
%ADD18RoundRect,0.500000X1.400000X-0.500000X1.400000X0.500000X-1.400000X0.500000X-1.400000X-0.500000X0*%
%TD*%
%TA.AperFunction,SMDPad,CuDef*%
%ADD19RoundRect,0.140000X-0.140000X-0.170000X0.140000X-0.170000X0.140000X0.170000X-0.140000X0.170000X0*%
%TD*%
%TA.AperFunction,SMDPad,CuDef*%
%ADD20RoundRect,0.218750X-0.218750X-0.256250X0.218750X-0.256250X0.218750X0.256250X-0.218750X0.256250X0*%
%TD*%
%TA.AperFunction,SMDPad,CuDef*%
%ADD21RoundRect,0.140000X0.170000X-0.140000X0.170000X0.140000X-0.170000X0.140000X-0.170000X-0.140000X0*%
%TD*%
%TA.AperFunction,SMDPad,CuDef*%
%ADD22RoundRect,0.218750X0.218750X0.256250X-0.218750X0.256250X-0.218750X-0.256250X0.218750X-0.256250X0*%
%TD*%
%TA.AperFunction,SMDPad,CuDef*%
%ADD23RoundRect,0.135000X0.135000X0.185000X-0.135000X0.185000X-0.135000X-0.185000X0.135000X-0.185000X0*%
%TD*%
%TA.AperFunction,SMDPad,CuDef*%
%ADD24R,2.500000X1.200000*%
%TD*%
%TA.AperFunction,ComponentPad*%
%ADD25O,1.700000X1.700000*%
%TD*%
%TA.AperFunction,ComponentPad*%
%ADD26R,1.700000X1.700000*%
%TD*%
%TA.AperFunction,SMDPad,CuDef*%
%ADD27RoundRect,0.135000X-0.135000X-0.185000X0.135000X-0.185000X0.135000X0.185000X-0.135000X0.185000X0*%
%TD*%
%TA.AperFunction,ComponentPad*%
%ADD28C,1.222000*%
%TD*%
%TA.AperFunction,ComponentPad*%
%ADD29R,1.222000X1.222000*%
%TD*%
%TA.AperFunction,SMDPad,CuDef*%
%ADD30R,1.000000X2.800000*%
%TD*%
%TA.AperFunction,SMDPad,CuDef*%
%ADD31R,1.150000X0.300000*%
%TD*%
%TA.AperFunction,SMDPad,CuDef*%
%ADD32R,0.745000X0.300000*%
%TD*%
%TA.AperFunction,ComponentPad*%
%ADD33O,2.100000X1.000000*%
%TD*%
%TA.AperFunction,ComponentPad*%
%ADD34O,1.600000X1.000000*%
%TD*%
%TA.AperFunction,SMDPad,CuDef*%
%ADD35RoundRect,0.218750X0.256250X-0.218750X0.256250X0.218750X-0.256250X0.218750X-0.256250X-0.218750X0*%
%TD*%
%TA.AperFunction,SMDPad,CuDef*%
%ADD36RoundRect,0.225000X0.225000X0.250000X-0.225000X0.250000X-0.225000X-0.250000X0.225000X-0.250000X0*%
%TD*%
%TA.AperFunction,SMDPad,CuDef*%
%ADD37RoundRect,0.050000X0.050000X-0.375000X0.050000X0.375000X-0.050000X0.375000X-0.050000X-0.375000X0*%
%TD*%
%TA.AperFunction,SMDPad,CuDef*%
%ADD38RoundRect,0.050000X0.375000X-0.050000X0.375000X0.050000X-0.375000X0.050000X-0.375000X-0.050000X0*%
%TD*%
%TA.AperFunction,HeatsinkPad*%
%ADD39R,1.650000X1.650000*%
%TD*%
%TA.AperFunction,SMDPad,CuDef*%
%ADD40RoundRect,0.075000X-0.700000X-0.075000X0.700000X-0.075000X0.700000X0.075000X-0.700000X0.075000X0*%
%TD*%
%TA.AperFunction,SMDPad,CuDef*%
%ADD41RoundRect,0.075000X-0.075000X-0.700000X0.075000X-0.700000X0.075000X0.700000X-0.075000X0.700000X0*%
%TD*%
%TA.AperFunction,SMDPad,CuDef*%
%ADD42RoundRect,0.250000X-0.262500X-0.450000X0.262500X-0.450000X0.262500X0.450000X-0.262500X0.450000X0*%
%TD*%
%TA.AperFunction,SMDPad,CuDef*%
%ADD43RoundRect,0.225000X-0.225000X-0.250000X0.225000X-0.250000X0.225000X0.250000X-0.225000X0.250000X0*%
%TD*%
%TA.AperFunction,SMDPad,CuDef*%
%ADD44RoundRect,0.250000X-0.450000X0.262500X-0.450000X-0.262500X0.450000X-0.262500X0.450000X0.262500X0*%
%TD*%
%TA.AperFunction,SMDPad,CuDef*%
%ADD45RoundRect,0.375000X-0.375000X0.625000X-0.375000X-0.625000X0.375000X-0.625000X0.375000X0.625000X0*%
%TD*%
%TA.AperFunction,SMDPad,CuDef*%
%ADD46RoundRect,0.500000X-1.400000X0.500000X-1.400000X-0.500000X1.400000X-0.500000X1.400000X0.500000X0*%
%TD*%
%TA.AperFunction,SMDPad,CuDef*%
%ADD47RoundRect,0.250000X0.475000X-0.250000X0.475000X0.250000X-0.475000X0.250000X-0.475000X-0.250000X0*%
%TD*%
%TA.AperFunction,ViaPad*%
%ADD48C,0.600000*%
%TD*%
%TA.AperFunction,Conductor*%
%ADD49C,0.200000*%
%TD*%
%TA.AperFunction,Conductor*%
%ADD50C,0.300000*%
%TD*%
%TA.AperFunction,Conductor*%
%ADD51C,0.500000*%
%TD*%
G04 APERTURE END LIST*
D10*
%TO.P,C8,1*%
%TO.N,Net-(U1-VCAP_1)*%
X138000000Y-102550000D03*
%TO.P,C8,2*%
%TO.N,GND*%
X138000000Y-103510000D03*
%TD*%
D11*
%TO.P,BOOT0,*%
%TO.N,*%
X129400000Y-78280000D03*
X129400000Y-76070000D03*
X122100000Y-78280000D03*
X122100000Y-76070000D03*
D12*
%TO.P,BOOT0,1,A*%
%TO.N,+3V3*%
X128000000Y-78930000D03*
%TO.P,BOOT0,2,B*%
%TO.N,Net-(BOOT0-B)*%
X125000000Y-78930000D03*
%TO.P,BOOT0,3,C*%
%TO.N,GND*%
X123500000Y-78930000D03*
%TD*%
D13*
%TO.P,Y1,1,1*%
%TO.N,HSE_OUT*%
X124000000Y-94930000D03*
%TO.P,Y1,2,2*%
%TO.N,GND*%
X124000000Y-92730000D03*
%TO.P,Y1,3,3*%
%TO.N,HSE_IN*%
X122300000Y-92730000D03*
%TO.P,Y1,4,4*%
%TO.N,GND*%
X122300000Y-94930000D03*
%TD*%
D10*
%TO.P,C23,1*%
%TO.N,Net-(U2-VDDA)*%
X145500000Y-101520000D03*
%TO.P,C23,2*%
%TO.N,GND*%
X145500000Y-102480000D03*
%TD*%
D14*
%TO.P,R6,1*%
%TO.N,+3V3*%
X133500000Y-86300000D03*
%TO.P,R6,2*%
%TO.N,SDA*%
X133500000Y-87320000D03*
%TD*%
D15*
%TO.P,C11,1*%
%TO.N,+3V3*%
X147250000Y-84300000D03*
%TO.P,C11,2*%
%TO.N,GND*%
X147250000Y-86200000D03*
%TD*%
D16*
%TO.P,C1,1*%
%TO.N,NRST*%
X122960000Y-104500000D03*
%TO.P,C1,2*%
%TO.N,GND*%
X122000000Y-104500000D03*
%TD*%
D17*
%TO.P,U3,1,GND*%
%TO.N,GND*%
X149700000Y-88450000D03*
%TO.P,U3,2,VO*%
%TO.N,+3V3*%
X152000000Y-88450000D03*
D18*
X152000000Y-82150000D03*
D17*
%TO.P,U3,3,VI*%
%TO.N,VBUS*%
X154300000Y-88450000D03*
%TD*%
D19*
%TO.P,C5,1*%
%TO.N,+3V3*%
X140700000Y-90500000D03*
%TO.P,C5,2*%
%TO.N,GND*%
X141660000Y-90500000D03*
%TD*%
D16*
%TO.P,C25,1*%
%TO.N,+3V3_A*%
X149750000Y-103500000D03*
%TO.P,C25,2*%
%TO.N,GND*%
X148790000Y-103500000D03*
%TD*%
D14*
%TO.P,R7,1*%
%TO.N,+3V3*%
X134750000Y-86300000D03*
%TO.P,R7,2*%
%TO.N,SCL*%
X134750000Y-87320000D03*
%TD*%
D19*
%TO.P,C12,1*%
%TO.N,Net-(U2-VAG)*%
X149540000Y-100300000D03*
%TO.P,C12,2*%
%TO.N,GND*%
X150500000Y-100300000D03*
%TD*%
D17*
%TO.P,U4,1,GND*%
%TO.N,GND*%
X160950000Y-88450000D03*
%TO.P,U4,2,VO*%
%TO.N,+3V3_A*%
X163250000Y-88450000D03*
D18*
X163250000Y-82150000D03*
D17*
%TO.P,U4,3,VI*%
%TO.N,VBUS*%
X165550000Y-88450000D03*
%TD*%
D20*
%TO.P,D3,1,K*%
%TO.N,Net-(D3-K)*%
X120962500Y-85300000D03*
%TO.P,D3,2,A*%
%TO.N,Net-(D3-A)*%
X122537500Y-85300000D03*
%TD*%
D21*
%TO.P,C18,1*%
%TO.N,LINE_IN_L*%
X144750000Y-108785000D03*
%TO.P,C18,2*%
%TO.N,Net-(U2-LINEIN_L)*%
X144750000Y-107825000D03*
%TD*%
D22*
%TO.P,D2,1,K*%
%TO.N,Net-(D2-K)*%
X126250000Y-104500000D03*
%TO.P,D2,2,A*%
%TO.N,NRST*%
X124675000Y-104500000D03*
%TD*%
D23*
%TO.P,R5,2*%
%TO.N,GND*%
X170480000Y-91250000D03*
%TO.P,R5,1*%
%TO.N,Net-(USB1-CC2)*%
X171500000Y-91250000D03*
%TD*%
D20*
%TO.P,FB1,1*%
%TO.N,Net-(U2-VDDA)*%
X148250000Y-101800000D03*
%TO.P,FB1,2*%
%TO.N,+3V3_A*%
X149825000Y-101800000D03*
%TD*%
D24*
%TO.P,IN1,R1*%
%TO.N,LINE_IN_R*%
X147500000Y-112895000D03*
%TO.P,IN1,R2*%
%TO.N,GND*%
X147500000Y-115895000D03*
%TO.P,IN1,S*%
%TO.N,unconnected-(IN1-PadS)*%
X154000000Y-107795000D03*
%TO.P,IN1,T*%
%TO.N,LINE_IN_L*%
X147500000Y-108895000D03*
%TD*%
D25*
%TO.P,SWD1,4,Pin_4*%
%TO.N,GND*%
X153210000Y-77000000D03*
%TO.P,SWD1,3,Pin_3*%
%TO.N,/MCU/SWCLK*%
X155750000Y-77000000D03*
%TO.P,SWD1,2,Pin_2*%
%TO.N,/MCU/SWDIO*%
X158290000Y-77000000D03*
D26*
%TO.P,SWD1,1,Pin_1*%
%TO.N,+3V3*%
X160830000Y-77000000D03*
%TD*%
D10*
%TO.P,C3,1*%
%TO.N,+3V3*%
X139500000Y-101290000D03*
%TO.P,C3,2*%
%TO.N,GND*%
X139500000Y-102250000D03*
%TD*%
D27*
%TO.P,R9,1*%
%TO.N,Net-(D1-K)*%
X144500000Y-87300000D03*
%TO.P,R9,2*%
%TO.N,GND*%
X145520000Y-87300000D03*
%TD*%
D28*
%TO.P,POT1,3,3*%
%TO.N,+3V3*%
X137290000Y-112750000D03*
%TO.P,POT1,2,2*%
%TO.N,Net-(U1-PA0)*%
X134750000Y-110210000D03*
D29*
%TO.P,POT1,1,1*%
%TO.N,GND*%
X132210000Y-112750000D03*
%TD*%
D21*
%TO.P,C13,1*%
%TO.N,+3V3*%
X147250000Y-95750000D03*
%TO.P,C13,2*%
%TO.N,GND*%
X147250000Y-94790000D03*
%TD*%
D16*
%TO.P,C20,1*%
%TO.N,Net-(C20-Pad1)*%
X151230000Y-97800000D03*
%TO.P,C20,2*%
%TO.N,MIC*%
X150270000Y-97800000D03*
%TD*%
D30*
%TO.P,RESET1,1,1*%
%TO.N,NRST*%
X125500000Y-109600000D03*
%TO.P,RESET1,2,2*%
%TO.N,GND*%
X121500000Y-109600000D03*
%TO.P,RESET1,3*%
%TO.N,N/C*%
X121500000Y-115400000D03*
%TO.P,RESET1,4*%
X125500000Y-115400000D03*
%TD*%
D21*
%TO.P,C16,1*%
%TO.N,Net-(U1-VCAP_2)*%
X142800000Y-92080000D03*
%TO.P,C16,2*%
%TO.N,GND*%
X142800000Y-91120000D03*
%TD*%
D27*
%TO.P,R10,1*%
%TO.N,Net-(D2-K)*%
X128980000Y-107500000D03*
%TO.P,R10,2*%
%TO.N,GND*%
X130000000Y-107500000D03*
%TD*%
D23*
%TO.P,R4,2*%
%TO.N,GND*%
X170230000Y-94250000D03*
%TO.P,R4,1*%
%TO.N,Net-(USB1-CC1)*%
X171250000Y-94250000D03*
%TD*%
D31*
%TO.P,USB1,A1,GND*%
%TO.N,GND*%
X173185000Y-96100000D03*
D32*
%TO.P,USB1,A4,VBUS*%
%TO.N,VBUS*%
X172982500Y-95300000D03*
D31*
%TO.P,USB1,A5,CC1*%
%TO.N,Net-(USB1-CC1)*%
X173185000Y-94000000D03*
%TO.P,USB1,A6,D+*%
%TO.N,USB_D+*%
X173185000Y-93000000D03*
%TO.P,USB1,A7,D-*%
%TO.N,USB_D-*%
X173185000Y-92500000D03*
%TO.P,USB1,A8*%
%TO.N,N/C*%
X173185000Y-91500000D03*
D32*
%TO.P,USB1,A9,VBUS*%
%TO.N,VBUS*%
X172982500Y-90200000D03*
D31*
%TO.P,USB1,A12,GND*%
%TO.N,GND*%
X173185000Y-89400000D03*
D32*
%TO.P,USB1,B1,GND*%
X172982500Y-89700000D03*
D31*
%TO.P,USB1,B4,VBUS*%
%TO.N,VBUS*%
X173185000Y-90500000D03*
%TO.P,USB1,B5,CC2*%
%TO.N,Net-(USB1-CC2)*%
X173185000Y-91000000D03*
%TO.P,USB1,B6,D+*%
%TO.N,USB_D+*%
X173185000Y-92000000D03*
%TO.P,USB1,B7,D-*%
%TO.N,USB_D-*%
X173185000Y-93500000D03*
%TO.P,USB1,B8*%
%TO.N,N/C*%
X173185000Y-94500000D03*
%TO.P,USB1,B9,VBUS*%
%TO.N,VBUS*%
X173185000Y-95000000D03*
D32*
%TO.P,USB1,B12,GND*%
%TO.N,GND*%
X172982500Y-95800000D03*
D33*
%TO.P,USB1,S1,SHIELD*%
X173750000Y-97070000D03*
D34*
X177930000Y-97070000D03*
D33*
X173750000Y-88430000D03*
D34*
X177930000Y-88430000D03*
%TD*%
D35*
%TO.P,D1,1,K*%
%TO.N,Net-(D1-K)*%
X144250000Y-85837500D03*
%TO.P,D1,2,A*%
%TO.N,+3V3*%
X144250000Y-84262500D03*
%TD*%
D21*
%TO.P,C7,1*%
%TO.N,HSE_IN*%
X125500000Y-93500000D03*
%TO.P,C7,2*%
%TO.N,GND*%
X125500000Y-92540000D03*
%TD*%
D10*
%TO.P,C24,1*%
%TO.N,Net-(U2-VDDA)*%
X146750000Y-101520000D03*
%TO.P,C24,2*%
%TO.N,GND*%
X146750000Y-102480000D03*
%TD*%
D36*
%TO.P,C2,1*%
%TO.N,+3V3*%
X132500000Y-104050000D03*
%TO.P,C2,2*%
%TO.N,GND*%
X130950000Y-104050000D03*
%TD*%
D11*
%TO.P,SW1,*%
%TO.N,*%
X140900000Y-78255000D03*
X140900000Y-76045000D03*
X133600000Y-78255000D03*
X133600000Y-76045000D03*
D12*
%TO.P,SW1,1,A*%
%TO.N,+3V3*%
X139500000Y-78905000D03*
%TO.P,SW1,2,B*%
%TO.N,Net-(SW1-B)*%
X136500000Y-78905000D03*
%TO.P,SW1,3,C*%
%TO.N,GND*%
X135000000Y-78905000D03*
%TD*%
D16*
%TO.P,C30,1*%
%TO.N,+3V3*%
X127480000Y-91550000D03*
%TO.P,C30,2*%
%TO.N,GND*%
X126520000Y-91550000D03*
%TD*%
D37*
%TO.P,U2,1,HP_R*%
%TO.N,Net-(U2-HP_R)*%
X146040000Y-100050000D03*
%TO.P,U2,2,HP_VGND*%
%TO.N,unconnected-(U2-HP_VGND-Pad2)*%
X146440000Y-100050000D03*
%TO.P,U2,3,VDDA*%
%TO.N,Net-(U2-VDDA)*%
X146840000Y-100050000D03*
%TO.P,U2,4,HP_L*%
%TO.N,Net-(U2-HP_L)*%
X147240000Y-100050000D03*
%TO.P,U2,5,VAG*%
%TO.N,Net-(U2-VAG)*%
X147640000Y-100050000D03*
D38*
%TO.P,U2,6,LINEOUT_R*%
%TO.N,unconnected-(U2-LINEOUT_R-Pad6)*%
X148290000Y-99400000D03*
%TO.P,U2,7,LINEOUT_L*%
%TO.N,unconnected-(U2-LINEOUT_L-Pad7)*%
X148290000Y-99000000D03*
%TO.P,U2,8,LINEIN_R*%
%TO.N,Net-(U2-LINEIN_R)*%
X148290000Y-98600000D03*
%TO.P,U2,9,LINEIN_L*%
%TO.N,Net-(U2-LINEIN_L)*%
X148290000Y-98200000D03*
%TO.P,U2,10,MIC*%
%TO.N,MIC*%
X148290000Y-97800000D03*
D37*
%TO.P,U2,11,MIC_BIAS*%
%TO.N,MIC_BIAS*%
X147640000Y-97150000D03*
%TO.P,U2,12,VDDIO*%
%TO.N,+3V3*%
X147240000Y-97150000D03*
%TO.P,U2,13,SYS_MCLK*%
%TO.N,I2S_MCK*%
X146840000Y-97150000D03*
%TO.P,U2,14,I2S_LRCLK*%
%TO.N,I2S_LRCLK*%
X146440000Y-97150000D03*
%TO.P,U2,15,I2S_SCLK*%
%TO.N,I2S_SCLK*%
X146040000Y-97150000D03*
D38*
%TO.P,U2,16,I2S_DOUT*%
%TO.N,I2S_DOUT*%
X145390000Y-97800000D03*
%TO.P,U2,17,I2S_DIN*%
%TO.N,I2S_DIN*%
X145390000Y-98200000D03*
%TO.P,U2,18,CTRL_DATA*%
%TO.N,SDA*%
X145390000Y-98600000D03*
%TO.P,U2,19,CTRL_CLK*%
%TO.N,SCL*%
X145390000Y-99000000D03*
%TO.P,U2,20,VDDD*%
%TO.N,+1V5*%
X145390000Y-99400000D03*
D39*
%TO.P,U2,21,GND*%
%TO.N,GND*%
X146840000Y-98600000D03*
%TD*%
D14*
%TO.P,R8,2*%
%TO.N,Net-(U1-PC12)*%
X136500000Y-87920000D03*
%TO.P,R8,1*%
%TO.N,Net-(SW1-B)*%
X136500000Y-86900000D03*
%TD*%
D40*
%TO.P,U1,1,VBAT*%
%TO.N,+3V3*%
X129075000Y-91550000D03*
%TO.P,U1,2,PC13*%
%TO.N,unconnected-(U1-PC13-Pad2)*%
X129075000Y-92050000D03*
%TO.P,U1,3,PC14*%
%TO.N,unconnected-(U1-PC14-Pad3)*%
X129075000Y-92550000D03*
%TO.P,U1,4,PC15*%
%TO.N,unconnected-(U1-PC15-Pad4)*%
X129075000Y-93050000D03*
%TO.P,U1,5,PH0*%
%TO.N,HSE_IN*%
X129075000Y-93550000D03*
%TO.P,U1,6,PH1*%
%TO.N,HSE_OUT*%
X129075000Y-94050000D03*
%TO.P,U1,7,NRST*%
%TO.N,NRST*%
X129075000Y-94550000D03*
%TO.P,U1,8,PC0*%
%TO.N,Net-(D3-A)*%
X129075000Y-95050000D03*
%TO.P,U1,9,PC1*%
%TO.N,unconnected-(U1-PC1-Pad9)*%
X129075000Y-95550000D03*
%TO.P,U1,10,PC2*%
%TO.N,unconnected-(U1-PC2-Pad10)*%
X129075000Y-96050000D03*
%TO.P,U1,11,PC3*%
%TO.N,unconnected-(U1-PC3-Pad11)*%
X129075000Y-96550000D03*
%TO.P,U1,12,VSSA*%
%TO.N,GND*%
X129075000Y-97050000D03*
%TO.P,U1,13,VDDA*%
%TO.N,+3V3*%
X129075000Y-97550000D03*
%TO.P,U1,14,PA0*%
%TO.N,Net-(U1-PA0)*%
X129075000Y-98050000D03*
%TO.P,U1,15,PA1*%
%TO.N,unconnected-(U1-PA1-Pad15)*%
X129075000Y-98550000D03*
%TO.P,U1,16,PA2*%
%TO.N,unconnected-(U1-PA2-Pad16)*%
X129075000Y-99050000D03*
D41*
%TO.P,U1,17,PA3*%
%TO.N,unconnected-(U1-PA3-Pad17)*%
X131000000Y-100975000D03*
%TO.P,U1,18,VSS*%
%TO.N,GND*%
X131500000Y-100975000D03*
%TO.P,U1,19,VDD*%
%TO.N,+3V3*%
X132000000Y-100975000D03*
%TO.P,U1,20,PA4*%
%TO.N,unconnected-(U1-PA4-Pad20)*%
X132500000Y-100975000D03*
%TO.P,U1,21,PA5*%
%TO.N,unconnected-(U1-PA5-Pad21)*%
X133000000Y-100975000D03*
%TO.P,U1,22,PA6*%
%TO.N,unconnected-(U1-PA6-Pad22)*%
X133500000Y-100975000D03*
%TO.P,U1,23,PA7*%
%TO.N,unconnected-(U1-PA7-Pad23)*%
X134000000Y-100975000D03*
%TO.P,U1,24,PC4*%
%TO.N,unconnected-(U1-PC4-Pad24)*%
X134500000Y-100975000D03*
%TO.P,U1,25,PC5*%
%TO.N,unconnected-(U1-PC5-Pad25)*%
X135000000Y-100975000D03*
%TO.P,U1,26,PB0*%
%TO.N,unconnected-(U1-PB0-Pad26)*%
X135500000Y-100975000D03*
%TO.P,U1,27,PB1*%
%TO.N,unconnected-(U1-PB1-Pad27)*%
X136000000Y-100975000D03*
%TO.P,U1,28,PB2*%
%TO.N,unconnected-(U1-PB2-Pad28)*%
X136500000Y-100975000D03*
%TO.P,U1,29,PB10*%
%TO.N,unconnected-(U1-PB10-Pad29)*%
X137000000Y-100975000D03*
%TO.P,U1,30,PB11*%
%TO.N,unconnected-(U1-PB11-Pad30)*%
X137500000Y-100975000D03*
%TO.P,U1,31,VCAP_1*%
%TO.N,Net-(U1-VCAP_1)*%
X138000000Y-100975000D03*
%TO.P,U1,32,VDD*%
%TO.N,+3V3*%
X138500000Y-100975000D03*
D40*
%TO.P,U1,33,PB12*%
%TO.N,I2S_LRCLK*%
X140425000Y-99050000D03*
%TO.P,U1,34,PB13*%
%TO.N,I2S_SCLK*%
X140425000Y-98550000D03*
%TO.P,U1,35,PB14*%
%TO.N,I2S_DIN*%
X140425000Y-98050000D03*
%TO.P,U1,36,PB15*%
%TO.N,I2S_DOUT*%
X140425000Y-97550000D03*
%TO.P,U1,37,PC6*%
%TO.N,I2S_MCK*%
X140425000Y-97050000D03*
%TO.P,U1,38,PC7*%
%TO.N,unconnected-(U1-PC7-Pad38)*%
X140425000Y-96550000D03*
%TO.P,U1,39,PC8*%
%TO.N,unconnected-(U1-PC8-Pad39)*%
X140425000Y-96050000D03*
%TO.P,U1,40,PC9*%
%TO.N,unconnected-(U1-PC9-Pad40)*%
X140425000Y-95550000D03*
%TO.P,U1,41,PA8*%
%TO.N,unconnected-(U1-PA8-Pad41)*%
X140425000Y-95050000D03*
%TO.P,U1,42,PA9*%
%TO.N,unconnected-(U1-PA9-Pad42)*%
X140425000Y-94550000D03*
%TO.P,U1,43,PA10*%
%TO.N,unconnected-(U1-PA10-Pad43)*%
X140425000Y-94050000D03*
%TO.P,U1,44,PA11*%
%TO.N,USB_D-*%
X140425000Y-93550000D03*
%TO.P,U1,45,PA12*%
%TO.N,USB_D+*%
X140425000Y-93050000D03*
%TO.P,U1,46,PA13*%
%TO.N,/MCU/SWDIO*%
X140425000Y-92550000D03*
%TO.P,U1,47,VCAP_2*%
%TO.N,Net-(U1-VCAP_2)*%
X140425000Y-92050000D03*
%TO.P,U1,48,VDD*%
%TO.N,+3V3*%
X140425000Y-91550000D03*
D41*
%TO.P,U1,49,PA14*%
%TO.N,/MCU/SWCLK*%
X138500000Y-89625000D03*
%TO.P,U1,50,PA15*%
%TO.N,unconnected-(U1-PA15-Pad50)*%
X138000000Y-89625000D03*
%TO.P,U1,51,PC10*%
%TO.N,unconnected-(U1-PC10-Pad51)*%
X137500000Y-89625000D03*
%TO.P,U1,52,PC11*%
%TO.N,unconnected-(U1-PC11-Pad52)*%
X137000000Y-89625000D03*
%TO.P,U1,53,PC12*%
%TO.N,Net-(U1-PC12)*%
X136500000Y-89625000D03*
%TO.P,U1,54,PD2*%
%TO.N,unconnected-(U1-PD2-Pad54)*%
X136000000Y-89625000D03*
%TO.P,U1,55,PB3*%
%TO.N,unconnected-(U1-PB3-Pad55)*%
X135500000Y-89625000D03*
%TO.P,U1,56,PB4*%
%TO.N,unconnected-(U1-PB4-Pad56)*%
X135000000Y-89625000D03*
%TO.P,U1,57,PB5*%
%TO.N,unconnected-(U1-PB5-Pad57)*%
X134500000Y-89625000D03*
%TO.P,U1,58,PB6*%
%TO.N,SCL*%
X134000000Y-89625000D03*
%TO.P,U1,59,PB7*%
%TO.N,SDA*%
X133500000Y-89625000D03*
%TO.P,U1,60,BOOT0*%
%TO.N,/MCU/BOOT0*%
X133000000Y-89625000D03*
%TO.P,U1,61,PB8*%
%TO.N,unconnected-(U1-PB8-Pad61)*%
X132500000Y-89625000D03*
%TO.P,U1,62,PB9*%
%TO.N,unconnected-(U1-PB9-Pad62)*%
X132000000Y-89625000D03*
%TO.P,U1,63,VSS*%
%TO.N,GND*%
X131500000Y-89625000D03*
%TO.P,U1,64,VDD*%
%TO.N,+3V3*%
X131000000Y-89625000D03*
%TD*%
D36*
%TO.P,C10,1*%
%TO.N,VBUS*%
X152750000Y-90550000D03*
%TO.P,C10,2*%
%TO.N,GND*%
X151200000Y-90550000D03*
%TD*%
D19*
%TO.P,C21,1*%
%TO.N,Net-(C20-Pad1)*%
X168540000Y-107500000D03*
%TO.P,C21,2*%
%TO.N,GND*%
X169500000Y-107500000D03*
%TD*%
D42*
%TO.P,R12,1*%
%TO.N,Net-(U2-HP_R)*%
X151675000Y-105500000D03*
%TO.P,R12,2*%
%TO.N,HP_R*%
X153500000Y-105500000D03*
%TD*%
D27*
%TO.P,R3,1*%
%TO.N,MIC_BIAS*%
X149730000Y-96250000D03*
%TO.P,R3,2*%
%TO.N,Net-(C20-Pad1)*%
X150750000Y-96250000D03*
%TD*%
D16*
%TO.P,C9,1*%
%TO.N,+3V3*%
X132230000Y-102800000D03*
%TO.P,C9,2*%
%TO.N,GND*%
X131270000Y-102800000D03*
%TD*%
D21*
%TO.P,C6,1*%
%TO.N,+3V3*%
X127350000Y-97460000D03*
%TO.P,C6,2*%
%TO.N,GND*%
X127350000Y-96500000D03*
%TD*%
D10*
%TO.P,C4,1*%
%TO.N,HSE_OUT*%
X125750000Y-95540000D03*
%TO.P,C4,2*%
%TO.N,GND*%
X125750000Y-96500000D03*
%TD*%
D36*
%TO.P,C28,1*%
%TO.N,VBUS*%
X164275000Y-90700000D03*
%TO.P,C28,2*%
%TO.N,GND*%
X162725000Y-90700000D03*
%TD*%
D43*
%TO.P,C26,1*%
%TO.N,VBUS*%
X162200000Y-94450000D03*
%TO.P,C26,2*%
%TO.N,GND*%
X163750000Y-94450000D03*
%TD*%
D21*
%TO.P,C19,1*%
%TO.N,LINE_IN_R*%
X143500000Y-108840000D03*
%TO.P,C19,2*%
%TO.N,Net-(U2-LINEIN_R)*%
X143500000Y-107880000D03*
%TD*%
D19*
%TO.P,C17,1*%
%TO.N,+3V3*%
X130770000Y-88000000D03*
%TO.P,C17,2*%
%TO.N,GND*%
X131730000Y-88000000D03*
%TD*%
D24*
%TO.P,OUT1,R1*%
%TO.N,HP_R*%
X159750000Y-112725000D03*
%TO.P,OUT1,R2*%
%TO.N,GND*%
X159750000Y-115725000D03*
%TO.P,OUT1,S*%
%TO.N,Net-(C20-Pad1)*%
X166250000Y-107625000D03*
%TO.P,OUT1,T*%
%TO.N,HP_L*%
X159750000Y-108725000D03*
%TD*%
D23*
%TO.P,R1,1*%
%TO.N,+3V3*%
X125770000Y-101000000D03*
%TO.P,R1,2*%
%TO.N,NRST*%
X124750000Y-101000000D03*
%TD*%
D10*
%TO.P,C22,1*%
%TO.N,+1V5*%
X144250000Y-99750000D03*
%TO.P,C22,2*%
%TO.N,GND*%
X144250000Y-100710000D03*
%TD*%
D15*
%TO.P,C29,1*%
%TO.N,+3V3_A*%
X158500000Y-84450000D03*
%TO.P,C29,2*%
%TO.N,GND*%
X158500000Y-86350000D03*
%TD*%
D14*
%TO.P,R2,2*%
%TO.N,/MCU/BOOT0*%
X131500000Y-85310000D03*
%TO.P,R2,1*%
%TO.N,Net-(BOOT0-B)*%
X131500000Y-84290000D03*
%TD*%
%TO.P,R11,1*%
%TO.N,Net-(D3-K)*%
X121000000Y-87030000D03*
%TO.P,R11,2*%
%TO.N,GND*%
X121000000Y-88050000D03*
%TD*%
D44*
%TO.P,R13,1*%
%TO.N,Net-(U2-HP_L)*%
X158000000Y-103087500D03*
%TO.P,R13,2*%
%TO.N,HP_L*%
X158000000Y-104912500D03*
%TD*%
D45*
%TO.P,U5,1,GND*%
%TO.N,GND*%
X165550000Y-96550000D03*
%TO.P,U5,2,VO*%
%TO.N,+1V5*%
X163250000Y-96550000D03*
D46*
X163250000Y-102850000D03*
D45*
%TO.P,U5,3,VI*%
%TO.N,VBUS*%
X160950000Y-96550000D03*
%TD*%
D47*
%TO.P,C27,1*%
%TO.N,+1V5*%
X168000000Y-100450000D03*
%TO.P,C27,2*%
%TO.N,GND*%
X168000000Y-98550000D03*
%TD*%
D48*
%TO.N,GND*%
X165250000Y-98000000D03*
X175250000Y-96750000D03*
X166000000Y-98000000D03*
X157500000Y-115750000D03*
X159250000Y-87250000D03*
X170500000Y-107500000D03*
X164500000Y-95250000D03*
X143500000Y-101250000D03*
X149250000Y-87000000D03*
X151000000Y-77000000D03*
X150500000Y-89750000D03*
X146840000Y-98600000D03*
X169250000Y-98500000D03*
X175250000Y-88750000D03*
X176750000Y-96750000D03*
X121500000Y-105750000D03*
X130000000Y-109750000D03*
X142290000Y-90610000D03*
X169250000Y-94250000D03*
X125500000Y-91750000D03*
X145105000Y-115895000D03*
X161750000Y-89750000D03*
X169250000Y-91250000D03*
X146000000Y-103750000D03*
X131500000Y-99500000D03*
X148250000Y-94750000D03*
X122750000Y-80500000D03*
X135000000Y-80500000D03*
X139000000Y-103000000D03*
X148000000Y-87000000D03*
X131500000Y-91000000D03*
X150000000Y-87000000D03*
X130500000Y-97000000D03*
X124750000Y-96500000D03*
X160500000Y-87000000D03*
X161250000Y-87000000D03*
X176750000Y-88750000D03*
X151250000Y-100300000D03*
%TO.N,+3V3*%
X129750000Y-88000000D03*
X130500000Y-98000000D03*
X151250000Y-83750000D03*
X128750000Y-80500000D03*
X139100000Y-91600000D03*
X148500000Y-84250000D03*
X139250000Y-112750000D03*
X138500000Y-99500000D03*
X132300003Y-99500000D03*
X139500000Y-80500000D03*
X148268329Y-95650000D03*
X152750000Y-83750000D03*
X134125000Y-85125000D03*
X149500000Y-82250000D03*
X127000000Y-101000000D03*
X128000000Y-90750000D03*
%TO.N,VBUS*%
X166000000Y-91500000D03*
X167750000Y-95000000D03*
X161000000Y-94750000D03*
%TO.N,Net-(U2-LINEIN_L)*%
X147250000Y-106250000D03*
X152250000Y-100250000D03*
%TO.N,Net-(U2-LINEIN_R)*%
X144250000Y-104500000D03*
X149750000Y-99000000D03*
%TO.N,+3V3_A*%
X163250000Y-86750000D03*
X153750000Y-101510000D03*
%TO.N,SDA*%
X143000000Y-98750000D03*
X133400000Y-91500000D03*
%TO.N,I2S_SCLK*%
X139000000Y-97750000D03*
X145000000Y-96750000D03*
%TO.N,I2S_LRCLK*%
X142000000Y-98650000D03*
X142750000Y-96750000D03*
%TD*%
D49*
%TO.N,NRST*%
X126500000Y-96250000D02*
X126500000Y-97000000D01*
X124675000Y-105675000D02*
X124675000Y-104500000D01*
D50*
X124675000Y-104500000D02*
X122960000Y-104500000D01*
D49*
X124750000Y-98750000D02*
X124750000Y-101000000D01*
X126500000Y-97000000D02*
X124750000Y-98750000D01*
X124750000Y-101000000D02*
X124750000Y-101250000D01*
X128200000Y-94550000D02*
X126500000Y-96250000D01*
X125500000Y-109600000D02*
X125500000Y-106500000D01*
X125500000Y-106500000D02*
X124675000Y-105675000D01*
X124750000Y-101250000D02*
X124675000Y-101325000D01*
X124675000Y-101325000D02*
X124675000Y-104500000D01*
X129075000Y-94550000D02*
X128200000Y-94550000D01*
D50*
X124980000Y-104195000D02*
X124675000Y-104500000D01*
D51*
%TO.N,GND*%
X124000000Y-91050000D02*
X124000000Y-92730000D01*
X170230000Y-94250000D02*
X169250000Y-94250000D01*
X157525000Y-115725000D02*
X157500000Y-115750000D01*
X135000000Y-78905000D02*
X135000000Y-80250000D01*
X151250000Y-100300000D02*
X150500000Y-100300000D01*
X159750000Y-115725000D02*
X157525000Y-115725000D01*
X147250000Y-94790000D02*
X148210000Y-94790000D01*
D50*
X132210000Y-111960000D02*
X130000000Y-109750000D01*
D49*
X121500000Y-105750000D02*
X121500000Y-105000000D01*
D51*
X125750000Y-96500000D02*
X124750000Y-96500000D01*
X123500000Y-79500000D02*
X122750000Y-80250000D01*
D50*
X131500000Y-100975000D02*
X131500000Y-99500000D01*
X131500000Y-89625000D02*
X131500000Y-91000000D01*
D51*
X147780000Y-103500000D02*
X148790000Y-103500000D01*
X131270000Y-103730000D02*
X131270000Y-102800000D01*
X125310000Y-92730000D02*
X125500000Y-92540000D01*
D50*
X130450000Y-97050000D02*
X130500000Y-97000000D01*
D51*
X146750000Y-102470000D02*
X146750000Y-103000000D01*
X122750000Y-80250000D02*
X122750000Y-80500000D01*
D50*
X131500000Y-89625000D02*
X131500000Y-88746880D01*
D51*
X148210000Y-94790000D02*
X148250000Y-94750000D01*
X169500000Y-107500000D02*
X170500000Y-107500000D01*
D50*
X130000000Y-107500000D02*
X130000000Y-109750000D01*
X132210000Y-112750000D02*
X132210000Y-111960000D01*
D51*
X145520000Y-87300000D02*
X146150000Y-87300000D01*
X144040000Y-100710000D02*
X143500000Y-101250000D01*
X139500000Y-102250000D02*
X139500000Y-102500000D01*
X121000000Y-88050000D02*
X124000000Y-91050000D01*
X124750000Y-96500000D02*
X123370000Y-96500000D01*
X122300000Y-95430000D02*
X122300000Y-94930000D01*
X170480000Y-91250000D02*
X169250000Y-91250000D01*
D50*
X131500000Y-88746880D02*
X131730000Y-88516880D01*
D51*
X145105000Y-115895000D02*
X147500000Y-115895000D01*
X145500000Y-102510000D02*
X146710000Y-102510000D01*
X153210000Y-77000000D02*
X151000000Y-77000000D01*
D50*
X141660000Y-90500000D02*
X142180000Y-90500000D01*
X127396846Y-96500000D02*
X127350000Y-96500000D01*
D49*
X121500000Y-105000000D02*
X122000000Y-104500000D01*
D50*
X127946846Y-97050000D02*
X127396846Y-96500000D01*
X131270000Y-102083120D02*
X131270000Y-102800000D01*
X129075000Y-97050000D02*
X127946846Y-97050000D01*
D51*
X123370000Y-96500000D02*
X122300000Y-95430000D01*
X138490000Y-103510000D02*
X139000000Y-103000000D01*
D50*
X131500000Y-101853120D02*
X131270000Y-102083120D01*
D51*
X146750000Y-102470000D02*
X147780000Y-103500000D01*
X123500000Y-78930000D02*
X123500000Y-79500000D01*
X130950000Y-104050000D02*
X131270000Y-103730000D01*
D50*
X126520000Y-91550000D02*
X125700000Y-91550000D01*
X142180000Y-90500000D02*
X142800000Y-91120000D01*
D51*
X139500000Y-102500000D02*
X139000000Y-103000000D01*
D49*
X121500000Y-105750000D02*
X121500000Y-109600000D01*
D51*
X124000000Y-92730000D02*
X125310000Y-92730000D01*
X146150000Y-87300000D02*
X147250000Y-86200000D01*
D50*
X125700000Y-91550000D02*
X125500000Y-91750000D01*
X129075000Y-97050000D02*
X130450000Y-97050000D01*
X131500000Y-100975000D02*
X131500000Y-101853120D01*
D51*
X144250000Y-100710000D02*
X144040000Y-100710000D01*
X125500000Y-92540000D02*
X125500000Y-91750000D01*
D50*
X131730000Y-88516880D02*
X131730000Y-88000000D01*
D51*
X138000000Y-103510000D02*
X138490000Y-103510000D01*
X146710000Y-102510000D02*
X146750000Y-102470000D01*
X146750000Y-103000000D02*
X146000000Y-103750000D01*
D49*
%TO.N,+3V3*%
X147240000Y-97150000D02*
X147240000Y-95760000D01*
D50*
X127480000Y-91550000D02*
X127480000Y-91270000D01*
X140425000Y-90775000D02*
X140700000Y-90500000D01*
X132230000Y-102083120D02*
X132230000Y-102800000D01*
X132000000Y-101853120D02*
X132230000Y-102083120D01*
X138500000Y-100975000D02*
X138500000Y-99500000D01*
X130770000Y-88000000D02*
X129750000Y-88000000D01*
D51*
X128000000Y-78930000D02*
X128000000Y-79750000D01*
X128000000Y-79750000D02*
X128750000Y-80500000D01*
D50*
X139150000Y-91550000D02*
X140425000Y-91550000D01*
D51*
X132500000Y-104050000D02*
X132500000Y-104000000D01*
X144250000Y-84262500D02*
X147212500Y-84262500D01*
X147350000Y-95650000D02*
X148268329Y-95650000D01*
D50*
X140425000Y-91550000D02*
X140425000Y-90775000D01*
X131000000Y-89625000D02*
X131000000Y-88800000D01*
X131000000Y-88800000D02*
X130770000Y-88570000D01*
X139215000Y-100975000D02*
X139540000Y-101300000D01*
X129075000Y-97550000D02*
X130050000Y-97550000D01*
D51*
X147250000Y-95750000D02*
X147350000Y-95650000D01*
X133500000Y-85750000D02*
X133500000Y-86300000D01*
D49*
X147240000Y-95760000D02*
X147250000Y-95750000D01*
D51*
X134750000Y-85750000D02*
X134750000Y-86300000D01*
D50*
X130050000Y-97550000D02*
X130500000Y-98000000D01*
D51*
X147212500Y-84262500D02*
X147250000Y-84300000D01*
X139500000Y-78905000D02*
X139500000Y-80250000D01*
D50*
X126000000Y-101000000D02*
X127000000Y-101000000D01*
X132000000Y-100975000D02*
X132000000Y-101853120D01*
X127440000Y-97550000D02*
X127350000Y-97460000D01*
D51*
X132500000Y-104000000D02*
X132230000Y-103730000D01*
D50*
X137290000Y-112750000D02*
X139250000Y-112750000D01*
X130770000Y-88570000D02*
X130770000Y-88000000D01*
X127480000Y-91270000D02*
X128000000Y-90750000D01*
X132000000Y-100975000D02*
X132000000Y-99919239D01*
X132300003Y-99619236D02*
X132300003Y-99500000D01*
X138500000Y-100975000D02*
X139215000Y-100975000D01*
X139100000Y-91600000D02*
X139150000Y-91550000D01*
X129075000Y-97550000D02*
X127440000Y-97550000D01*
D51*
X134125000Y-85125000D02*
X134750000Y-85750000D01*
D50*
X132000000Y-99919239D02*
X132300003Y-99619236D01*
D51*
X132230000Y-103730000D02*
X132230000Y-102800000D01*
D50*
X127480000Y-91550000D02*
X129075000Y-91550000D01*
D51*
X134125000Y-85125000D02*
X133500000Y-85750000D01*
D50*
%TO.N,HSE_OUT*%
X127700000Y-94050000D02*
X129075000Y-94050000D01*
X126290000Y-95460000D02*
X127700000Y-94050000D01*
X124530000Y-95460000D02*
X126290000Y-95460000D01*
X124000000Y-94930000D02*
X124530000Y-95460000D01*
%TO.N,HSE_IN*%
X125500000Y-93500000D02*
X125220000Y-93780000D01*
X123250000Y-93780000D02*
X122300000Y-92830000D01*
X122300000Y-92830000D02*
X122300000Y-92730000D01*
X129075000Y-93550000D02*
X125550000Y-93550000D01*
X125220000Y-93780000D02*
X123250000Y-93780000D01*
X125550000Y-93550000D02*
X125500000Y-93500000D01*
%TO.N,Net-(U1-VCAP_1)*%
X138000000Y-100975000D02*
X138000000Y-102550000D01*
D51*
%TO.N,VBUS*%
X166600000Y-90350000D02*
X166500000Y-90250000D01*
X173175000Y-95150000D02*
X167900000Y-95150000D01*
X173175000Y-90350000D02*
X166600000Y-90350000D01*
X167900000Y-95150000D02*
X167750000Y-95000000D01*
D49*
%TO.N,Net-(U2-VAG)*%
X147890000Y-100300000D02*
X149540000Y-100300000D01*
X147640000Y-100050000D02*
X147890000Y-100300000D01*
%TO.N,HP_R*%
X155550000Y-105500000D02*
X156750000Y-106700000D01*
X156750000Y-106700000D02*
X156750000Y-109725000D01*
X156750000Y-109725000D02*
X159750000Y-112725000D01*
X153257500Y-105500000D02*
X155550000Y-105500000D01*
%TO.N,HP_L*%
X158975000Y-108725000D02*
X159750000Y-108725000D01*
X158000000Y-107750000D02*
X158975000Y-108725000D01*
X158000000Y-107750000D02*
X158000000Y-104912500D01*
D50*
%TO.N,Net-(U1-VCAP_2)*%
X140425000Y-92050000D02*
X142770000Y-92050000D01*
X142770000Y-92050000D02*
X142800000Y-92080000D01*
%TO.N,LINE_IN_L*%
X147500000Y-108895000D02*
X144860000Y-108895000D01*
X144860000Y-108895000D02*
X144750000Y-108785000D01*
D49*
%TO.N,Net-(U2-LINEIN_L)*%
X144750000Y-107250000D02*
X144750000Y-107825000D01*
X148290000Y-98200000D02*
X149515686Y-98200000D01*
X151700000Y-99700000D02*
X152250000Y-100250000D01*
X151298529Y-99700000D02*
X151700000Y-99700000D01*
X145750000Y-106250000D02*
X144750000Y-107250000D01*
X149998529Y-98400000D02*
X151298529Y-99700000D01*
X147250000Y-106250000D02*
X145750000Y-106250000D01*
X149515686Y-98200000D02*
X149715685Y-98400000D01*
X149715685Y-98400000D02*
X149998529Y-98400000D01*
%TO.N,Net-(U2-LINEIN_R)*%
X149350000Y-98600000D02*
X148290000Y-98600000D01*
X149750000Y-99000000D02*
X149350000Y-98600000D01*
X144250000Y-104500000D02*
X143500000Y-105250000D01*
X143500000Y-105250000D02*
X143500000Y-107880000D01*
D50*
%TO.N,LINE_IN_R*%
X145395000Y-112895000D02*
X143500000Y-111000000D01*
X143500000Y-111000000D02*
X143500000Y-108840000D01*
X147500000Y-112895000D02*
X145395000Y-112895000D01*
%TO.N,Net-(C20-Pad1)*%
X151230000Y-96730000D02*
X151230000Y-97800000D01*
X158500000Y-99250000D02*
X151750000Y-99250000D01*
X150750000Y-96250000D02*
X151230000Y-96730000D01*
X151230000Y-98730000D02*
X151230000Y-97800000D01*
X160000000Y-100750000D02*
X158500000Y-99250000D01*
X151750000Y-99250000D02*
X151230000Y-98730000D01*
X163300000Y-107550000D02*
X160000000Y-104250000D01*
X160000000Y-104250000D02*
X160000000Y-100750000D01*
X168650000Y-107550000D02*
X163300000Y-107550000D01*
D49*
%TO.N,MIC*%
X148290000Y-97800000D02*
X150270000Y-97800000D01*
D51*
%TO.N,+1V5*%
X170500000Y-114250000D02*
X172250000Y-112500000D01*
X144250000Y-99750000D02*
X143841684Y-99750000D01*
X172250000Y-106250000D02*
X168625000Y-102625000D01*
X141500000Y-113000000D02*
X142750000Y-114250000D01*
X143841684Y-99750000D02*
X141500000Y-102091684D01*
X141500000Y-102091684D02*
X141500000Y-113000000D01*
D49*
X144600000Y-99400000D02*
X144250000Y-99750000D01*
D51*
X142750000Y-114250000D02*
X170500000Y-114250000D01*
X172250000Y-112500000D02*
X172250000Y-106250000D01*
D49*
X145390000Y-99400000D02*
X144600000Y-99400000D01*
D51*
%TO.N,Net-(U2-VDDA)*%
X145500000Y-101550000D02*
X146710000Y-101550000D01*
D49*
X146840000Y-100050000D02*
X146840000Y-101420000D01*
D51*
X146750000Y-101520000D02*
X147970000Y-101520000D01*
D49*
X146840000Y-101420000D02*
X146750000Y-101510000D01*
D51*
X147970000Y-101520000D02*
X148250000Y-101800000D01*
X146710000Y-101550000D02*
X146750000Y-101510000D01*
%TO.N,+3V3_A*%
X149825000Y-103425000D02*
X149750000Y-103500000D01*
X149750000Y-101875000D02*
X149825000Y-101800000D01*
X149825000Y-101800000D02*
X149825000Y-103425000D01*
X153750000Y-101510000D02*
X153460000Y-101800000D01*
X153460000Y-101800000D02*
X149825000Y-101800000D01*
%TO.N,Net-(D1-K)*%
X144250000Y-85837500D02*
X144250000Y-87050000D01*
X144250000Y-87050000D02*
X144500000Y-87300000D01*
D50*
%TO.N,Net-(D2-K)*%
X126250000Y-104770000D02*
X128980000Y-107500000D01*
X126250000Y-104500000D02*
X126250000Y-104770000D01*
%TO.N,Net-(D3-A)*%
X129075000Y-95050000D02*
X129953120Y-95050000D01*
X130500000Y-94503120D02*
X130500000Y-91000000D01*
X130500000Y-91000000D02*
X124800000Y-85300000D01*
X129953120Y-95050000D02*
X130500000Y-94503120D01*
X124800000Y-85300000D02*
X122537500Y-85300000D01*
D51*
%TO.N,Net-(D3-K)*%
X120962500Y-85300000D02*
X120962500Y-86992500D01*
X120962500Y-86992500D02*
X121000000Y-87030000D01*
D50*
%TO.N,/MCU/SWDIO*%
X138350000Y-91430761D02*
X138350000Y-92300000D01*
X138600000Y-92550000D02*
X140425000Y-92550000D01*
X141250000Y-88530761D02*
X138350000Y-91430761D01*
X158290000Y-77000000D02*
X155540000Y-79750000D01*
X155540000Y-79750000D02*
X144500000Y-79750000D01*
X144500000Y-79750000D02*
X141250000Y-83000000D01*
X141250000Y-83000000D02*
X141250000Y-88530761D01*
X138350000Y-92300000D02*
X138600000Y-92550000D01*
%TO.N,/MCU/SWCLK*%
X154250000Y-78500000D02*
X142500000Y-78500000D01*
X142500000Y-78500000D02*
X138500000Y-82500000D01*
X155750000Y-77000000D02*
X154250000Y-78500000D01*
X138500000Y-82500000D02*
X138500000Y-89625000D01*
%TO.N,USB_D-*%
X174500000Y-92750000D02*
X174250000Y-92500000D01*
D49*
X140475000Y-93500000D02*
X173125000Y-93500000D01*
D50*
X174250000Y-92500000D02*
X173185000Y-92500000D01*
D49*
X173125000Y-93500000D02*
X173175000Y-93500000D01*
D50*
X173185000Y-93500000D02*
X174250000Y-93500000D01*
X174250000Y-93500000D02*
X174500000Y-93250000D01*
D49*
X173124999Y-92449999D02*
X173175000Y-92500000D01*
X140425000Y-93550000D02*
X140475000Y-93500000D01*
D50*
X174500000Y-93250000D02*
X174500000Y-92750000D01*
%TO.N,Net-(USB1-CC2)*%
X173175000Y-91000000D02*
X171750000Y-91000000D01*
X171750000Y-91000000D02*
X171500000Y-91250000D01*
%TO.N,Net-(USB1-CC1)*%
X173175000Y-94000000D02*
X171500000Y-94000000D01*
X171500000Y-94000000D02*
X171250000Y-94250000D01*
D49*
%TO.N,USB_D+*%
X173125001Y-93049999D02*
X173175000Y-93000000D01*
X170750000Y-93049999D02*
X173125001Y-93049999D01*
X140475001Y-93049999D02*
X170750000Y-93049999D01*
X170750000Y-93049999D02*
X171799999Y-92000000D01*
X140425000Y-93050000D02*
X140475000Y-93050000D01*
X171799999Y-92000000D02*
X173175000Y-92000000D01*
X140475000Y-93050000D02*
X140475001Y-93049999D01*
D51*
%TO.N,Net-(BOOT0-B)*%
X125000000Y-78930000D02*
X127820000Y-81750000D01*
X131500000Y-84000000D02*
X131500000Y-84290000D01*
X127820000Y-81750000D02*
X129250000Y-81750000D01*
X129250000Y-81750000D02*
X131500000Y-84000000D01*
D50*
%TO.N,/MCU/BOOT0*%
X131500000Y-85310000D02*
X131500000Y-86329634D01*
X131500000Y-86329634D02*
X133000000Y-87829634D01*
X133000000Y-87829634D02*
X133000000Y-89625000D01*
D49*
%TO.N,MIC_BIAS*%
X147640000Y-96610000D02*
X148000000Y-96250000D01*
X148000000Y-96250000D02*
X149730000Y-96250000D01*
X147640000Y-97150000D02*
X147640000Y-96610000D01*
%TO.N,SDA*%
X143150000Y-98600000D02*
X143000000Y-98750000D01*
D50*
X133500000Y-89625000D02*
X133500000Y-87320000D01*
D49*
X133500000Y-91400000D02*
X133500000Y-89625000D01*
X145390000Y-98600000D02*
X143150000Y-98600000D01*
X133400000Y-91500000D02*
X133500000Y-91400000D01*
%TO.N,SCL*%
X139567590Y-99500000D02*
X143313866Y-99500000D01*
X134000000Y-93932410D02*
X139567590Y-99500000D01*
D50*
X134000000Y-89625000D02*
X134000000Y-88746880D01*
D49*
X143813866Y-99000000D02*
X145390000Y-99000000D01*
D50*
X134746880Y-88000000D02*
X134750000Y-88000000D01*
D49*
X143313866Y-99500000D02*
X143813866Y-99000000D01*
D50*
X134750000Y-88000000D02*
X134750000Y-87320000D01*
D49*
X134000000Y-89625000D02*
X134000000Y-93932410D01*
D50*
X134000000Y-88746880D02*
X134746880Y-88000000D01*
%TO.N,Net-(U1-PC12)*%
X136500000Y-89625000D02*
X136500000Y-87920000D01*
D51*
%TO.N,Net-(SW1-B)*%
X136500000Y-78905000D02*
X136500000Y-86900000D01*
D50*
%TO.N,Net-(U1-PA0)*%
X128750000Y-104210000D02*
X134750000Y-110210000D01*
X128750000Y-100750000D02*
X128750000Y-104210000D01*
X127250000Y-99250000D02*
X128750000Y-100750000D01*
X127766846Y-98050000D02*
X127250000Y-98566846D01*
X127250000Y-98566846D02*
X127250000Y-99250000D01*
X129075000Y-98050000D02*
X127766846Y-98050000D01*
D49*
%TO.N,I2S_DOUT*%
X144800000Y-97800000D02*
X144550000Y-97550000D01*
X145390000Y-97800000D02*
X144800000Y-97800000D01*
X144550000Y-97550000D02*
X140425000Y-97550000D01*
%TO.N,I2S_SCLK*%
X145200000Y-96550000D02*
X145000000Y-96750000D01*
X145500000Y-96550000D02*
X145200000Y-96550000D01*
X146040000Y-96671372D02*
X145934314Y-96565686D01*
X145918628Y-96550000D02*
X145500000Y-96550000D01*
X146040000Y-97150000D02*
X146040000Y-96671372D01*
X145934314Y-96565686D02*
X145918628Y-96550000D01*
X139000000Y-97932410D02*
X139617590Y-98550000D01*
X139617590Y-98550000D02*
X140425000Y-98550000D01*
X139000000Y-97750000D02*
X139000000Y-97932410D01*
%TO.N,I2S_DIN*%
X144634314Y-98200000D02*
X145390000Y-98200000D01*
X140425000Y-98050000D02*
X144484314Y-98050000D01*
X144484314Y-98050000D02*
X144634314Y-98200000D01*
%TO.N,I2S_LRCLK*%
X141600000Y-99050000D02*
X140425000Y-99050000D01*
X146440000Y-96505686D02*
X146084314Y-96150000D01*
X146084314Y-96150000D02*
X143350000Y-96150000D01*
X143350000Y-96150000D02*
X142750000Y-96750000D01*
X142000000Y-98650000D02*
X141600000Y-99050000D01*
X146440000Y-97150000D02*
X146440000Y-96505686D01*
%TO.N,I2S_MCK*%
X142750000Y-95750000D02*
X141450000Y-97050000D01*
X146840000Y-96340000D02*
X146250000Y-95750000D01*
X146840000Y-97150000D02*
X146840000Y-96340000D01*
X146250000Y-95750000D02*
X142750000Y-95750000D01*
X141450000Y-97050000D02*
X140425000Y-97050000D01*
%TO.N,Net-(U2-HP_R)*%
X146250000Y-105500000D02*
X144750000Y-104000000D01*
X144750000Y-104000000D02*
X144750000Y-101250000D01*
X145060000Y-100940000D02*
X145750000Y-100940000D01*
X146040000Y-100650000D02*
X146040000Y-100050000D01*
X144750000Y-101250000D02*
X145060000Y-100940000D01*
X145750000Y-100940000D02*
X146040000Y-100650000D01*
X146250000Y-105500000D02*
X151432500Y-105500000D01*
%TO.N,Net-(U2-HP_L)*%
X147240000Y-100571360D02*
X147578640Y-100910000D01*
X158000000Y-102412500D02*
X156497500Y-100910000D01*
X158000000Y-103087500D02*
X158000000Y-102412500D01*
X147578640Y-100910000D02*
X156497500Y-100910000D01*
X147240000Y-100050000D02*
X147240000Y-100571360D01*
%TD*%
%TA.AperFunction,Conductor*%
%TO.N,GND*%
G36*
X178515677Y-96269685D02*
G01*
X178536319Y-96286319D01*
X178713681Y-96463681D01*
X178747166Y-96525004D01*
X178750000Y-96551362D01*
X178750000Y-97448638D01*
X178730315Y-97515677D01*
X178713681Y-97536319D01*
X178536319Y-97713681D01*
X178474996Y-97747166D01*
X178448638Y-97750000D01*
X173051362Y-97750000D01*
X172984323Y-97730315D01*
X172963681Y-97713681D01*
X172536319Y-97286319D01*
X172502834Y-97224996D01*
X172500000Y-97198638D01*
X172500000Y-96374000D01*
X172519685Y-96306961D01*
X172572489Y-96261206D01*
X172624000Y-96250000D01*
X178448638Y-96250000D01*
X178515677Y-96269685D01*
G37*
%TD.AperFunction*%
%TD*%
%TA.AperFunction,Conductor*%
%TO.N,VBUS*%
G36*
X162666177Y-93920185D02*
G01*
X162686819Y-93936819D01*
X162713681Y-93963681D01*
X162747166Y-94025004D01*
X162750000Y-94051362D01*
X162750000Y-94933637D01*
X162730315Y-95000676D01*
X162694782Y-95036812D01*
X162430616Y-95212921D01*
X162400256Y-95227643D01*
X162378601Y-95234700D01*
X162378591Y-95234704D01*
X162317264Y-95268191D01*
X162247670Y-95320289D01*
X162247649Y-95320307D01*
X162212556Y-95355401D01*
X162193658Y-95370894D01*
X162000000Y-95499999D01*
X162000000Y-95572439D01*
X161986533Y-95628638D01*
X161976561Y-95648251D01*
X161976560Y-95648253D01*
X161976560Y-95648254D01*
X161956877Y-95715283D01*
X161956876Y-95715290D01*
X161947309Y-95781830D01*
X161944500Y-95801364D01*
X161944500Y-97504138D01*
X161924815Y-97571177D01*
X161908181Y-97591819D01*
X161786319Y-97713681D01*
X161724996Y-97747166D01*
X161698638Y-97750000D01*
X160301362Y-97750000D01*
X160234323Y-97730315D01*
X160213681Y-97713681D01*
X160036319Y-97536319D01*
X160002834Y-97474996D01*
X160000000Y-97448638D01*
X160000000Y-94551362D01*
X160019685Y-94484323D01*
X160036319Y-94463681D01*
X160463681Y-94036319D01*
X160525004Y-94002834D01*
X160551362Y-94000000D01*
X161500000Y-94000000D01*
X161563181Y-93936819D01*
X161624504Y-93903334D01*
X161650862Y-93900500D01*
X162599138Y-93900500D01*
X162666177Y-93920185D01*
G37*
%TD.AperFunction*%
%TD*%
%TA.AperFunction,Conductor*%
%TO.N,+1V5*%
G36*
X163940807Y-95519685D02*
G01*
X163972144Y-95548514D01*
X163975463Y-95552840D01*
X163975464Y-95552841D01*
X164071718Y-95678282D01*
X164197159Y-95774536D01*
X164201486Y-95777856D01*
X164242689Y-95834284D01*
X164250000Y-95876232D01*
X164250000Y-99250000D01*
X164750000Y-99750000D01*
X168448638Y-99750000D01*
X168515677Y-99769685D01*
X168536319Y-99786319D01*
X168963681Y-100213681D01*
X168997166Y-100275004D01*
X169000000Y-100301362D01*
X169000000Y-103698638D01*
X168980315Y-103765677D01*
X168963681Y-103786319D01*
X168536319Y-104213681D01*
X168474996Y-104247166D01*
X168448638Y-104250000D01*
X161551362Y-104250000D01*
X161484323Y-104230315D01*
X161463681Y-104213681D01*
X161036319Y-103786319D01*
X161002834Y-103724996D01*
X161000000Y-103698638D01*
X161000000Y-102051362D01*
X161019685Y-101984323D01*
X161036319Y-101963681D01*
X162250000Y-100750000D01*
X162250000Y-97750000D01*
X162250000Y-95801362D01*
X162269685Y-95734323D01*
X162286319Y-95713681D01*
X162463681Y-95536319D01*
X162525004Y-95502834D01*
X162551362Y-95500000D01*
X163873768Y-95500000D01*
X163940807Y-95519685D01*
G37*
%TD.AperFunction*%
%TD*%
%TA.AperFunction,Conductor*%
%TO.N,+3V3_A*%
G36*
X165015677Y-80769685D02*
G01*
X165036319Y-80786319D01*
X165463681Y-81213681D01*
X165497166Y-81275004D01*
X165500000Y-81301362D01*
X165500000Y-82948638D01*
X165480315Y-83015677D01*
X165463681Y-83036319D01*
X164250000Y-84249999D01*
X164250000Y-89198638D01*
X164230315Y-89265677D01*
X164213681Y-89286319D01*
X164036319Y-89463681D01*
X163974996Y-89497166D01*
X163948638Y-89500000D01*
X162551362Y-89500000D01*
X162484323Y-89480315D01*
X162463681Y-89463681D01*
X162286319Y-89286319D01*
X162252834Y-89224996D01*
X162250000Y-89198638D01*
X162250000Y-85750000D01*
X161750000Y-85250000D01*
X158051362Y-85250000D01*
X157984323Y-85230315D01*
X157963681Y-85213681D01*
X157536319Y-84786319D01*
X157502834Y-84724996D01*
X157500000Y-84698638D01*
X157500000Y-81301362D01*
X157519685Y-81234323D01*
X157536319Y-81213681D01*
X157963681Y-80786319D01*
X158025004Y-80752834D01*
X158051362Y-80750000D01*
X164948638Y-80750000D01*
X165015677Y-80769685D01*
G37*
%TD.AperFunction*%
%TD*%
%TA.AperFunction,Conductor*%
%TO.N,VBUS*%
G36*
X155015677Y-87269685D02*
G01*
X155036319Y-87286319D01*
X155213681Y-87463681D01*
X155247166Y-87525004D01*
X155250000Y-87551362D01*
X155250000Y-91750000D01*
X155500000Y-92000000D01*
X163500000Y-92000000D01*
X164000000Y-92500000D01*
X155293497Y-92500000D01*
X155226458Y-92480315D01*
X155216035Y-92472828D01*
X155149168Y-92419334D01*
X155062053Y-92349642D01*
X154416268Y-91833014D01*
X154000000Y-91500000D01*
X152556323Y-91500000D01*
X152489284Y-91480315D01*
X152462943Y-91457585D01*
X152146200Y-91095047D01*
X152116915Y-91031610D01*
X152115580Y-91013462D01*
X152115580Y-90119658D01*
X152135265Y-90052619D01*
X152188027Y-90006883D01*
X152750000Y-89750000D01*
X153250000Y-89500000D01*
X153250000Y-87801362D01*
X153269685Y-87734323D01*
X153286319Y-87713681D01*
X153713681Y-87286319D01*
X153775004Y-87252834D01*
X153801362Y-87250000D01*
X154948638Y-87250000D01*
X155015677Y-87269685D01*
G37*
%TD.AperFunction*%
%TD*%
%TA.AperFunction,Conductor*%
%TO.N,GND*%
G36*
X159219236Y-85880937D02*
G01*
X159264991Y-85933741D01*
X159266727Y-85937726D01*
X159312502Y-86048062D01*
X159499998Y-86499997D01*
X159499999Y-86499998D01*
X159500000Y-86500000D01*
X160000000Y-86750000D01*
X161448638Y-86750000D01*
X161515677Y-86769685D01*
X161536319Y-86786319D01*
X161908181Y-87158181D01*
X161941666Y-87219504D01*
X161944500Y-87245862D01*
X161944500Y-89198638D01*
X161946250Y-89231281D01*
X161946254Y-89231334D01*
X161949081Y-89257625D01*
X161949920Y-89264660D01*
X161949920Y-89264662D01*
X161984700Y-89371402D01*
X161984703Y-89371407D01*
X161984827Y-89371635D01*
X161984865Y-89371785D01*
X161986972Y-89376665D01*
X161986196Y-89376999D01*
X162000000Y-89431069D01*
X162000000Y-89500000D01*
X162500000Y-90000000D01*
X163070500Y-90000000D01*
X163137539Y-90019685D01*
X163183294Y-90072489D01*
X163194500Y-90124000D01*
X163194500Y-91376000D01*
X163174815Y-91443039D01*
X163122011Y-91488794D01*
X163070500Y-91500000D01*
X160076636Y-91500000D01*
X160009597Y-91480315D01*
X159965727Y-91431454D01*
X159763091Y-91026182D01*
X159750000Y-90970728D01*
X159750000Y-88250000D01*
X159250000Y-87750000D01*
X158051362Y-87750000D01*
X157984323Y-87730315D01*
X157963681Y-87713681D01*
X157536319Y-87286319D01*
X157502834Y-87224996D01*
X157500000Y-87198638D01*
X157500000Y-86075045D01*
X157519685Y-86008006D01*
X157566483Y-85965191D01*
X157737982Y-85875398D01*
X157795499Y-85861252D01*
X159152197Y-85861252D01*
X159219236Y-85880937D01*
G37*
%TD.AperFunction*%
%TD*%
%TA.AperFunction,Conductor*%
%TO.N,GND*%
G36*
X178515677Y-87769685D02*
G01*
X178536319Y-87786319D01*
X178713681Y-87963681D01*
X178747166Y-88025004D01*
X178750000Y-88051362D01*
X178750000Y-88948638D01*
X178730315Y-89015677D01*
X178713681Y-89036319D01*
X178536319Y-89213681D01*
X178474996Y-89247166D01*
X178448638Y-89250000D01*
X174750000Y-89250000D01*
X172624000Y-89250000D01*
X172556961Y-89230315D01*
X172511206Y-89177511D01*
X172500000Y-89126000D01*
X172500000Y-88301362D01*
X172519685Y-88234323D01*
X172536319Y-88213681D01*
X172963681Y-87786319D01*
X173025004Y-87752834D01*
X173051362Y-87750000D01*
X178448638Y-87750000D01*
X178515677Y-87769685D01*
G37*
%TD.AperFunction*%
%TD*%
%TA.AperFunction,Conductor*%
%TO.N,VBUS*%
G36*
X166265677Y-87269685D02*
G01*
X166286319Y-87286319D01*
X166713681Y-87713681D01*
X166747166Y-87775004D01*
X166750000Y-87801362D01*
X166750000Y-90955106D01*
X166730315Y-91022145D01*
X166721259Y-91034489D01*
X165559233Y-92428921D01*
X165537181Y-92455383D01*
X165479142Y-92494282D01*
X165441922Y-92500000D01*
X164000000Y-92500000D01*
X163500000Y-92000000D01*
X163500000Y-90026056D01*
X163519685Y-89959017D01*
X163542083Y-89932967D01*
X163651807Y-89836411D01*
X163715138Y-89806901D01*
X163733724Y-89805500D01*
X163948639Y-89805500D01*
X163950559Y-89805397D01*
X163981297Y-89803749D01*
X164007655Y-89800915D01*
X164014660Y-89800080D01*
X164121407Y-89765297D01*
X164121643Y-89765167D01*
X164121799Y-89765128D01*
X164126665Y-89763028D01*
X164126998Y-89763801D01*
X164181070Y-89750000D01*
X164250000Y-89750000D01*
X164500000Y-89500000D01*
X164500000Y-89427560D01*
X164513469Y-89371356D01*
X164523439Y-89351749D01*
X164543124Y-89284710D01*
X164555500Y-89198638D01*
X164555500Y-87745862D01*
X164575185Y-87678823D01*
X164591819Y-87658181D01*
X164963681Y-87286319D01*
X165025004Y-87252834D01*
X165051362Y-87250000D01*
X166198638Y-87250000D01*
X166265677Y-87269685D01*
G37*
%TD.AperFunction*%
%TD*%
%TA.AperFunction,Conductor*%
%TO.N,GND*%
G36*
X147969236Y-85630937D02*
G01*
X148014991Y-85683741D01*
X148016727Y-85687726D01*
X148062502Y-85798062D01*
X148249998Y-86249997D01*
X148249999Y-86249998D01*
X148250000Y-86250000D01*
X148750000Y-86500000D01*
X150198638Y-86500000D01*
X150265677Y-86519685D01*
X150286319Y-86536319D01*
X150658181Y-86908181D01*
X150691666Y-86969504D01*
X150694500Y-86995862D01*
X150694500Y-89198638D01*
X150696250Y-89231281D01*
X150696254Y-89231334D01*
X150699081Y-89257625D01*
X150699920Y-89264660D01*
X150699920Y-89264662D01*
X150734700Y-89371401D01*
X150734704Y-89371411D01*
X150768189Y-89432733D01*
X150820289Y-89502329D01*
X150820307Y-89502350D01*
X150997645Y-89679687D01*
X150997660Y-89679702D01*
X151018884Y-89698766D01*
X151021993Y-89701559D01*
X151042674Y-89718224D01*
X151048172Y-89722551D01*
X151048175Y-89722553D01*
X151148251Y-89773439D01*
X151215290Y-89793124D01*
X151301362Y-89805500D01*
X151723784Y-89805500D01*
X151790823Y-89825185D01*
X151836578Y-89877989D01*
X151846522Y-89947147D01*
X151842761Y-89964436D01*
X151822457Y-90033579D01*
X151810080Y-90119660D01*
X151810080Y-91013475D01*
X151810901Y-91035853D01*
X151812238Y-91054027D01*
X151812239Y-91054033D01*
X151822821Y-91094965D01*
X151820542Y-91164798D01*
X151780870Y-91222312D01*
X151716402Y-91249248D01*
X151702768Y-91250000D01*
X148826636Y-91250000D01*
X148759597Y-91230315D01*
X148715727Y-91181454D01*
X148652014Y-91054027D01*
X148642927Y-91035853D01*
X148631738Y-91013475D01*
X148513091Y-90776182D01*
X148500000Y-90720728D01*
X148500000Y-88000000D01*
X148000000Y-87500000D01*
X146801362Y-87500000D01*
X146734323Y-87480315D01*
X146713681Y-87463681D01*
X146286319Y-87036319D01*
X146252834Y-86974996D01*
X146250000Y-86948638D01*
X146250000Y-85825045D01*
X146269685Y-85758006D01*
X146316483Y-85715191D01*
X146487982Y-85625398D01*
X146545499Y-85611252D01*
X147902197Y-85611252D01*
X147969236Y-85630937D01*
G37*
%TD.AperFunction*%
%TD*%
%TA.AperFunction,Conductor*%
%TO.N,GND*%
G36*
X166565653Y-93920185D02*
G01*
X166609523Y-93969046D01*
X166736909Y-94223818D01*
X166750000Y-94279272D01*
X166750000Y-97000000D01*
X167250000Y-97500000D01*
X169198638Y-97500000D01*
X169265677Y-97519685D01*
X169286319Y-97536319D01*
X169713681Y-97963681D01*
X169747166Y-98025004D01*
X169750000Y-98051362D01*
X169750000Y-98948638D01*
X169730315Y-99015677D01*
X169713681Y-99036319D01*
X169537077Y-99212922D01*
X169475754Y-99246407D01*
X169447573Y-99249228D01*
X168956969Y-99242012D01*
X168735000Y-99238748D01*
X168734973Y-99238748D01*
X167314474Y-99238748D01*
X167247435Y-99219063D01*
X167229115Y-99204692D01*
X166751157Y-98751098D01*
X166748835Y-98748835D01*
X166500000Y-98500000D01*
X165051362Y-98500000D01*
X164984323Y-98480315D01*
X164963681Y-98463681D01*
X164591819Y-98091819D01*
X164558334Y-98030496D01*
X164555500Y-98004138D01*
X164555500Y-95876237D01*
X164555500Y-95876232D01*
X164550963Y-95823778D01*
X164543652Y-95781830D01*
X164537835Y-95755421D01*
X164489415Y-95654128D01*
X164448216Y-95597705D01*
X164448214Y-95597702D01*
X164387451Y-95535476D01*
X164387448Y-95535474D01*
X164374807Y-95525775D01*
X164374802Y-95525771D01*
X164302554Y-95470332D01*
X164279666Y-95447444D01*
X164217835Y-95366865D01*
X164217834Y-95366864D01*
X164214531Y-95362559D01*
X164214523Y-95362549D01*
X164203831Y-95350857D01*
X164202112Y-95348938D01*
X164191478Y-95336812D01*
X164187697Y-95333031D01*
X164183866Y-95329025D01*
X164178992Y-95323695D01*
X164178991Y-95323694D01*
X164178981Y-95323683D01*
X164178544Y-95323281D01*
X164172977Y-95318159D01*
X164169250Y-95314584D01*
X164162437Y-95307771D01*
X164157720Y-95304123D01*
X164147648Y-95294857D01*
X164126955Y-95277447D01*
X164126951Y-95277445D01*
X164026877Y-95226560D01*
X163959846Y-95206877D01*
X163959840Y-95206876D01*
X163873768Y-95194500D01*
X163873765Y-95194500D01*
X163245862Y-95194500D01*
X163178823Y-95174815D01*
X163158181Y-95158181D01*
X163084070Y-95084070D01*
X163050585Y-95022747D01*
X163049014Y-94978744D01*
X163055500Y-94933637D01*
X163055500Y-94051362D01*
X163054416Y-94031138D01*
X163070484Y-93963141D01*
X163120763Y-93914625D01*
X163178238Y-93900500D01*
X166498614Y-93900500D01*
X166565653Y-93920185D01*
G37*
%TD.AperFunction*%
%TD*%
%TA.AperFunction,Conductor*%
%TO.N,+3V3*%
G36*
X153765677Y-80769685D02*
G01*
X153786319Y-80786319D01*
X154213681Y-81213681D01*
X154247166Y-81275004D01*
X154250000Y-81301362D01*
X154250000Y-82948638D01*
X154230315Y-83015677D01*
X154213681Y-83036319D01*
X153000000Y-84249999D01*
X153000000Y-87572439D01*
X152986533Y-87628638D01*
X152976561Y-87648251D01*
X152976560Y-87648253D01*
X152976560Y-87648254D01*
X152956877Y-87715283D01*
X152944500Y-87801364D01*
X152944500Y-89234552D01*
X152924815Y-89301591D01*
X152875954Y-89345461D01*
X152620052Y-89473412D01*
X152616152Y-89475278D01*
X152586627Y-89488775D01*
X152535073Y-89500000D01*
X151301362Y-89500000D01*
X151234323Y-89480315D01*
X151213681Y-89463681D01*
X151036319Y-89286319D01*
X151002834Y-89224996D01*
X151000000Y-89198638D01*
X151000000Y-85750000D01*
X150500000Y-85250000D01*
X146801362Y-85250000D01*
X146734323Y-85230315D01*
X146713681Y-85213681D01*
X146286319Y-84786319D01*
X146252834Y-84724996D01*
X146250000Y-84698638D01*
X146250000Y-81301362D01*
X146269685Y-81234323D01*
X146286319Y-81213681D01*
X146713681Y-80786319D01*
X146775004Y-80752834D01*
X146801362Y-80750000D01*
X153698638Y-80750000D01*
X153765677Y-80769685D01*
G37*
%TD.AperFunction*%
%TD*%
M02*
