%TF.GenerationSoftware,KiCad,Pcbnew,8.0.5*%
%TF.CreationDate,2024-10-28T22:39:27-05:00*%
%TF.ProjectId,audio_dsp_board,61756469-6f5f-4647-9370-5f626f617264,rev?*%
%TF.SameCoordinates,Original*%
%TF.FileFunction,Legend,Bot*%
%TF.FilePolarity,Positive*%
%FSLAX46Y46*%
G04 Gerber Fmt 4.6, Leading zero omitted, Abs format (unit mm)*
G04 Created by KiCad (PCBNEW 8.0.5) date 2024-10-28 22:39:27*
%MOMM*%
%LPD*%
G01*
G04 APERTURE LIST*
%ADD10C,0.250000*%
G04 APERTURE END LIST*
D10*
X116983666Y-87402568D02*
X116745571Y-87450187D01*
X116745571Y-87450187D02*
X116650333Y-87497806D01*
X116650333Y-87497806D02*
X116602714Y-87593044D01*
X116602714Y-87593044D02*
X116650333Y-87688282D01*
X116650333Y-87688282D02*
X116745571Y-87735901D01*
X116745571Y-87735901D02*
X117221761Y-87831139D01*
X117221761Y-87831139D02*
X117317000Y-87878758D01*
X117317000Y-87878758D02*
X117364619Y-87973996D01*
X117364619Y-87973996D02*
X117317000Y-88069234D01*
X117317000Y-88069234D02*
X117221761Y-88116853D01*
X117221761Y-88116853D02*
X116983666Y-88164473D01*
X116983666Y-88640663D02*
X116745571Y-88688282D01*
X116745571Y-88688282D02*
X116650333Y-88735901D01*
X116650333Y-88735901D02*
X116602714Y-88831139D01*
X116602714Y-88831139D02*
X116650333Y-88926377D01*
X116650333Y-88926377D02*
X116745571Y-88973996D01*
X116745571Y-88973996D02*
X117221761Y-89069234D01*
X117221761Y-89069234D02*
X117317000Y-89116853D01*
X117317000Y-89116853D02*
X117364619Y-89212091D01*
X117364619Y-89212091D02*
X117317000Y-89307329D01*
X117317000Y-89307329D02*
X117221761Y-89354948D01*
X117221761Y-89354948D02*
X116983666Y-89402568D01*
X116983666Y-89878758D02*
X116745571Y-89926377D01*
X116745571Y-89926377D02*
X116650333Y-89973996D01*
X116650333Y-89973996D02*
X116602714Y-90069234D01*
X116602714Y-90069234D02*
X116650333Y-90164472D01*
X116650333Y-90164472D02*
X116745571Y-90212091D01*
X116745571Y-90212091D02*
X117221761Y-90307329D01*
X117221761Y-90307329D02*
X117317000Y-90354948D01*
X117317000Y-90354948D02*
X117364619Y-90450186D01*
X117364619Y-90450186D02*
X117317000Y-90545424D01*
X117317000Y-90545424D02*
X117221761Y-90593043D01*
X117221761Y-90593043D02*
X116983666Y-90640663D01*
X116983666Y-91116853D02*
X116745571Y-91164472D01*
X116745571Y-91164472D02*
X116650333Y-91212091D01*
X116650333Y-91212091D02*
X116602714Y-91307329D01*
X116602714Y-91307329D02*
X116650333Y-91402567D01*
X116650333Y-91402567D02*
X116745571Y-91450186D01*
X116745571Y-91450186D02*
X117221761Y-91545424D01*
X117221761Y-91545424D02*
X117317000Y-91593043D01*
X117317000Y-91593043D02*
X117364619Y-91688281D01*
X117364619Y-91688281D02*
X117317000Y-91783519D01*
X117317000Y-91783519D02*
X117221761Y-91831138D01*
X117221761Y-91831138D02*
X116983666Y-91878758D01*
X116983666Y-92354948D02*
X116745571Y-92402567D01*
X116745571Y-92402567D02*
X116650333Y-92450186D01*
X116650333Y-92450186D02*
X116602714Y-92545424D01*
X116602714Y-92545424D02*
X116650333Y-92640662D01*
X116650333Y-92640662D02*
X116745571Y-92688281D01*
X116745571Y-92688281D02*
X117221761Y-92783519D01*
X117221761Y-92783519D02*
X117317000Y-92831138D01*
X117317000Y-92831138D02*
X117364619Y-92926376D01*
X117364619Y-92926376D02*
X117317000Y-93021614D01*
X117317000Y-93021614D02*
X117221761Y-93069233D01*
X117221761Y-93069233D02*
X116983666Y-93116853D01*
X116983666Y-93593043D02*
X116745571Y-93640662D01*
X116745571Y-93640662D02*
X116650333Y-93688281D01*
X116650333Y-93688281D02*
X116602714Y-93783519D01*
X116602714Y-93783519D02*
X116650333Y-93878757D01*
X116650333Y-93878757D02*
X116745571Y-93926376D01*
X116745571Y-93926376D02*
X117221761Y-94021614D01*
X117221761Y-94021614D02*
X117317000Y-94069233D01*
X117317000Y-94069233D02*
X117364619Y-94164471D01*
X117364619Y-94164471D02*
X117317000Y-94259709D01*
X117317000Y-94259709D02*
X117221761Y-94307328D01*
X117221761Y-94307328D02*
X116983666Y-94354948D01*
X116983666Y-94831138D02*
X116745571Y-94878757D01*
X116745571Y-94878757D02*
X116650333Y-94926376D01*
X116650333Y-94926376D02*
X116602714Y-95021614D01*
X116602714Y-95021614D02*
X116650333Y-95116852D01*
X116650333Y-95116852D02*
X116745571Y-95164471D01*
X116745571Y-95164471D02*
X117221761Y-95259709D01*
X117221761Y-95259709D02*
X117317000Y-95307328D01*
X117317000Y-95307328D02*
X117364619Y-95402566D01*
X117364619Y-95402566D02*
X117317000Y-95497804D01*
X117317000Y-95497804D02*
X117221761Y-95545423D01*
X117221761Y-95545423D02*
X116983666Y-95593043D01*
X116983666Y-96069233D02*
X116745571Y-96116852D01*
X116745571Y-96116852D02*
X116650333Y-96164471D01*
X116650333Y-96164471D02*
X116602714Y-96259709D01*
X116602714Y-96259709D02*
X116650333Y-96354947D01*
X116650333Y-96354947D02*
X116745571Y-96402566D01*
X116745571Y-96402566D02*
X117221761Y-96497804D01*
X117221761Y-96497804D02*
X117317000Y-96545423D01*
X117317000Y-96545423D02*
X117364619Y-96640661D01*
X117364619Y-96640661D02*
X117317000Y-96735899D01*
X117317000Y-96735899D02*
X117221761Y-96783518D01*
X117221761Y-96783518D02*
X116983666Y-96831138D01*
X116983666Y-97307328D02*
X116745571Y-97354947D01*
X116745571Y-97354947D02*
X116650333Y-97402566D01*
X116650333Y-97402566D02*
X116602714Y-97497804D01*
X116602714Y-97497804D02*
X116650333Y-97593042D01*
X116650333Y-97593042D02*
X116745571Y-97640661D01*
X116745571Y-97640661D02*
X117221761Y-97735899D01*
X117221761Y-97735899D02*
X117317000Y-97783518D01*
X117317000Y-97783518D02*
X117364619Y-97878756D01*
X117364619Y-97878756D02*
X117317000Y-97973994D01*
X117317000Y-97973994D02*
X117221761Y-98021613D01*
X117221761Y-98021613D02*
X116983666Y-98069233D01*
X116983666Y-98545423D02*
X116745571Y-98593042D01*
X116745571Y-98593042D02*
X116650333Y-98640661D01*
X116650333Y-98640661D02*
X116602714Y-98735899D01*
X116602714Y-98735899D02*
X116650333Y-98831137D01*
X116650333Y-98831137D02*
X116745571Y-98878756D01*
X116745571Y-98878756D02*
X117221761Y-98973994D01*
X117221761Y-98973994D02*
X117317000Y-99021613D01*
X117317000Y-99021613D02*
X117364619Y-99116851D01*
X117364619Y-99116851D02*
X117317000Y-99212089D01*
X117317000Y-99212089D02*
X117221761Y-99259708D01*
X117221761Y-99259708D02*
X116983666Y-99307328D01*
X116983666Y-99783518D02*
X116745571Y-99831137D01*
X116745571Y-99831137D02*
X116650333Y-99878756D01*
X116650333Y-99878756D02*
X116602714Y-99973994D01*
X116602714Y-99973994D02*
X116650333Y-100069232D01*
X116650333Y-100069232D02*
X116745571Y-100116851D01*
X116745571Y-100116851D02*
X117221761Y-100212089D01*
X117221761Y-100212089D02*
X117317000Y-100259708D01*
X117317000Y-100259708D02*
X117364619Y-100354946D01*
X117364619Y-100354946D02*
X117317000Y-100450184D01*
X117317000Y-100450184D02*
X117221761Y-100497803D01*
X117221761Y-100497803D02*
X116983666Y-100545423D01*
X116983666Y-101021613D02*
X116745571Y-101069232D01*
X116745571Y-101069232D02*
X116650333Y-101116851D01*
X116650333Y-101116851D02*
X116602714Y-101212089D01*
X116602714Y-101212089D02*
X116650333Y-101307327D01*
X116650333Y-101307327D02*
X116745571Y-101354946D01*
X116745571Y-101354946D02*
X117221761Y-101450184D01*
X117221761Y-101450184D02*
X117317000Y-101497803D01*
X117317000Y-101497803D02*
X117364619Y-101593041D01*
X117364619Y-101593041D02*
X117317000Y-101688279D01*
X117317000Y-101688279D02*
X117221761Y-101735898D01*
X117221761Y-101735898D02*
X116983666Y-101783518D01*
X116983666Y-102259708D02*
X116745571Y-102307327D01*
X116745571Y-102307327D02*
X116650333Y-102354946D01*
X116650333Y-102354946D02*
X116602714Y-102450184D01*
X116602714Y-102450184D02*
X116650333Y-102545422D01*
X116650333Y-102545422D02*
X116745571Y-102593041D01*
X116745571Y-102593041D02*
X117221761Y-102688279D01*
X117221761Y-102688279D02*
X117317000Y-102735898D01*
X117317000Y-102735898D02*
X117364619Y-102831136D01*
X117364619Y-102831136D02*
X117317000Y-102926374D01*
X117317000Y-102926374D02*
X117221761Y-102973993D01*
X117221761Y-102973993D02*
X116983666Y-103021613D01*
X116983666Y-103497803D02*
X116745571Y-103545422D01*
X116745571Y-103545422D02*
X116650333Y-103593041D01*
X116650333Y-103593041D02*
X116602714Y-103688279D01*
X116602714Y-103688279D02*
X116650333Y-103783517D01*
X116650333Y-103783517D02*
X116745571Y-103831136D01*
X116745571Y-103831136D02*
X117221761Y-103926374D01*
X117221761Y-103926374D02*
X117317000Y-103973993D01*
X117317000Y-103973993D02*
X117364619Y-104069231D01*
X117364619Y-104069231D02*
X117317000Y-104164469D01*
X117317000Y-104164469D02*
X117221761Y-104212088D01*
X117221761Y-104212088D02*
X116983666Y-104259708D01*
X116983666Y-104735898D02*
X116745571Y-104783517D01*
X116745571Y-104783517D02*
X116650333Y-104831136D01*
X116650333Y-104831136D02*
X116602714Y-104926374D01*
X116602714Y-104926374D02*
X116650333Y-105021612D01*
X116650333Y-105021612D02*
X116745571Y-105069231D01*
X116745571Y-105069231D02*
X117221761Y-105164469D01*
X117221761Y-105164469D02*
X117317000Y-105212088D01*
X117317000Y-105212088D02*
X117364619Y-105307326D01*
X117364619Y-105307326D02*
X117317000Y-105402564D01*
X117317000Y-105402564D02*
X117221761Y-105450183D01*
X117221761Y-105450183D02*
X116983666Y-105497803D01*
X116983666Y-105973993D02*
X116745571Y-106021612D01*
X116745571Y-106021612D02*
X116650333Y-106069231D01*
X116650333Y-106069231D02*
X116602714Y-106164469D01*
X116602714Y-106164469D02*
X116650333Y-106259707D01*
X116650333Y-106259707D02*
X116745571Y-106307326D01*
X116745571Y-106307326D02*
X117221761Y-106402564D01*
X117221761Y-106402564D02*
X117317000Y-106450183D01*
X117317000Y-106450183D02*
X117364619Y-106545421D01*
X117364619Y-106545421D02*
X117317000Y-106640659D01*
X117317000Y-106640659D02*
X117221761Y-106688278D01*
X117221761Y-106688278D02*
X116983666Y-106735898D01*
M02*
