M48
; DRILL file {KiCad 8.0.5} date 2024-10-28T22:39:31-0500
; FORMAT={-:-/ absolute / inch / decimal}
; #@! TF.CreationDate,2024-10-28T22:39:31-05:00
; #@! TF.GenerationSoftware,Kicad,Pcbnew,8.0.5
; #@! TF.FileFunction,Plated,1,4,PTH
FMAT,2
INCH
; #@! TA.AperFunction,Plated,PTH,ViaDrill
T1C0.0118
; #@! TA.AperFunction,Plated,PTH,ComponentDrill
T2C0.0236
; #@! TA.AperFunction,Plated,PTH,ComponentDrill
T3C0.0281
; #@! TA.AperFunction,Plated,PTH,ComponentDrill
T4C0.0394
%
G90
G05
T1
X4.7835Y-4.1634
X4.8327Y-3.1693
X4.9114Y-3.7992
X4.9409Y-3.6122
X5.0Y-3.9764
X5.0394Y-3.5728
X5.0689Y-3.1693
X5.1083Y-3.4646
X5.1181Y-4.3209
X5.1378Y-3.8189
X5.1378Y-3.8583
X5.1772Y-3.5827
X5.1772Y-3.9173
X5.2087Y-3.9173
X5.252Y-3.6024
X5.2805Y-3.3514
X5.315Y-3.1693
X5.4528Y-3.9173
X5.4724Y-3.8484
X5.4724Y-4.0551
X5.4764Y-3.6063
X5.4823Y-4.439
X5.4921Y-3.1693
X5.5906Y-3.8839
X5.602Y-3.5673
X5.6201Y-3.8091
X5.6299Y-3.8878
X5.6496Y-3.9862
X5.6791Y-4.1142
X5.7087Y-3.8091
X5.7128Y-4.5628
X5.748Y-4.0846
X5.7811Y-3.8819
X5.7972Y-4.1831
X5.8268Y-3.4252
X5.8366Y-3.7303
X5.8373Y-3.7657
X5.8465Y-3.3169
X5.876Y-3.4252
X5.8858Y-3.2382
X5.8957Y-3.8976
X5.9055Y-3.4252
X5.9252Y-3.5335
X5.9449Y-3.0315
X5.9547Y-3.2972
X5.9547Y-3.9488
X5.9941Y-3.9469
X6.0138Y-3.2972
X6.0531Y-3.9965
X6.2008Y-4.5571
X6.2697Y-3.435
X6.3189Y-3.4252
X6.3386Y-3.7303
X6.3484Y-3.4252
X6.3681Y-3.5335
X6.4272Y-3.4154
X6.4764Y-3.75
X6.5059Y-3.8583
X6.5354Y-3.6024
X6.5354Y-3.8583
X6.6043Y-3.7402
X6.6634Y-3.5925
X6.6634Y-3.7106
X6.6634Y-3.878
X6.7126Y-4.2323
X6.8996Y-3.4941
X6.8996Y-3.8091
X6.9587Y-3.4941
X6.9587Y-3.8091
T3
X5.2051Y-4.439
X5.3051Y-4.339
X5.4051Y-4.439
T4
X6.0319Y-3.0315
X6.1319Y-3.0315
X6.2319Y-3.0315
X6.3319Y-3.0315
T2
G00X6.8189Y-3.4815
M15
G01X6.8622Y-3.4815
M16
G05
G00X6.8189Y-3.8217
M15
G01X6.8622Y-3.8217
M16
G05
G00X6.9933Y-3.4815
M15
G01X7.0169Y-3.4815
M16
G05
G00X6.9933Y-3.8217
M15
G01X7.0169Y-3.8217
M16
G05
M30
