%TF.GenerationSoftware,KiCad,Pcbnew,8.0.5*%
%TF.CreationDate,2024-10-28T22:39:27-05:00*%
%TF.ProjectId,audio_dsp_board,61756469-6f5f-4647-9370-5f626f617264,rev?*%
%TF.SameCoordinates,Original*%
%TF.FileFunction,Soldermask,Top*%
%TF.FilePolarity,Negative*%
%FSLAX46Y46*%
G04 Gerber Fmt 4.6, Leading zero omitted, Abs format (unit mm)*
G04 Created by KiCad (PCBNEW 8.0.5) date 2024-10-28 22:39:27*
%MOMM*%
%LPD*%
G01*
G04 APERTURE LIST*
G04 Aperture macros list*
%AMRoundRect*
0 Rectangle with rounded corners*
0 $1 Rounding radius*
0 $2 $3 $4 $5 $6 $7 $8 $9 X,Y pos of 4 corners*
0 Add a 4 corners polygon primitive as box body*
4,1,4,$2,$3,$4,$5,$6,$7,$8,$9,$2,$3,0*
0 Add four circle primitives for the rounded corners*
1,1,$1+$1,$2,$3*
1,1,$1+$1,$4,$5*
1,1,$1+$1,$6,$7*
1,1,$1+$1,$8,$9*
0 Add four rect primitives between the rounded corners*
20,1,$1+$1,$2,$3,$4,$5,0*
20,1,$1+$1,$4,$5,$6,$7,0*
20,1,$1+$1,$6,$7,$8,$9,0*
20,1,$1+$1,$8,$9,$2,$3,0*%
G04 Aperture macros list end*
%ADD10RoundRect,0.140000X-0.170000X0.140000X-0.170000X-0.140000X0.170000X-0.140000X0.170000X0.140000X0*%
%ADD11R,1.000000X0.800000*%
%ADD12C,0.900000*%
%ADD13R,0.700000X1.500000*%
%ADD14R,1.200000X1.400000*%
%ADD15RoundRect,0.135000X-0.185000X0.135000X-0.185000X-0.135000X0.185000X-0.135000X0.185000X0.135000X0*%
%ADD16RoundRect,0.250000X-0.475000X0.250000X-0.475000X-0.250000X0.475000X-0.250000X0.475000X0.250000X0*%
%ADD17RoundRect,0.140000X0.140000X0.170000X-0.140000X0.170000X-0.140000X-0.170000X0.140000X-0.170000X0*%
%ADD18RoundRect,0.375000X0.375000X-0.625000X0.375000X0.625000X-0.375000X0.625000X-0.375000X-0.625000X0*%
%ADD19RoundRect,0.500000X1.400000X-0.500000X1.400000X0.500000X-1.400000X0.500000X-1.400000X-0.500000X0*%
%ADD20RoundRect,0.140000X-0.140000X-0.170000X0.140000X-0.170000X0.140000X0.170000X-0.140000X0.170000X0*%
%ADD21RoundRect,0.218750X-0.218750X-0.256250X0.218750X-0.256250X0.218750X0.256250X-0.218750X0.256250X0*%
%ADD22RoundRect,0.140000X0.170000X-0.140000X0.170000X0.140000X-0.170000X0.140000X-0.170000X-0.140000X0*%
%ADD23RoundRect,0.218750X0.218750X0.256250X-0.218750X0.256250X-0.218750X-0.256250X0.218750X-0.256250X0*%
%ADD24RoundRect,0.135000X0.135000X0.185000X-0.135000X0.185000X-0.135000X-0.185000X0.135000X-0.185000X0*%
%ADD25C,1.500000*%
%ADD26R,2.500000X1.200000*%
%ADD27O,1.700000X1.700000*%
%ADD28R,1.700000X1.700000*%
%ADD29RoundRect,0.135000X-0.135000X-0.185000X0.135000X-0.185000X0.135000X0.185000X-0.135000X0.185000X0*%
%ADD30C,1.426000*%
%ADD31RoundRect,0.102000X-0.611000X-0.611000X0.611000X-0.611000X0.611000X0.611000X-0.611000X0.611000X0*%
%ADD32R,1.000000X2.800000*%
%ADD33C,0.650000*%
%ADD34R,1.150000X0.300000*%
%ADD35R,0.745000X0.300000*%
%ADD36O,2.100000X1.000000*%
%ADD37O,1.600000X1.000000*%
%ADD38RoundRect,0.218750X0.256250X-0.218750X0.256250X0.218750X-0.256250X0.218750X-0.256250X-0.218750X0*%
%ADD39RoundRect,0.225000X0.225000X0.250000X-0.225000X0.250000X-0.225000X-0.250000X0.225000X-0.250000X0*%
%ADD40RoundRect,0.050000X0.050000X-0.375000X0.050000X0.375000X-0.050000X0.375000X-0.050000X-0.375000X0*%
%ADD41RoundRect,0.050000X0.375000X-0.050000X0.375000X0.050000X-0.375000X0.050000X-0.375000X-0.050000X0*%
%ADD42R,1.650000X1.650000*%
%ADD43RoundRect,0.075000X-0.700000X-0.075000X0.700000X-0.075000X0.700000X0.075000X-0.700000X0.075000X0*%
%ADD44RoundRect,0.075000X-0.075000X-0.700000X0.075000X-0.700000X0.075000X0.700000X-0.075000X0.700000X0*%
%ADD45RoundRect,0.250000X-0.262500X-0.450000X0.262500X-0.450000X0.262500X0.450000X-0.262500X0.450000X0*%
%ADD46RoundRect,0.225000X-0.225000X-0.250000X0.225000X-0.250000X0.225000X0.250000X-0.225000X0.250000X0*%
%ADD47RoundRect,0.250000X-0.450000X0.262500X-0.450000X-0.262500X0.450000X-0.262500X0.450000X0.262500X0*%
%ADD48RoundRect,0.375000X-0.375000X0.625000X-0.375000X-0.625000X0.375000X-0.625000X0.375000X0.625000X0*%
%ADD49RoundRect,0.500000X-1.400000X0.500000X-1.400000X-0.500000X1.400000X-0.500000X1.400000X0.500000X0*%
%ADD50RoundRect,0.250000X0.475000X-0.250000X0.475000X0.250000X-0.475000X0.250000X-0.475000X-0.250000X0*%
G04 APERTURE END LIST*
D10*
%TO.C,C8*%
X138000000Y-102550000D03*
X138000000Y-103510000D03*
%TD*%
D11*
%TO.C,BOOT0*%
X129400000Y-78280000D03*
X129400000Y-76070000D03*
D12*
X127250000Y-77170000D03*
X124250000Y-77170000D03*
D11*
X122100000Y-78280000D03*
X122100000Y-76070000D03*
D13*
X128000000Y-78930000D03*
X125000000Y-78930000D03*
X123500000Y-78930000D03*
%TD*%
D14*
%TO.C,Y1*%
X124000000Y-94930000D03*
X124000000Y-92730000D03*
X122300000Y-92730000D03*
X122300000Y-94930000D03*
%TD*%
D10*
%TO.C,C23*%
X145500000Y-101520000D03*
X145500000Y-102480000D03*
%TD*%
D15*
%TO.C,R6*%
X133500000Y-86300000D03*
X133500000Y-87320000D03*
%TD*%
D16*
%TO.C,C11*%
X147250000Y-84300000D03*
X147250000Y-86200000D03*
%TD*%
D17*
%TO.C,C1*%
X122960000Y-104500000D03*
X122000000Y-104500000D03*
%TD*%
D18*
%TO.C,U3*%
X149700000Y-88450000D03*
X152000000Y-88450000D03*
D19*
X152000000Y-82150000D03*
D18*
X154300000Y-88450000D03*
%TD*%
D20*
%TO.C,C5*%
X140700000Y-90500000D03*
X141660000Y-90500000D03*
%TD*%
D17*
%TO.C,C25*%
X149750000Y-103500000D03*
X148790000Y-103500000D03*
%TD*%
D15*
%TO.C,R7*%
X134750000Y-86300000D03*
X134750000Y-87320000D03*
%TD*%
D20*
%TO.C,C12*%
X149540000Y-100300000D03*
X150500000Y-100300000D03*
%TD*%
D18*
%TO.C,U4*%
X160950000Y-88450000D03*
X163250000Y-88450000D03*
D19*
X163250000Y-82150000D03*
D18*
X165550000Y-88450000D03*
%TD*%
D21*
%TO.C,D3*%
X120962500Y-85300000D03*
X122537500Y-85300000D03*
%TD*%
D22*
%TO.C,C18*%
X144750000Y-108785000D03*
X144750000Y-107825000D03*
%TD*%
D23*
%TO.C,D2*%
X126250000Y-104500000D03*
X124675000Y-104500000D03*
%TD*%
D24*
%TO.C,R5*%
X170480000Y-91250000D03*
X171500000Y-91250000D03*
%TD*%
D21*
%TO.C,FB1*%
X148250000Y-101800000D03*
X149825000Y-101800000D03*
%TD*%
D25*
%TO.C,IN1*%
X150750000Y-117495000D03*
X150750000Y-110495000D03*
D26*
X147500000Y-112895000D03*
X147500000Y-115895000D03*
X154000000Y-107795000D03*
X147500000Y-108895000D03*
%TD*%
D27*
%TO.C,SWD1*%
X153210000Y-77000000D03*
X155750000Y-77000000D03*
X158290000Y-77000000D03*
D28*
X160830000Y-77000000D03*
%TD*%
D10*
%TO.C,C3*%
X139500000Y-101290000D03*
X139500000Y-102250000D03*
%TD*%
D29*
%TO.C,R9*%
X144500000Y-87300000D03*
X145520000Y-87300000D03*
%TD*%
D30*
%TO.C,POT1*%
X137290000Y-112750000D03*
X134750000Y-110210000D03*
D31*
X132210000Y-112750000D03*
%TD*%
D22*
%TO.C,C13*%
X147250000Y-95750000D03*
X147250000Y-94790000D03*
%TD*%
D17*
%TO.C,C20*%
X151230000Y-97800000D03*
X150270000Y-97800000D03*
%TD*%
D32*
%TO.C,RESET1*%
X125500000Y-109600000D03*
X121500000Y-109600000D03*
X121500000Y-115400000D03*
X125500000Y-115400000D03*
%TD*%
D22*
%TO.C,C16*%
X142800000Y-92080000D03*
X142800000Y-91120000D03*
%TD*%
D29*
%TO.C,R10*%
X128980000Y-107500000D03*
X130000000Y-107500000D03*
%TD*%
D24*
%TO.C,R4*%
X170230000Y-94250000D03*
X171250000Y-94250000D03*
%TD*%
D33*
%TO.C,USB1*%
X174250000Y-95640000D03*
X174250000Y-89860000D03*
D34*
X173185000Y-96100000D03*
D35*
X172982500Y-95300000D03*
D34*
X173185000Y-94000000D03*
X173185000Y-93000000D03*
X173185000Y-92500000D03*
X173185000Y-91500000D03*
D35*
X172982500Y-90200000D03*
D34*
X173185000Y-89400000D03*
D35*
X172982500Y-89700000D03*
D34*
X173185000Y-90500000D03*
X173185000Y-91000000D03*
X173185000Y-92000000D03*
X173185000Y-93500000D03*
X173185000Y-94500000D03*
X173185000Y-95000000D03*
D35*
X172982500Y-95800000D03*
D36*
X173750000Y-97070000D03*
D37*
X177930000Y-97070000D03*
D36*
X173750000Y-88430000D03*
D37*
X177930000Y-88430000D03*
%TD*%
D38*
%TO.C,D1*%
X144250000Y-85837500D03*
X144250000Y-84262500D03*
%TD*%
D22*
%TO.C,C7*%
X125500000Y-93500000D03*
X125500000Y-92540000D03*
%TD*%
D10*
%TO.C,C24*%
X146750000Y-101520000D03*
X146750000Y-102480000D03*
%TD*%
D39*
%TO.C,C2*%
X132500000Y-104050000D03*
X130950000Y-104050000D03*
%TD*%
D11*
%TO.C,SW1*%
X140900000Y-78255000D03*
X140900000Y-76045000D03*
D12*
X138750000Y-77145000D03*
X135750000Y-77145000D03*
D11*
X133600000Y-78255000D03*
X133600000Y-76045000D03*
D13*
X139500000Y-78905000D03*
X136500000Y-78905000D03*
X135000000Y-78905000D03*
%TD*%
D17*
%TO.C,C30*%
X127480000Y-91550000D03*
X126520000Y-91550000D03*
%TD*%
D40*
%TO.C,U2*%
X146040000Y-100050000D03*
X146440000Y-100050000D03*
X146840000Y-100050000D03*
X147240000Y-100050000D03*
X147640000Y-100050000D03*
D41*
X148290000Y-99400000D03*
X148290000Y-99000000D03*
X148290000Y-98600000D03*
X148290000Y-98200000D03*
X148290000Y-97800000D03*
D40*
X147640000Y-97150000D03*
X147240000Y-97150000D03*
X146840000Y-97150000D03*
X146440000Y-97150000D03*
X146040000Y-97150000D03*
D41*
X145390000Y-97800000D03*
X145390000Y-98200000D03*
X145390000Y-98600000D03*
X145390000Y-99000000D03*
X145390000Y-99400000D03*
D42*
X146840000Y-98600000D03*
%TD*%
D15*
%TO.C,R8*%
X136500000Y-87920000D03*
X136500000Y-86900000D03*
%TD*%
D43*
%TO.C,U1*%
X129075000Y-91550000D03*
X129075000Y-92050000D03*
X129075000Y-92550000D03*
X129075000Y-93050000D03*
X129075000Y-93550000D03*
X129075000Y-94050000D03*
X129075000Y-94550000D03*
X129075000Y-95050000D03*
X129075000Y-95550000D03*
X129075000Y-96050000D03*
X129075000Y-96550000D03*
X129075000Y-97050000D03*
X129075000Y-97550000D03*
X129075000Y-98050000D03*
X129075000Y-98550000D03*
X129075000Y-99050000D03*
D44*
X131000000Y-100975000D03*
X131500000Y-100975000D03*
X132000000Y-100975000D03*
X132500000Y-100975000D03*
X133000000Y-100975000D03*
X133500000Y-100975000D03*
X134000000Y-100975000D03*
X134500000Y-100975000D03*
X135000000Y-100975000D03*
X135500000Y-100975000D03*
X136000000Y-100975000D03*
X136500000Y-100975000D03*
X137000000Y-100975000D03*
X137500000Y-100975000D03*
X138000000Y-100975000D03*
X138500000Y-100975000D03*
D43*
X140425000Y-99050000D03*
X140425000Y-98550000D03*
X140425000Y-98050000D03*
X140425000Y-97550000D03*
X140425000Y-97050000D03*
X140425000Y-96550000D03*
X140425000Y-96050000D03*
X140425000Y-95550000D03*
X140425000Y-95050000D03*
X140425000Y-94550000D03*
X140425000Y-94050000D03*
X140425000Y-93550000D03*
X140425000Y-93050000D03*
X140425000Y-92550000D03*
X140425000Y-92050000D03*
X140425000Y-91550000D03*
D44*
X138500000Y-89625000D03*
X138000000Y-89625000D03*
X137500000Y-89625000D03*
X137000000Y-89625000D03*
X136500000Y-89625000D03*
X136000000Y-89625000D03*
X135500000Y-89625000D03*
X135000000Y-89625000D03*
X134500000Y-89625000D03*
X134000000Y-89625000D03*
X133500000Y-89625000D03*
X133000000Y-89625000D03*
X132500000Y-89625000D03*
X132000000Y-89625000D03*
X131500000Y-89625000D03*
X131000000Y-89625000D03*
%TD*%
D39*
%TO.C,C10*%
X152750000Y-90550000D03*
X151200000Y-90550000D03*
%TD*%
D20*
%TO.C,C21*%
X168540000Y-107500000D03*
X169500000Y-107500000D03*
%TD*%
D45*
%TO.C,R12*%
X151675000Y-105500000D03*
X153500000Y-105500000D03*
%TD*%
D29*
%TO.C,R3*%
X149730000Y-96250000D03*
X150750000Y-96250000D03*
%TD*%
D17*
%TO.C,C9*%
X132230000Y-102800000D03*
X131270000Y-102800000D03*
%TD*%
D22*
%TO.C,C6*%
X127350000Y-97460000D03*
X127350000Y-96500000D03*
%TD*%
D10*
%TO.C,C4*%
X125750000Y-95540000D03*
X125750000Y-96500000D03*
%TD*%
D39*
%TO.C,C28*%
X164275000Y-90700000D03*
X162725000Y-90700000D03*
%TD*%
D46*
%TO.C,C26*%
X162200000Y-94450000D03*
X163750000Y-94450000D03*
%TD*%
D22*
%TO.C,C19*%
X143500000Y-108840000D03*
X143500000Y-107880000D03*
%TD*%
D20*
%TO.C,C17*%
X130770000Y-88000000D03*
X131730000Y-88000000D03*
%TD*%
D25*
%TO.C,OUT1*%
X163000000Y-117325000D03*
X163000000Y-110325000D03*
D26*
X159750000Y-112725000D03*
X159750000Y-115725000D03*
X166250000Y-107625000D03*
X159750000Y-108725000D03*
%TD*%
D24*
%TO.C,R1*%
X125770000Y-101000000D03*
X124750000Y-101000000D03*
%TD*%
D10*
%TO.C,C22*%
X144250000Y-99750000D03*
X144250000Y-100710000D03*
%TD*%
D16*
%TO.C,C29*%
X158500000Y-84450000D03*
X158500000Y-86350000D03*
%TD*%
D15*
%TO.C,R2*%
X131500000Y-85310000D03*
X131500000Y-84290000D03*
%TD*%
%TO.C,R11*%
X121000000Y-87030000D03*
X121000000Y-88050000D03*
%TD*%
D47*
%TO.C,R13*%
X158000000Y-103087500D03*
X158000000Y-104912500D03*
%TD*%
D48*
%TO.C,U5*%
X165550000Y-96550000D03*
X163250000Y-96550000D03*
D49*
X163250000Y-102850000D03*
D48*
X160950000Y-96550000D03*
%TD*%
D50*
%TO.C,C27*%
X168000000Y-100450000D03*
X168000000Y-98550000D03*
%TD*%
M02*
