%TF.GenerationSoftware,KiCad,Pcbnew,8.0.5*%
%TF.CreationDate,2024-10-28T22:39:27-05:00*%
%TF.ProjectId,audio_dsp_board,61756469-6f5f-4647-9370-5f626f617264,rev?*%
%TF.SameCoordinates,Original*%
%TF.FileFunction,Copper,L2,Inr*%
%TF.FilePolarity,Positive*%
%FSLAX46Y46*%
G04 Gerber Fmt 4.6, Leading zero omitted, Abs format (unit mm)*
G04 Created by KiCad (PCBNEW 8.0.5) date 2024-10-28 22:39:27*
%MOMM*%
%LPD*%
G01*
G04 APERTURE LIST*
%TA.AperFunction,ComponentPad*%
%ADD10O,1.700000X1.700000*%
%TD*%
%TA.AperFunction,ComponentPad*%
%ADD11R,1.700000X1.700000*%
%TD*%
%TA.AperFunction,ComponentPad*%
%ADD12C,1.222000*%
%TD*%
%TA.AperFunction,ComponentPad*%
%ADD13R,1.222000X1.222000*%
%TD*%
%TA.AperFunction,ComponentPad*%
%ADD14O,2.100000X1.000000*%
%TD*%
%TA.AperFunction,ComponentPad*%
%ADD15O,1.600000X1.000000*%
%TD*%
%TA.AperFunction,ViaPad*%
%ADD16C,0.600000*%
%TD*%
G04 APERTURE END LIST*
D10*
%TO.N,GND*%
%TO.C,SWD1*%
X153210000Y-77000000D03*
%TO.N,/MCU/SWCLK*%
X155750000Y-77000000D03*
%TO.N,/MCU/SWDIO*%
X158290000Y-77000000D03*
D11*
%TO.N,+3V3*%
X160830000Y-77000000D03*
%TD*%
D12*
%TO.N,+3V3*%
%TO.C,POT1*%
X137290000Y-112750000D03*
%TO.N,Net-(U1-PA0)*%
X134750000Y-110210000D03*
D13*
%TO.N,GND*%
X132210000Y-112750000D03*
%TD*%
D14*
%TO.N,GND*%
%TO.C,USB1*%
X173750000Y-97070000D03*
D15*
X177930000Y-97070000D03*
D14*
X173750000Y-88430000D03*
D15*
X177930000Y-88430000D03*
%TD*%
D16*
%TO.N,GND*%
X165250000Y-98000000D03*
X175250000Y-96750000D03*
X166000000Y-98000000D03*
X157500000Y-115750000D03*
X159250000Y-87250000D03*
X170500000Y-107500000D03*
X164500000Y-95250000D03*
X143500000Y-101250000D03*
X149250000Y-87000000D03*
X151000000Y-77000000D03*
X150500000Y-89750000D03*
X146840000Y-98600000D03*
X169250000Y-98500000D03*
X175250000Y-88750000D03*
X176750000Y-96750000D03*
X121500000Y-105750000D03*
X130000000Y-109750000D03*
X142290000Y-90610000D03*
X169250000Y-94250000D03*
X125500000Y-91750000D03*
X145105000Y-115895000D03*
X161750000Y-89750000D03*
X169250000Y-91250000D03*
X146000000Y-103750000D03*
X131500000Y-99500000D03*
X148250000Y-94750000D03*
X122750000Y-80500000D03*
X135000000Y-80500000D03*
X139000000Y-103000000D03*
X148000000Y-87000000D03*
X131500000Y-91000000D03*
X150000000Y-87000000D03*
X130500000Y-97000000D03*
X124750000Y-96500000D03*
X160500000Y-87000000D03*
X161250000Y-87000000D03*
X176750000Y-88750000D03*
X151250000Y-100300000D03*
%TO.N,+3V3*%
X129750000Y-88000000D03*
X130500000Y-98000000D03*
X151250000Y-83750000D03*
X128750000Y-80500000D03*
X139100000Y-91600000D03*
X148500000Y-84250000D03*
X139250000Y-112750000D03*
X138500000Y-99500000D03*
X132300003Y-99500000D03*
X139500000Y-80500000D03*
X148268329Y-95650000D03*
X152750000Y-83750000D03*
X134125000Y-85125000D03*
X149500000Y-82250000D03*
X127000000Y-101000000D03*
X128000000Y-90750000D03*
%TO.N,VBUS*%
X166000000Y-91500000D03*
X167750000Y-95000000D03*
X161000000Y-94750000D03*
%TO.N,Net-(U2-LINEIN_L)*%
X147250000Y-106250000D03*
X152250000Y-100250000D03*
%TO.N,Net-(U2-LINEIN_R)*%
X144250000Y-104500000D03*
X149750000Y-99000000D03*
%TO.N,+3V3_A*%
X163250000Y-86750000D03*
X153750000Y-101510000D03*
%TO.N,SDA*%
X143000000Y-98750000D03*
X133400000Y-91500000D03*
%TO.N,I2S_SCLK*%
X139000000Y-97750000D03*
X145000000Y-96750000D03*
%TO.N,I2S_LRCLK*%
X142000000Y-98650000D03*
X142750000Y-96750000D03*
%TD*%
%TA.AperFunction,Conductor*%
%TO.N,GND*%
G36*
X177503472Y-74950695D02*
G01*
X177806503Y-74967713D01*
X177820301Y-74969267D01*
X178116080Y-75019522D01*
X178129636Y-75022616D01*
X178417927Y-75105672D01*
X178431051Y-75110265D01*
X178655073Y-75203057D01*
X178708219Y-75225071D01*
X178708222Y-75225072D01*
X178720744Y-75231101D01*
X178923184Y-75342986D01*
X178983328Y-75376227D01*
X178995102Y-75383625D01*
X179092353Y-75452628D01*
X179239789Y-75557239D01*
X179250657Y-75565907D01*
X179474352Y-75765815D01*
X179484184Y-75775647D01*
X179684092Y-75999342D01*
X179692763Y-76010214D01*
X179866374Y-76254897D01*
X179873772Y-76266671D01*
X179983662Y-76465500D01*
X180014157Y-76520678D01*
X180018894Y-76529248D01*
X180024927Y-76541777D01*
X180139734Y-76818948D01*
X180144327Y-76832072D01*
X180227383Y-77120363D01*
X180230477Y-77133920D01*
X180280730Y-77429688D01*
X180282287Y-77443506D01*
X180299305Y-77746526D01*
X180299500Y-77753479D01*
X180299501Y-116510119D01*
X180299501Y-116546520D01*
X180299306Y-116553473D01*
X180282288Y-116856493D01*
X180280731Y-116870311D01*
X180230478Y-117166080D01*
X180227384Y-117179637D01*
X180144328Y-117467928D01*
X180139735Y-117481053D01*
X180024928Y-117758223D01*
X180018895Y-117770751D01*
X179873770Y-118033336D01*
X179866371Y-118045110D01*
X179692772Y-118289774D01*
X179684103Y-118300646D01*
X179484186Y-118524353D01*
X179474353Y-118534186D01*
X179250646Y-118734103D01*
X179239774Y-118742772D01*
X178995110Y-118916371D01*
X178983336Y-118923770D01*
X178720751Y-119068895D01*
X178708223Y-119074928D01*
X178431053Y-119189735D01*
X178417928Y-119194328D01*
X178129637Y-119277384D01*
X178116080Y-119280478D01*
X177820311Y-119330731D01*
X177806493Y-119332288D01*
X177503473Y-119349306D01*
X177496520Y-119349501D01*
X118503480Y-119349501D01*
X118496527Y-119349306D01*
X118193506Y-119332288D01*
X118179688Y-119330731D01*
X117883919Y-119280478D01*
X117870362Y-119277384D01*
X117582071Y-119194328D01*
X117568946Y-119189735D01*
X117291776Y-119074928D01*
X117279248Y-119068895D01*
X117016659Y-118923767D01*
X117004894Y-118916374D01*
X116760221Y-118742769D01*
X116749353Y-118734103D01*
X116525646Y-118534186D01*
X116515813Y-118524353D01*
X116459106Y-118460898D01*
X116315891Y-118300640D01*
X116307232Y-118289780D01*
X116133622Y-118045100D01*
X116126235Y-118033345D01*
X115981100Y-117770744D01*
X115975074Y-117758230D01*
X115907022Y-117593937D01*
X149745499Y-117593937D01*
X149784101Y-117787996D01*
X149784104Y-117788006D01*
X149859820Y-117970802D01*
X149859827Y-117970815D01*
X149969753Y-118135330D01*
X149969756Y-118135334D01*
X150109665Y-118275243D01*
X150109669Y-118275246D01*
X150274184Y-118385172D01*
X150274197Y-118385179D01*
X150456993Y-118460895D01*
X150456998Y-118460897D01*
X150457002Y-118460897D01*
X150457003Y-118460898D01*
X150651062Y-118499500D01*
X150651065Y-118499500D01*
X150848937Y-118499500D01*
X150979495Y-118473529D01*
X151043002Y-118460897D01*
X151225809Y-118385176D01*
X151390331Y-118275246D01*
X151530246Y-118135331D01*
X151640176Y-117970809D01*
X151642446Y-117965330D01*
X151657332Y-117929389D01*
X151715897Y-117788002D01*
X151754500Y-117593935D01*
X151754500Y-117423937D01*
X161995499Y-117423937D01*
X162034101Y-117617996D01*
X162034104Y-117618006D01*
X162109820Y-117800802D01*
X162109827Y-117800815D01*
X162219753Y-117965330D01*
X162219756Y-117965334D01*
X162359665Y-118105243D01*
X162359669Y-118105246D01*
X162524184Y-118215172D01*
X162524197Y-118215179D01*
X162669213Y-118275246D01*
X162706998Y-118290897D01*
X162707002Y-118290897D01*
X162707003Y-118290898D01*
X162901062Y-118329500D01*
X162901065Y-118329500D01*
X163098937Y-118329500D01*
X163269811Y-118295510D01*
X163293002Y-118290897D01*
X163475809Y-118215176D01*
X163640331Y-118105246D01*
X163780246Y-117965331D01*
X163890176Y-117800809D01*
X163965897Y-117618002D01*
X163978529Y-117554495D01*
X164004500Y-117423937D01*
X164004500Y-117226062D01*
X163965898Y-117032003D01*
X163965897Y-117032002D01*
X163965897Y-117031998D01*
X163960589Y-117019184D01*
X163890179Y-116849197D01*
X163890172Y-116849184D01*
X163780246Y-116684669D01*
X163780243Y-116684665D01*
X163640334Y-116544756D01*
X163640330Y-116544753D01*
X163475815Y-116434827D01*
X163475802Y-116434820D01*
X163293006Y-116359104D01*
X163292996Y-116359101D01*
X163098937Y-116320500D01*
X163098935Y-116320500D01*
X162901065Y-116320500D01*
X162901063Y-116320500D01*
X162707003Y-116359101D01*
X162706993Y-116359104D01*
X162524197Y-116434820D01*
X162524184Y-116434827D01*
X162359669Y-116544753D01*
X162359665Y-116544756D01*
X162219756Y-116684665D01*
X162219753Y-116684669D01*
X162109827Y-116849184D01*
X162109820Y-116849197D01*
X162034104Y-117031993D01*
X162034101Y-117032003D01*
X161995500Y-117226062D01*
X161995500Y-117226065D01*
X161995500Y-117423935D01*
X161995500Y-117423937D01*
X161995499Y-117423937D01*
X151754500Y-117423937D01*
X151754500Y-117396065D01*
X151754500Y-117396062D01*
X151715898Y-117202003D01*
X151715897Y-117202002D01*
X151715897Y-117201998D01*
X151645479Y-117031993D01*
X151640179Y-117019197D01*
X151640172Y-117019184D01*
X151530246Y-116854669D01*
X151530243Y-116854665D01*
X151390334Y-116714756D01*
X151390330Y-116714753D01*
X151225815Y-116604827D01*
X151225802Y-116604820D01*
X151043006Y-116529104D01*
X151042996Y-116529101D01*
X150848937Y-116490500D01*
X150848935Y-116490500D01*
X150651065Y-116490500D01*
X150651063Y-116490500D01*
X150457003Y-116529101D01*
X150456993Y-116529104D01*
X150274197Y-116604820D01*
X150274184Y-116604827D01*
X150109669Y-116714753D01*
X150109665Y-116714756D01*
X149969756Y-116854665D01*
X149969753Y-116854669D01*
X149859827Y-117019184D01*
X149859820Y-117019197D01*
X149784104Y-117201993D01*
X149784101Y-117202003D01*
X149745500Y-117396062D01*
X149745500Y-117396065D01*
X149745500Y-117593935D01*
X149745500Y-117593937D01*
X149745499Y-117593937D01*
X115907022Y-117593937D01*
X115860264Y-117481053D01*
X115855671Y-117467928D01*
X115772615Y-117179637D01*
X115769521Y-117166080D01*
X115750029Y-117051357D01*
X115719266Y-116870301D01*
X115717712Y-116856503D01*
X115700694Y-116553473D01*
X115700499Y-116546520D01*
X115700499Y-112091155D01*
X131099000Y-112091155D01*
X131099000Y-112500000D01*
X131955126Y-112500000D01*
X131924329Y-112530797D01*
X131877329Y-112612203D01*
X131853000Y-112703000D01*
X131853000Y-112797000D01*
X131877329Y-112887797D01*
X131924329Y-112969203D01*
X131955126Y-113000000D01*
X131099000Y-113000000D01*
X131099000Y-113408844D01*
X131105401Y-113468372D01*
X131105403Y-113468379D01*
X131155645Y-113603086D01*
X131155649Y-113603093D01*
X131241809Y-113718187D01*
X131241812Y-113718190D01*
X131356906Y-113804350D01*
X131356913Y-113804354D01*
X131491620Y-113854596D01*
X131491627Y-113854598D01*
X131551155Y-113860999D01*
X131551172Y-113861000D01*
X131960000Y-113861000D01*
X131960000Y-113004874D01*
X131990797Y-113035671D01*
X132072203Y-113082671D01*
X132163000Y-113107000D01*
X132257000Y-113107000D01*
X132347797Y-113082671D01*
X132429203Y-113035671D01*
X132460000Y-113004874D01*
X132460000Y-113861000D01*
X132868828Y-113861000D01*
X132868844Y-113860999D01*
X132928372Y-113854598D01*
X132928379Y-113854596D01*
X133063086Y-113804354D01*
X133063093Y-113804350D01*
X133178187Y-113718190D01*
X133178190Y-113718187D01*
X133264350Y-113603093D01*
X133264354Y-113603086D01*
X133314596Y-113468379D01*
X133314598Y-113468372D01*
X133320999Y-113408844D01*
X133321000Y-113408827D01*
X133321000Y-113000000D01*
X132464874Y-113000000D01*
X132495671Y-112969203D01*
X132542671Y-112887797D01*
X132567000Y-112797000D01*
X132567000Y-112750000D01*
X136373479Y-112750000D01*
X136393507Y-112940556D01*
X136393508Y-112940558D01*
X136452715Y-113122781D01*
X136548517Y-113288716D01*
X136676728Y-113431108D01*
X136831734Y-113543727D01*
X136831735Y-113543727D01*
X136831739Y-113543730D01*
X136965070Y-113603093D01*
X137006774Y-113621661D01*
X137006779Y-113621663D01*
X137194197Y-113661500D01*
X137385803Y-113661500D01*
X137573221Y-113621663D01*
X137748261Y-113543730D01*
X137903272Y-113431108D01*
X138031481Y-113288718D01*
X138127284Y-113122783D01*
X138186493Y-112940555D01*
X138206521Y-112750000D01*
X138206521Y-112749998D01*
X138644318Y-112749998D01*
X138644318Y-112750001D01*
X138664955Y-112906760D01*
X138664956Y-112906762D01*
X138703576Y-113000000D01*
X138725464Y-113052841D01*
X138821718Y-113178282D01*
X138947159Y-113274536D01*
X139093238Y-113335044D01*
X139171619Y-113345363D01*
X139249999Y-113355682D01*
X139250000Y-113355682D01*
X139250001Y-113355682D01*
X139302254Y-113348802D01*
X139406762Y-113335044D01*
X139552841Y-113274536D01*
X139678282Y-113178282D01*
X139774536Y-113052841D01*
X139835044Y-112906762D01*
X139855682Y-112750000D01*
X139849494Y-112703000D01*
X139835044Y-112593239D01*
X139835044Y-112593238D01*
X139774536Y-112447159D01*
X139678282Y-112321718D01*
X139552841Y-112225464D01*
X139406762Y-112164956D01*
X139406760Y-112164955D01*
X139250001Y-112144318D01*
X139249999Y-112144318D01*
X139093239Y-112164955D01*
X139093237Y-112164956D01*
X138947160Y-112225463D01*
X138821718Y-112321718D01*
X138725463Y-112447160D01*
X138664956Y-112593237D01*
X138664955Y-112593239D01*
X138644318Y-112749998D01*
X138206521Y-112749998D01*
X138186493Y-112559445D01*
X138127284Y-112377217D01*
X138039669Y-112225464D01*
X138031482Y-112211283D01*
X137903271Y-112068891D01*
X137748265Y-111956272D01*
X137748262Y-111956270D01*
X137748261Y-111956270D01*
X137684702Y-111927971D01*
X137573225Y-111878338D01*
X137573220Y-111878336D01*
X137385803Y-111838500D01*
X137194197Y-111838500D01*
X137006779Y-111878336D01*
X137006774Y-111878338D01*
X136831741Y-111956269D01*
X136676728Y-112068891D01*
X136548517Y-112211283D01*
X136452715Y-112377218D01*
X136393508Y-112559441D01*
X136393507Y-112559443D01*
X136373479Y-112750000D01*
X132567000Y-112750000D01*
X132567000Y-112703000D01*
X132542671Y-112612203D01*
X132495671Y-112530797D01*
X132464874Y-112500000D01*
X133321000Y-112500000D01*
X133321000Y-112091172D01*
X133320999Y-112091155D01*
X133314598Y-112031627D01*
X133314596Y-112031620D01*
X133264354Y-111896913D01*
X133264350Y-111896906D01*
X133178190Y-111781812D01*
X133178187Y-111781809D01*
X133063093Y-111695649D01*
X133063086Y-111695645D01*
X132928379Y-111645403D01*
X132928372Y-111645401D01*
X132868844Y-111639000D01*
X132460000Y-111639000D01*
X132460000Y-112495126D01*
X132429203Y-112464329D01*
X132347797Y-112417329D01*
X132257000Y-112393000D01*
X132163000Y-112393000D01*
X132072203Y-112417329D01*
X131990797Y-112464329D01*
X131960000Y-112495126D01*
X131960000Y-111639000D01*
X131551155Y-111639000D01*
X131491627Y-111645401D01*
X131491620Y-111645403D01*
X131356913Y-111695645D01*
X131356906Y-111695649D01*
X131241812Y-111781809D01*
X131241809Y-111781812D01*
X131155649Y-111896906D01*
X131155645Y-111896913D01*
X131105403Y-112031620D01*
X131105401Y-112031627D01*
X131099000Y-112091155D01*
X115700499Y-112091155D01*
X115700499Y-110210000D01*
X133833479Y-110210000D01*
X133853507Y-110400556D01*
X133853508Y-110400558D01*
X133912715Y-110582781D01*
X134008517Y-110748716D01*
X134136728Y-110891108D01*
X134291734Y-111003727D01*
X134291735Y-111003727D01*
X134291739Y-111003730D01*
X134434490Y-111067287D01*
X134466774Y-111081661D01*
X134466779Y-111081663D01*
X134654197Y-111121500D01*
X134845803Y-111121500D01*
X135033221Y-111081663D01*
X135208261Y-111003730D01*
X135363272Y-110891108D01*
X135491481Y-110748718D01*
X135580844Y-110593937D01*
X149745499Y-110593937D01*
X149784101Y-110787996D01*
X149784104Y-110788006D01*
X149859820Y-110970802D01*
X149859827Y-110970815D01*
X149969753Y-111135330D01*
X149969756Y-111135334D01*
X150109665Y-111275243D01*
X150109669Y-111275246D01*
X150274184Y-111385172D01*
X150274197Y-111385179D01*
X150456993Y-111460895D01*
X150456998Y-111460897D01*
X150457002Y-111460897D01*
X150457003Y-111460898D01*
X150651062Y-111499500D01*
X150651065Y-111499500D01*
X150848937Y-111499500D01*
X150979495Y-111473529D01*
X151043002Y-111460897D01*
X151225809Y-111385176D01*
X151390331Y-111275246D01*
X151530246Y-111135331D01*
X151640176Y-110970809D01*
X151642446Y-110965330D01*
X151673189Y-110891108D01*
X151715897Y-110788002D01*
X151754500Y-110593935D01*
X151754500Y-110423937D01*
X161995499Y-110423937D01*
X162034101Y-110617996D01*
X162034104Y-110618006D01*
X162109820Y-110800802D01*
X162109827Y-110800815D01*
X162219753Y-110965330D01*
X162219756Y-110965334D01*
X162359665Y-111105243D01*
X162359669Y-111105246D01*
X162524184Y-111215172D01*
X162524197Y-111215179D01*
X162669213Y-111275246D01*
X162706998Y-111290897D01*
X162707002Y-111290897D01*
X162707003Y-111290898D01*
X162901062Y-111329500D01*
X162901065Y-111329500D01*
X163098937Y-111329500D01*
X163229495Y-111303529D01*
X163293002Y-111290897D01*
X163475809Y-111215176D01*
X163640331Y-111105246D01*
X163780246Y-110965331D01*
X163890176Y-110800809D01*
X163965897Y-110618002D01*
X164004500Y-110423935D01*
X164004500Y-110226065D01*
X164004500Y-110226062D01*
X163965898Y-110032003D01*
X163965897Y-110032002D01*
X163965897Y-110031998D01*
X163960589Y-110019184D01*
X163890179Y-109849197D01*
X163890172Y-109849184D01*
X163780246Y-109684669D01*
X163780243Y-109684665D01*
X163640334Y-109544756D01*
X163640330Y-109544753D01*
X163475815Y-109434827D01*
X163475802Y-109434820D01*
X163293006Y-109359104D01*
X163292996Y-109359101D01*
X163098937Y-109320500D01*
X163098935Y-109320500D01*
X162901065Y-109320500D01*
X162901063Y-109320500D01*
X162707003Y-109359101D01*
X162706993Y-109359104D01*
X162524197Y-109434820D01*
X162524184Y-109434827D01*
X162359669Y-109544753D01*
X162359665Y-109544756D01*
X162219756Y-109684665D01*
X162219753Y-109684669D01*
X162109827Y-109849184D01*
X162109820Y-109849197D01*
X162034104Y-110031993D01*
X162034101Y-110032003D01*
X161995500Y-110226062D01*
X161995500Y-110226065D01*
X161995500Y-110423935D01*
X161995500Y-110423937D01*
X161995499Y-110423937D01*
X151754500Y-110423937D01*
X151754500Y-110396065D01*
X151754500Y-110396062D01*
X151715898Y-110202003D01*
X151715897Y-110202002D01*
X151715897Y-110201998D01*
X151645479Y-110031993D01*
X151640179Y-110019197D01*
X151640172Y-110019184D01*
X151530246Y-109854669D01*
X151530243Y-109854665D01*
X151390334Y-109714756D01*
X151390330Y-109714753D01*
X151225815Y-109604827D01*
X151225802Y-109604820D01*
X151043006Y-109529104D01*
X151042996Y-109529101D01*
X150848937Y-109490500D01*
X150848935Y-109490500D01*
X150651065Y-109490500D01*
X150651063Y-109490500D01*
X150457003Y-109529101D01*
X150456993Y-109529104D01*
X150274197Y-109604820D01*
X150274184Y-109604827D01*
X150109669Y-109714753D01*
X150109665Y-109714756D01*
X149969756Y-109854665D01*
X149969753Y-109854669D01*
X149859827Y-110019184D01*
X149859820Y-110019197D01*
X149784104Y-110201993D01*
X149784101Y-110202003D01*
X149745500Y-110396062D01*
X149745500Y-110396065D01*
X149745500Y-110593935D01*
X149745500Y-110593937D01*
X149745499Y-110593937D01*
X135580844Y-110593937D01*
X135587284Y-110582783D01*
X135646493Y-110400555D01*
X135666521Y-110210000D01*
X135646493Y-110019445D01*
X135587284Y-109837217D01*
X135491481Y-109671282D01*
X135363272Y-109528892D01*
X135363271Y-109528891D01*
X135208265Y-109416272D01*
X135208262Y-109416270D01*
X135208261Y-109416270D01*
X135144702Y-109387971D01*
X135033225Y-109338338D01*
X135033220Y-109338336D01*
X134845803Y-109298500D01*
X134654197Y-109298500D01*
X134466779Y-109338336D01*
X134466774Y-109338338D01*
X134291741Y-109416269D01*
X134136728Y-109528891D01*
X134008517Y-109671283D01*
X133912715Y-109837218D01*
X133853508Y-110019441D01*
X133853507Y-110019443D01*
X133833479Y-110210000D01*
X115700499Y-110210000D01*
X115700499Y-106249998D01*
X146644318Y-106249998D01*
X146644318Y-106250001D01*
X146664955Y-106406760D01*
X146664956Y-106406762D01*
X146725464Y-106552841D01*
X146821718Y-106678282D01*
X146947159Y-106774536D01*
X147093238Y-106835044D01*
X147171619Y-106845363D01*
X147249999Y-106855682D01*
X147250000Y-106855682D01*
X147250001Y-106855682D01*
X147302254Y-106848802D01*
X147406762Y-106835044D01*
X147552841Y-106774536D01*
X147678282Y-106678282D01*
X147774536Y-106552841D01*
X147835044Y-106406762D01*
X147855682Y-106250000D01*
X147835044Y-106093238D01*
X147774536Y-105947159D01*
X147678282Y-105821718D01*
X147552841Y-105725464D01*
X147406762Y-105664956D01*
X147406760Y-105664955D01*
X147250001Y-105644318D01*
X147249999Y-105644318D01*
X147093239Y-105664955D01*
X147093237Y-105664956D01*
X146947160Y-105725463D01*
X146821718Y-105821718D01*
X146725463Y-105947160D01*
X146664956Y-106093237D01*
X146664955Y-106093239D01*
X146644318Y-106249998D01*
X115700499Y-106249998D01*
X115700499Y-104499998D01*
X143644318Y-104499998D01*
X143644318Y-104500001D01*
X143664955Y-104656760D01*
X143664956Y-104656762D01*
X143725464Y-104802841D01*
X143821718Y-104928282D01*
X143947159Y-105024536D01*
X144093238Y-105085044D01*
X144171619Y-105095363D01*
X144249999Y-105105682D01*
X144250000Y-105105682D01*
X144250001Y-105105682D01*
X144302254Y-105098802D01*
X144406762Y-105085044D01*
X144552841Y-105024536D01*
X144678282Y-104928282D01*
X144774536Y-104802841D01*
X144835044Y-104656762D01*
X144855682Y-104500000D01*
X144835044Y-104343238D01*
X144774536Y-104197159D01*
X144678282Y-104071718D01*
X144552841Y-103975464D01*
X144406762Y-103914956D01*
X144406760Y-103914955D01*
X144250001Y-103894318D01*
X144249999Y-103894318D01*
X144093239Y-103914955D01*
X144093237Y-103914956D01*
X143947160Y-103975463D01*
X143821718Y-104071718D01*
X143725463Y-104197160D01*
X143664956Y-104343237D01*
X143664955Y-104343239D01*
X143644318Y-104499998D01*
X115700499Y-104499998D01*
X115700499Y-100999998D01*
X126394318Y-100999998D01*
X126394318Y-101000001D01*
X126414955Y-101156760D01*
X126414956Y-101156762D01*
X126475464Y-101302841D01*
X126571718Y-101428282D01*
X126697159Y-101524536D01*
X126843238Y-101585044D01*
X126921619Y-101595363D01*
X126999999Y-101605682D01*
X127000000Y-101605682D01*
X127000001Y-101605682D01*
X127052254Y-101598802D01*
X127156762Y-101585044D01*
X127302841Y-101524536D01*
X127321787Y-101509998D01*
X153144318Y-101509998D01*
X153144318Y-101510001D01*
X153164955Y-101666760D01*
X153164956Y-101666762D01*
X153225464Y-101812841D01*
X153321718Y-101938282D01*
X153447159Y-102034536D01*
X153593238Y-102095044D01*
X153671619Y-102105363D01*
X153749999Y-102115682D01*
X153750000Y-102115682D01*
X153750001Y-102115682D01*
X153802254Y-102108802D01*
X153906762Y-102095044D01*
X154052841Y-102034536D01*
X154178282Y-101938282D01*
X154274536Y-101812841D01*
X154335044Y-101666762D01*
X154355682Y-101510000D01*
X154335044Y-101353238D01*
X154274536Y-101207159D01*
X154178282Y-101081718D01*
X154052841Y-100985464D01*
X153906762Y-100924956D01*
X153906760Y-100924955D01*
X153750001Y-100904318D01*
X153749999Y-100904318D01*
X153593239Y-100924955D01*
X153593237Y-100924956D01*
X153447160Y-100985463D01*
X153321718Y-101081718D01*
X153225463Y-101207160D01*
X153164956Y-101353237D01*
X153164955Y-101353239D01*
X153144318Y-101509998D01*
X127321787Y-101509998D01*
X127428282Y-101428282D01*
X127524536Y-101302841D01*
X127585044Y-101156762D01*
X127605682Y-101000000D01*
X127603768Y-100985464D01*
X127585044Y-100843239D01*
X127585044Y-100843238D01*
X127524536Y-100697159D01*
X127428282Y-100571718D01*
X127302841Y-100475464D01*
X127156762Y-100414956D01*
X127156760Y-100414955D01*
X127000001Y-100394318D01*
X126999999Y-100394318D01*
X126843239Y-100414955D01*
X126843237Y-100414956D01*
X126697160Y-100475463D01*
X126571718Y-100571718D01*
X126475463Y-100697160D01*
X126414956Y-100843237D01*
X126414955Y-100843239D01*
X126394318Y-100999998D01*
X115700499Y-100999998D01*
X115700499Y-100249998D01*
X151644318Y-100249998D01*
X151644318Y-100250001D01*
X151664955Y-100406760D01*
X151664956Y-100406762D01*
X151725464Y-100552841D01*
X151821718Y-100678282D01*
X151947159Y-100774536D01*
X152093238Y-100835044D01*
X152155478Y-100843238D01*
X152249999Y-100855682D01*
X152250000Y-100855682D01*
X152250001Y-100855682D01*
X152344514Y-100843239D01*
X152406762Y-100835044D01*
X152552841Y-100774536D01*
X152678282Y-100678282D01*
X152774536Y-100552841D01*
X152835044Y-100406762D01*
X152855682Y-100250000D01*
X152835044Y-100093238D01*
X152774536Y-99947159D01*
X152678282Y-99821718D01*
X152552841Y-99725464D01*
X152406762Y-99664956D01*
X152406760Y-99664955D01*
X152250001Y-99644318D01*
X152249999Y-99644318D01*
X152093239Y-99664955D01*
X152093237Y-99664956D01*
X151947160Y-99725463D01*
X151821718Y-99821718D01*
X151725463Y-99947160D01*
X151664956Y-100093237D01*
X151664955Y-100093239D01*
X151644318Y-100249998D01*
X115700499Y-100249998D01*
X115700499Y-99499998D01*
X131694321Y-99499998D01*
X131694321Y-99500001D01*
X131714958Y-99656760D01*
X131714959Y-99656762D01*
X131775467Y-99802841D01*
X131871721Y-99928282D01*
X131997162Y-100024536D01*
X132143241Y-100085044D01*
X132205481Y-100093238D01*
X132300002Y-100105682D01*
X132300003Y-100105682D01*
X132300004Y-100105682D01*
X132394517Y-100093239D01*
X132456765Y-100085044D01*
X132602844Y-100024536D01*
X132728285Y-99928282D01*
X132824539Y-99802841D01*
X132885047Y-99656762D01*
X132905685Y-99500000D01*
X132905685Y-99499998D01*
X137894318Y-99499998D01*
X137894318Y-99500001D01*
X137914955Y-99656760D01*
X137914956Y-99656762D01*
X137975464Y-99802841D01*
X138071718Y-99928282D01*
X138197159Y-100024536D01*
X138343238Y-100085044D01*
X138405478Y-100093238D01*
X138499999Y-100105682D01*
X138500000Y-100105682D01*
X138500001Y-100105682D01*
X138594514Y-100093239D01*
X138656762Y-100085044D01*
X138802841Y-100024536D01*
X138928282Y-99928282D01*
X139024536Y-99802841D01*
X139085044Y-99656762D01*
X139105682Y-99500000D01*
X139085044Y-99343238D01*
X139024536Y-99197159D01*
X138928282Y-99071718D01*
X138802841Y-98975464D01*
X138748224Y-98952841D01*
X138656762Y-98914956D01*
X138656760Y-98914955D01*
X138500001Y-98894318D01*
X138499999Y-98894318D01*
X138343239Y-98914955D01*
X138343237Y-98914956D01*
X138197160Y-98975463D01*
X138071718Y-99071718D01*
X137975463Y-99197160D01*
X137914956Y-99343237D01*
X137914955Y-99343239D01*
X137894318Y-99499998D01*
X132905685Y-99499998D01*
X132885047Y-99343238D01*
X132824539Y-99197159D01*
X132728285Y-99071718D01*
X132602844Y-98975464D01*
X132548227Y-98952841D01*
X132456765Y-98914956D01*
X132456763Y-98914955D01*
X132300004Y-98894318D01*
X132300002Y-98894318D01*
X132143242Y-98914955D01*
X132143240Y-98914956D01*
X131997163Y-98975463D01*
X131871721Y-99071718D01*
X131775466Y-99197160D01*
X131714959Y-99343237D01*
X131714958Y-99343239D01*
X131694321Y-99499998D01*
X115700499Y-99499998D01*
X115700499Y-98649998D01*
X141394318Y-98649998D01*
X141394318Y-98650001D01*
X141414955Y-98806760D01*
X141414956Y-98806762D01*
X141456376Y-98906760D01*
X141475464Y-98952841D01*
X141571718Y-99078282D01*
X141697159Y-99174536D01*
X141843238Y-99235044D01*
X141921619Y-99245363D01*
X141999999Y-99255682D01*
X142000000Y-99255682D01*
X142000001Y-99255682D01*
X142052254Y-99248802D01*
X142156762Y-99235044D01*
X142302841Y-99174536D01*
X142371890Y-99121552D01*
X142437058Y-99096358D01*
X142505503Y-99110396D01*
X142545752Y-99144442D01*
X142568843Y-99174536D01*
X142571718Y-99178282D01*
X142697159Y-99274536D01*
X142843238Y-99335044D01*
X142905478Y-99343238D01*
X142999999Y-99355682D01*
X143000000Y-99355682D01*
X143000001Y-99355682D01*
X143094514Y-99343239D01*
X143156762Y-99335044D01*
X143302841Y-99274536D01*
X143428282Y-99178282D01*
X143524536Y-99052841D01*
X143546424Y-98999998D01*
X149144318Y-98999998D01*
X149144318Y-99000001D01*
X149164955Y-99156760D01*
X149164956Y-99156762D01*
X149197381Y-99235044D01*
X149225464Y-99302841D01*
X149321718Y-99428282D01*
X149447159Y-99524536D01*
X149593238Y-99585044D01*
X149671619Y-99595363D01*
X149749999Y-99605682D01*
X149750000Y-99605682D01*
X149750001Y-99605682D01*
X149802254Y-99598802D01*
X149906762Y-99585044D01*
X150052841Y-99524536D01*
X150178282Y-99428282D01*
X150274536Y-99302841D01*
X150335044Y-99156762D01*
X150348802Y-99052254D01*
X150355682Y-99000001D01*
X150355682Y-98999998D01*
X150335044Y-98843239D01*
X150335044Y-98843238D01*
X150274536Y-98697159D01*
X150178282Y-98571718D01*
X150052841Y-98475464D01*
X149906762Y-98414956D01*
X149906760Y-98414955D01*
X149750001Y-98394318D01*
X149749999Y-98394318D01*
X149593239Y-98414955D01*
X149593237Y-98414956D01*
X149447160Y-98475463D01*
X149321718Y-98571718D01*
X149225463Y-98697160D01*
X149164956Y-98843237D01*
X149164955Y-98843239D01*
X149144318Y-98999998D01*
X143546424Y-98999998D01*
X143585044Y-98906762D01*
X143605682Y-98750000D01*
X143598725Y-98697159D01*
X143585044Y-98593239D01*
X143585044Y-98593238D01*
X143524536Y-98447159D01*
X143428282Y-98321718D01*
X143302841Y-98225464D01*
X143293802Y-98221720D01*
X143156762Y-98164956D01*
X143156760Y-98164955D01*
X143000001Y-98144318D01*
X142999999Y-98144318D01*
X142843239Y-98164955D01*
X142843237Y-98164956D01*
X142697158Y-98225464D01*
X142628108Y-98278447D01*
X142562939Y-98303640D01*
X142494494Y-98289601D01*
X142454248Y-98255557D01*
X142431156Y-98225464D01*
X142428282Y-98221718D01*
X142302841Y-98125464D01*
X142156762Y-98064956D01*
X142156760Y-98064955D01*
X142000001Y-98044318D01*
X141999999Y-98044318D01*
X141843239Y-98064955D01*
X141843237Y-98064956D01*
X141697160Y-98125463D01*
X141571718Y-98221718D01*
X141475463Y-98347160D01*
X141414956Y-98493237D01*
X141414955Y-98493239D01*
X141394318Y-98649998D01*
X115700499Y-98649998D01*
X115700499Y-97999998D01*
X129894318Y-97999998D01*
X129894318Y-98000001D01*
X129914955Y-98156760D01*
X129914956Y-98156762D01*
X129941862Y-98221720D01*
X129975464Y-98302841D01*
X130071718Y-98428282D01*
X130197159Y-98524536D01*
X130343238Y-98585044D01*
X130405478Y-98593238D01*
X130499999Y-98605682D01*
X130500000Y-98605682D01*
X130500001Y-98605682D01*
X130594514Y-98593239D01*
X130656762Y-98585044D01*
X130802841Y-98524536D01*
X130928282Y-98428282D01*
X131024536Y-98302841D01*
X131085044Y-98156762D01*
X131099847Y-98044318D01*
X131105682Y-98000001D01*
X131105682Y-97999998D01*
X131085044Y-97843239D01*
X131085044Y-97843238D01*
X131046423Y-97749998D01*
X138394318Y-97749998D01*
X138394318Y-97750001D01*
X138414955Y-97906760D01*
X138414956Y-97906762D01*
X138471933Y-98044318D01*
X138475464Y-98052841D01*
X138571718Y-98178282D01*
X138697159Y-98274536D01*
X138843238Y-98335044D01*
X138921619Y-98345363D01*
X138999999Y-98355682D01*
X139000000Y-98355682D01*
X139000001Y-98355682D01*
X139064739Y-98347159D01*
X139156762Y-98335044D01*
X139302841Y-98274536D01*
X139428282Y-98178282D01*
X139524536Y-98052841D01*
X139585044Y-97906762D01*
X139605682Y-97750000D01*
X139598725Y-97697159D01*
X139585044Y-97593239D01*
X139585044Y-97593238D01*
X139524536Y-97447159D01*
X139428282Y-97321718D01*
X139302841Y-97225464D01*
X139156762Y-97164956D01*
X139156760Y-97164955D01*
X139000001Y-97144318D01*
X138999999Y-97144318D01*
X138843239Y-97164955D01*
X138843237Y-97164956D01*
X138697160Y-97225463D01*
X138571718Y-97321718D01*
X138475463Y-97447160D01*
X138414956Y-97593237D01*
X138414955Y-97593239D01*
X138394318Y-97749998D01*
X131046423Y-97749998D01*
X131024536Y-97697159D01*
X130928282Y-97571718D01*
X130802841Y-97475464D01*
X130656762Y-97414956D01*
X130656760Y-97414955D01*
X130500001Y-97394318D01*
X130499999Y-97394318D01*
X130343239Y-97414955D01*
X130343237Y-97414956D01*
X130197160Y-97475463D01*
X130071718Y-97571718D01*
X129975463Y-97697160D01*
X129914956Y-97843237D01*
X129914955Y-97843239D01*
X129894318Y-97999998D01*
X115700499Y-97999998D01*
X115700499Y-96749998D01*
X142144318Y-96749998D01*
X142144318Y-96750001D01*
X142164955Y-96906760D01*
X142164956Y-96906762D01*
X142225464Y-97052841D01*
X142321718Y-97178282D01*
X142447159Y-97274536D01*
X142593238Y-97335044D01*
X142671619Y-97345363D01*
X142749999Y-97355682D01*
X142750000Y-97355682D01*
X142750001Y-97355682D01*
X142802254Y-97348802D01*
X142906762Y-97335044D01*
X143052841Y-97274536D01*
X143178282Y-97178282D01*
X143274536Y-97052841D01*
X143335044Y-96906762D01*
X143348802Y-96802254D01*
X143355682Y-96750001D01*
X143355682Y-96749998D01*
X144394318Y-96749998D01*
X144394318Y-96750001D01*
X144414955Y-96906760D01*
X144414956Y-96906762D01*
X144475464Y-97052841D01*
X144571718Y-97178282D01*
X144697159Y-97274536D01*
X144843238Y-97335044D01*
X144921619Y-97345363D01*
X144999999Y-97355682D01*
X145000000Y-97355682D01*
X145000001Y-97355682D01*
X145052254Y-97348802D01*
X145156762Y-97335044D01*
X145302841Y-97274536D01*
X145428282Y-97178282D01*
X145524536Y-97052841D01*
X145585044Y-96906762D01*
X145596466Y-96820000D01*
X172230138Y-96820000D01*
X173033012Y-96820000D01*
X173015795Y-96829940D01*
X172959940Y-96885795D01*
X172920444Y-96954204D01*
X172900000Y-97030504D01*
X172900000Y-97109496D01*
X172920444Y-97185796D01*
X172959940Y-97254205D01*
X173015795Y-97310060D01*
X173033012Y-97320000D01*
X172230138Y-97320000D01*
X172238430Y-97361690D01*
X172238430Y-97361692D01*
X172313807Y-97543671D01*
X172313814Y-97543684D01*
X172423248Y-97707462D01*
X172423251Y-97707466D01*
X172562533Y-97846748D01*
X172562537Y-97846751D01*
X172726315Y-97956185D01*
X172726328Y-97956192D01*
X172908306Y-98031569D01*
X172908318Y-98031572D01*
X173101504Y-98069999D01*
X173101508Y-98070000D01*
X173500000Y-98070000D01*
X173500000Y-97370000D01*
X174000000Y-97370000D01*
X174000000Y-98070000D01*
X174398492Y-98070000D01*
X174398495Y-98069999D01*
X174591681Y-98031572D01*
X174591693Y-98031569D01*
X174773671Y-97956192D01*
X174773684Y-97956185D01*
X174937462Y-97846751D01*
X174937466Y-97846748D01*
X175076748Y-97707466D01*
X175076751Y-97707462D01*
X175186185Y-97543684D01*
X175186192Y-97543671D01*
X175261569Y-97361692D01*
X175261569Y-97361690D01*
X175269862Y-97320000D01*
X174466988Y-97320000D01*
X174484205Y-97310060D01*
X174540060Y-97254205D01*
X174579556Y-97185796D01*
X174600000Y-97109496D01*
X174600000Y-97030504D01*
X174579556Y-96954204D01*
X174540060Y-96885795D01*
X174484205Y-96829940D01*
X174466988Y-96820000D01*
X175269862Y-96820000D01*
X176660138Y-96820000D01*
X177463012Y-96820000D01*
X177445795Y-96829940D01*
X177389940Y-96885795D01*
X177350444Y-96954204D01*
X177330000Y-97030504D01*
X177330000Y-97109496D01*
X177350444Y-97185796D01*
X177389940Y-97254205D01*
X177445795Y-97310060D01*
X177463012Y-97320000D01*
X176660138Y-97320000D01*
X176668430Y-97361690D01*
X176668430Y-97361692D01*
X176743807Y-97543671D01*
X176743814Y-97543684D01*
X176853248Y-97707462D01*
X176853251Y-97707466D01*
X176992533Y-97846748D01*
X176992537Y-97846751D01*
X177156315Y-97956185D01*
X177156328Y-97956192D01*
X177338306Y-98031569D01*
X177338318Y-98031572D01*
X177531504Y-98069999D01*
X177531508Y-98070000D01*
X177680000Y-98070000D01*
X177680000Y-97370000D01*
X178180000Y-97370000D01*
X178180000Y-98070000D01*
X178328492Y-98070000D01*
X178328495Y-98069999D01*
X178521681Y-98031572D01*
X178521693Y-98031569D01*
X178703671Y-97956192D01*
X178703684Y-97956185D01*
X178867462Y-97846751D01*
X178867466Y-97846748D01*
X179006748Y-97707466D01*
X179006751Y-97707462D01*
X179116185Y-97543684D01*
X179116192Y-97543671D01*
X179191569Y-97361692D01*
X179191569Y-97361690D01*
X179199862Y-97320000D01*
X178396988Y-97320000D01*
X178414205Y-97310060D01*
X178470060Y-97254205D01*
X178509556Y-97185796D01*
X178530000Y-97109496D01*
X178530000Y-97030504D01*
X178509556Y-96954204D01*
X178470060Y-96885795D01*
X178414205Y-96829940D01*
X178396988Y-96820000D01*
X179199862Y-96820000D01*
X179191569Y-96778309D01*
X179191569Y-96778307D01*
X179116192Y-96596328D01*
X179116185Y-96596315D01*
X179006751Y-96432537D01*
X179006748Y-96432533D01*
X178867466Y-96293251D01*
X178867462Y-96293248D01*
X178703684Y-96183814D01*
X178703671Y-96183807D01*
X178521693Y-96108430D01*
X178521681Y-96108427D01*
X178328495Y-96070000D01*
X178180000Y-96070000D01*
X178180000Y-96770000D01*
X177680000Y-96770000D01*
X177680000Y-96070000D01*
X177531504Y-96070000D01*
X177338318Y-96108427D01*
X177338306Y-96108430D01*
X177156328Y-96183807D01*
X177156315Y-96183814D01*
X176992537Y-96293248D01*
X176992533Y-96293251D01*
X176853251Y-96432533D01*
X176853248Y-96432537D01*
X176743814Y-96596315D01*
X176743807Y-96596328D01*
X176668430Y-96778307D01*
X176668430Y-96778309D01*
X176660138Y-96820000D01*
X175269862Y-96820000D01*
X175261569Y-96778309D01*
X175261569Y-96778307D01*
X175186192Y-96596328D01*
X175186185Y-96596315D01*
X175076751Y-96432537D01*
X175076748Y-96432533D01*
X174937466Y-96293251D01*
X174937462Y-96293248D01*
X174773684Y-96183814D01*
X174773669Y-96183806D01*
X174768012Y-96181463D01*
X174713610Y-96137620D01*
X174691548Y-96071325D01*
X174708830Y-96003626D01*
X174711403Y-95999825D01*
X174738530Y-95952841D01*
X174790008Y-95863678D01*
X174829500Y-95716293D01*
X174829500Y-95563707D01*
X174790008Y-95416322D01*
X174754997Y-95355682D01*
X174713717Y-95284182D01*
X174713712Y-95284176D01*
X174605823Y-95176287D01*
X174605817Y-95176282D01*
X174473681Y-95099993D01*
X174473682Y-95099993D01*
X174461595Y-95096754D01*
X174326293Y-95060500D01*
X174173707Y-95060500D01*
X174038404Y-95096754D01*
X174026318Y-95099993D01*
X173894182Y-95176282D01*
X173894176Y-95176287D01*
X173786287Y-95284176D01*
X173786282Y-95284182D01*
X173709993Y-95416318D01*
X173709992Y-95416322D01*
X173670500Y-95563707D01*
X173670500Y-95716293D01*
X173709992Y-95863678D01*
X173709993Y-95863680D01*
X173721725Y-95884001D01*
X173738197Y-95951901D01*
X173715344Y-96017928D01*
X173660422Y-96061118D01*
X173614337Y-96070000D01*
X173101504Y-96070000D01*
X172908318Y-96108427D01*
X172908306Y-96108430D01*
X172726328Y-96183807D01*
X172726315Y-96183814D01*
X172562537Y-96293248D01*
X172562533Y-96293251D01*
X172423251Y-96432533D01*
X172423248Y-96432537D01*
X172313814Y-96596315D01*
X172313807Y-96596328D01*
X172238430Y-96778307D01*
X172238430Y-96778309D01*
X172230138Y-96820000D01*
X145596466Y-96820000D01*
X145598802Y-96802254D01*
X145605682Y-96750001D01*
X145605682Y-96749998D01*
X145585044Y-96593239D01*
X145585044Y-96593238D01*
X145524536Y-96447159D01*
X145428282Y-96321718D01*
X145302841Y-96225464D01*
X145156762Y-96164956D01*
X145156760Y-96164955D01*
X145000001Y-96144318D01*
X144999999Y-96144318D01*
X144843239Y-96164955D01*
X144843237Y-96164956D01*
X144697160Y-96225463D01*
X144571718Y-96321718D01*
X144475463Y-96447160D01*
X144414956Y-96593237D01*
X144414955Y-96593239D01*
X144394318Y-96749998D01*
X143355682Y-96749998D01*
X143335044Y-96593239D01*
X143335044Y-96593238D01*
X143274536Y-96447159D01*
X143178282Y-96321718D01*
X143052841Y-96225464D01*
X142906762Y-96164956D01*
X142906760Y-96164955D01*
X142750001Y-96144318D01*
X142749999Y-96144318D01*
X142593239Y-96164955D01*
X142593237Y-96164956D01*
X142447160Y-96225463D01*
X142321718Y-96321718D01*
X142225463Y-96447160D01*
X142164956Y-96593237D01*
X142164955Y-96593239D01*
X142144318Y-96749998D01*
X115700499Y-96749998D01*
X115700499Y-95649998D01*
X147662647Y-95649998D01*
X147662647Y-95650001D01*
X147683284Y-95806760D01*
X147683285Y-95806762D01*
X147743403Y-95951901D01*
X147743793Y-95952841D01*
X147840047Y-96078282D01*
X147965488Y-96174536D01*
X148111567Y-96235044D01*
X148189948Y-96245363D01*
X148268328Y-96255682D01*
X148268329Y-96255682D01*
X148268330Y-96255682D01*
X148320583Y-96248802D01*
X148425091Y-96235044D01*
X148571170Y-96174536D01*
X148696611Y-96078282D01*
X148792865Y-95952841D01*
X148853373Y-95806762D01*
X148874011Y-95650000D01*
X148868176Y-95605682D01*
X148853373Y-95493239D01*
X148853373Y-95493238D01*
X148792865Y-95347159D01*
X148696611Y-95221718D01*
X148571170Y-95125464D01*
X148425091Y-95064956D01*
X148425089Y-95064955D01*
X148268330Y-95044318D01*
X148268328Y-95044318D01*
X148111568Y-95064955D01*
X148111566Y-95064956D01*
X147965489Y-95125463D01*
X147840047Y-95221718D01*
X147743792Y-95347160D01*
X147683285Y-95493237D01*
X147683284Y-95493239D01*
X147662647Y-95649998D01*
X115700499Y-95649998D01*
X115700499Y-94749998D01*
X160394318Y-94749998D01*
X160394318Y-94750001D01*
X160414955Y-94906760D01*
X160414956Y-94906762D01*
X160471933Y-95044318D01*
X160475464Y-95052841D01*
X160571718Y-95178282D01*
X160697159Y-95274536D01*
X160843238Y-95335044D01*
X160921619Y-95345363D01*
X160999999Y-95355682D01*
X161000000Y-95355682D01*
X161000001Y-95355682D01*
X161064739Y-95347159D01*
X161156762Y-95335044D01*
X161302841Y-95274536D01*
X161428282Y-95178282D01*
X161524536Y-95052841D01*
X161546424Y-94999998D01*
X167144318Y-94999998D01*
X167144318Y-95000001D01*
X167164955Y-95156760D01*
X167164956Y-95156762D01*
X167225464Y-95302841D01*
X167321718Y-95428282D01*
X167447159Y-95524536D01*
X167593238Y-95585044D01*
X167671619Y-95595363D01*
X167749999Y-95605682D01*
X167750000Y-95605682D01*
X167750001Y-95605682D01*
X167802254Y-95598802D01*
X167906762Y-95585044D01*
X168052841Y-95524536D01*
X168178282Y-95428282D01*
X168274536Y-95302841D01*
X168335044Y-95156762D01*
X168355682Y-95000000D01*
X168335044Y-94843238D01*
X168274536Y-94697159D01*
X168178282Y-94571718D01*
X168052841Y-94475464D01*
X167906762Y-94414956D01*
X167906760Y-94414955D01*
X167750001Y-94394318D01*
X167749999Y-94394318D01*
X167593239Y-94414955D01*
X167593237Y-94414956D01*
X167447160Y-94475463D01*
X167321718Y-94571718D01*
X167225463Y-94697160D01*
X167164956Y-94843237D01*
X167164955Y-94843239D01*
X167144318Y-94999998D01*
X161546424Y-94999998D01*
X161585044Y-94906762D01*
X161605682Y-94750000D01*
X161598725Y-94697159D01*
X161585044Y-94593239D01*
X161585044Y-94593238D01*
X161524536Y-94447159D01*
X161428282Y-94321718D01*
X161302841Y-94225464D01*
X161156762Y-94164956D01*
X161156760Y-94164955D01*
X161000001Y-94144318D01*
X160999999Y-94144318D01*
X160843239Y-94164955D01*
X160843237Y-94164956D01*
X160697160Y-94225463D01*
X160571718Y-94321718D01*
X160475463Y-94447160D01*
X160414956Y-94593237D01*
X160414955Y-94593239D01*
X160394318Y-94749998D01*
X115700499Y-94749998D01*
X115700499Y-91499998D01*
X132794318Y-91499998D01*
X132794318Y-91500001D01*
X132814955Y-91656760D01*
X132814956Y-91656762D01*
X132856376Y-91756760D01*
X132875464Y-91802841D01*
X132971718Y-91928282D01*
X133097159Y-92024536D01*
X133243238Y-92085044D01*
X133321619Y-92095363D01*
X133399999Y-92105682D01*
X133400000Y-92105682D01*
X133400001Y-92105682D01*
X133452254Y-92098802D01*
X133556762Y-92085044D01*
X133702841Y-92024536D01*
X133828282Y-91928282D01*
X133924536Y-91802841D01*
X133985044Y-91656762D01*
X133992517Y-91599998D01*
X138494318Y-91599998D01*
X138494318Y-91600001D01*
X138514955Y-91756760D01*
X138514956Y-91756762D01*
X138575464Y-91902841D01*
X138671718Y-92028282D01*
X138797159Y-92124536D01*
X138943238Y-92185044D01*
X139021619Y-92195363D01*
X139099999Y-92205682D01*
X139100000Y-92205682D01*
X139100001Y-92205682D01*
X139152254Y-92198802D01*
X139256762Y-92185044D01*
X139402841Y-92124536D01*
X139528282Y-92028282D01*
X139624536Y-91902841D01*
X139685044Y-91756762D01*
X139705682Y-91600000D01*
X139692517Y-91499998D01*
X165394318Y-91499998D01*
X165394318Y-91500001D01*
X165414955Y-91656760D01*
X165414956Y-91656762D01*
X165456376Y-91756760D01*
X165475464Y-91802841D01*
X165571718Y-91928282D01*
X165697159Y-92024536D01*
X165843238Y-92085044D01*
X165921619Y-92095363D01*
X165999999Y-92105682D01*
X166000000Y-92105682D01*
X166000001Y-92105682D01*
X166052254Y-92098802D01*
X166156762Y-92085044D01*
X166302841Y-92024536D01*
X166428282Y-91928282D01*
X166524536Y-91802841D01*
X166585044Y-91656762D01*
X166605682Y-91500000D01*
X166585044Y-91343238D01*
X166524536Y-91197159D01*
X166428282Y-91071718D01*
X166302841Y-90975464D01*
X166156762Y-90914956D01*
X166156760Y-90914955D01*
X166000001Y-90894318D01*
X165999999Y-90894318D01*
X165843239Y-90914955D01*
X165843237Y-90914956D01*
X165697160Y-90975463D01*
X165571718Y-91071718D01*
X165475463Y-91197160D01*
X165414956Y-91343237D01*
X165414955Y-91343239D01*
X165394318Y-91499998D01*
X139692517Y-91499998D01*
X139685044Y-91443238D01*
X139624536Y-91297159D01*
X139528282Y-91171718D01*
X139402841Y-91075464D01*
X139393797Y-91071718D01*
X139256762Y-91014956D01*
X139256760Y-91014955D01*
X139100001Y-90994318D01*
X139099999Y-90994318D01*
X138943239Y-91014955D01*
X138943237Y-91014956D01*
X138797160Y-91075463D01*
X138671718Y-91171718D01*
X138575463Y-91297160D01*
X138514956Y-91443237D01*
X138514955Y-91443239D01*
X138494318Y-91599998D01*
X133992517Y-91599998D01*
X134005682Y-91500000D01*
X133985044Y-91343238D01*
X133924536Y-91197159D01*
X133828282Y-91071718D01*
X133702841Y-90975464D01*
X133556762Y-90914956D01*
X133556760Y-90914955D01*
X133400001Y-90894318D01*
X133399999Y-90894318D01*
X133243239Y-90914955D01*
X133243237Y-90914956D01*
X133097160Y-90975463D01*
X132971718Y-91071718D01*
X132875463Y-91197160D01*
X132814956Y-91343237D01*
X132814955Y-91343239D01*
X132794318Y-91499998D01*
X115700499Y-91499998D01*
X115700499Y-90749998D01*
X127394318Y-90749998D01*
X127394318Y-90750001D01*
X127414955Y-90906760D01*
X127414956Y-90906762D01*
X127475464Y-91052841D01*
X127571718Y-91178282D01*
X127697159Y-91274536D01*
X127843238Y-91335044D01*
X127905478Y-91343238D01*
X127999999Y-91355682D01*
X128000000Y-91355682D01*
X128000001Y-91355682D01*
X128094514Y-91343239D01*
X128156762Y-91335044D01*
X128302841Y-91274536D01*
X128428282Y-91178282D01*
X128524536Y-91052841D01*
X128585044Y-90906762D01*
X128605682Y-90750000D01*
X128585044Y-90593238D01*
X128524536Y-90447159D01*
X128428282Y-90321718D01*
X128302841Y-90225464D01*
X128156762Y-90164956D01*
X128156760Y-90164955D01*
X128000001Y-90144318D01*
X127999999Y-90144318D01*
X127843239Y-90164955D01*
X127843237Y-90164956D01*
X127697160Y-90225463D01*
X127571718Y-90321718D01*
X127475463Y-90447160D01*
X127414956Y-90593237D01*
X127414955Y-90593239D01*
X127394318Y-90749998D01*
X115700499Y-90749998D01*
X115700499Y-87999998D01*
X129144318Y-87999998D01*
X129144318Y-88000001D01*
X129164955Y-88156760D01*
X129164956Y-88156762D01*
X129174581Y-88180000D01*
X129225464Y-88302841D01*
X129321718Y-88428282D01*
X129447159Y-88524536D01*
X129593238Y-88585044D01*
X129671619Y-88595363D01*
X129749999Y-88605682D01*
X129750000Y-88605682D01*
X129750001Y-88605682D01*
X129802254Y-88598802D01*
X129906762Y-88585044D01*
X130052841Y-88524536D01*
X130178282Y-88428282D01*
X130274536Y-88302841D01*
X130325418Y-88180000D01*
X172230138Y-88180000D01*
X173033012Y-88180000D01*
X173015795Y-88189940D01*
X172959940Y-88245795D01*
X172920444Y-88314204D01*
X172900000Y-88390504D01*
X172900000Y-88469496D01*
X172920444Y-88545796D01*
X172959940Y-88614205D01*
X173015795Y-88670060D01*
X173033012Y-88680000D01*
X172230138Y-88680000D01*
X172238430Y-88721690D01*
X172238430Y-88721692D01*
X172313807Y-88903671D01*
X172313814Y-88903684D01*
X172423248Y-89067462D01*
X172423251Y-89067466D01*
X172562533Y-89206748D01*
X172562537Y-89206751D01*
X172726315Y-89316185D01*
X172726328Y-89316192D01*
X172908306Y-89391569D01*
X172908318Y-89391572D01*
X173101504Y-89429999D01*
X173101508Y-89430000D01*
X173614337Y-89430000D01*
X173681376Y-89449685D01*
X173727131Y-89502489D01*
X173737075Y-89571647D01*
X173721725Y-89615999D01*
X173709993Y-89636319D01*
X173709992Y-89636321D01*
X173709992Y-89636322D01*
X173670500Y-89783707D01*
X173670500Y-89936293D01*
X173709992Y-90083678D01*
X173709993Y-90083681D01*
X173786282Y-90215817D01*
X173786284Y-90215819D01*
X173786285Y-90215821D01*
X173894179Y-90323715D01*
X173894180Y-90323716D01*
X173894182Y-90323717D01*
X174026318Y-90400006D01*
X174026319Y-90400006D01*
X174026322Y-90400008D01*
X174173707Y-90439500D01*
X174173710Y-90439500D01*
X174326290Y-90439500D01*
X174326293Y-90439500D01*
X174473678Y-90400008D01*
X174605821Y-90323715D01*
X174713715Y-90215821D01*
X174790008Y-90083678D01*
X174829500Y-89936293D01*
X174829500Y-89783707D01*
X174790008Y-89636322D01*
X174778274Y-89615999D01*
X174709651Y-89497140D01*
X174712122Y-89495712D01*
X174691901Y-89443443D01*
X174705922Y-89374995D01*
X174754723Y-89324993D01*
X174768019Y-89318532D01*
X174773683Y-89316185D01*
X174937462Y-89206751D01*
X174937466Y-89206748D01*
X175076748Y-89067466D01*
X175076751Y-89067462D01*
X175186185Y-88903684D01*
X175186192Y-88903671D01*
X175261569Y-88721692D01*
X175261569Y-88721690D01*
X175269862Y-88680000D01*
X174466988Y-88680000D01*
X174484205Y-88670060D01*
X174540060Y-88614205D01*
X174579556Y-88545796D01*
X174600000Y-88469496D01*
X174600000Y-88390504D01*
X174579556Y-88314204D01*
X174540060Y-88245795D01*
X174484205Y-88189940D01*
X174466988Y-88180000D01*
X175269862Y-88180000D01*
X176660138Y-88180000D01*
X177463012Y-88180000D01*
X177445795Y-88189940D01*
X177389940Y-88245795D01*
X177350444Y-88314204D01*
X177330000Y-88390504D01*
X177330000Y-88469496D01*
X177350444Y-88545796D01*
X177389940Y-88614205D01*
X177445795Y-88670060D01*
X177463012Y-88680000D01*
X176660138Y-88680000D01*
X176668430Y-88721690D01*
X176668430Y-88721692D01*
X176743807Y-88903671D01*
X176743814Y-88903684D01*
X176853248Y-89067462D01*
X176853251Y-89067466D01*
X176992533Y-89206748D01*
X176992537Y-89206751D01*
X177156315Y-89316185D01*
X177156328Y-89316192D01*
X177338306Y-89391569D01*
X177338318Y-89391572D01*
X177531504Y-89429999D01*
X177531508Y-89430000D01*
X177680000Y-89430000D01*
X177680000Y-88730000D01*
X178180000Y-88730000D01*
X178180000Y-89430000D01*
X178328492Y-89430000D01*
X178328495Y-89429999D01*
X178521681Y-89391572D01*
X178521693Y-89391569D01*
X178703671Y-89316192D01*
X178703684Y-89316185D01*
X178867462Y-89206751D01*
X178867466Y-89206748D01*
X179006748Y-89067466D01*
X179006751Y-89067462D01*
X179116185Y-88903684D01*
X179116192Y-88903671D01*
X179191569Y-88721692D01*
X179191569Y-88721690D01*
X179199862Y-88680000D01*
X178396988Y-88680000D01*
X178414205Y-88670060D01*
X178470060Y-88614205D01*
X178509556Y-88545796D01*
X178530000Y-88469496D01*
X178530000Y-88390504D01*
X178509556Y-88314204D01*
X178470060Y-88245795D01*
X178414205Y-88189940D01*
X178396988Y-88180000D01*
X179199862Y-88180000D01*
X179191569Y-88138309D01*
X179191569Y-88138307D01*
X179116192Y-87956328D01*
X179116185Y-87956315D01*
X179006751Y-87792537D01*
X179006748Y-87792533D01*
X178867466Y-87653251D01*
X178867462Y-87653248D01*
X178703684Y-87543814D01*
X178703671Y-87543807D01*
X178521693Y-87468430D01*
X178521681Y-87468427D01*
X178328495Y-87430000D01*
X178180000Y-87430000D01*
X178180000Y-88130000D01*
X177680000Y-88130000D01*
X177680000Y-87430000D01*
X177531504Y-87430000D01*
X177338318Y-87468427D01*
X177338306Y-87468430D01*
X177156328Y-87543807D01*
X177156315Y-87543814D01*
X176992537Y-87653248D01*
X176992533Y-87653251D01*
X176853251Y-87792533D01*
X176853248Y-87792537D01*
X176743814Y-87956315D01*
X176743807Y-87956328D01*
X176668430Y-88138307D01*
X176668430Y-88138309D01*
X176660138Y-88180000D01*
X175269862Y-88180000D01*
X175261569Y-88138309D01*
X175261569Y-88138307D01*
X175186192Y-87956328D01*
X175186185Y-87956315D01*
X175076751Y-87792537D01*
X175076748Y-87792533D01*
X174937466Y-87653251D01*
X174937462Y-87653248D01*
X174773684Y-87543814D01*
X174773671Y-87543807D01*
X174591693Y-87468430D01*
X174591681Y-87468427D01*
X174398495Y-87430000D01*
X174000000Y-87430000D01*
X174000000Y-88130000D01*
X173500000Y-88130000D01*
X173500000Y-87430000D01*
X173101504Y-87430000D01*
X172908318Y-87468427D01*
X172908306Y-87468430D01*
X172726328Y-87543807D01*
X172726315Y-87543814D01*
X172562537Y-87653248D01*
X172562533Y-87653251D01*
X172423251Y-87792533D01*
X172423248Y-87792537D01*
X172313814Y-87956315D01*
X172313807Y-87956328D01*
X172238430Y-88138307D01*
X172238430Y-88138309D01*
X172230138Y-88180000D01*
X130325418Y-88180000D01*
X130335044Y-88156762D01*
X130355682Y-88000000D01*
X130335044Y-87843238D01*
X130274536Y-87697159D01*
X130178282Y-87571718D01*
X130052841Y-87475464D01*
X130035859Y-87468430D01*
X129906762Y-87414956D01*
X129906760Y-87414955D01*
X129750001Y-87394318D01*
X129749999Y-87394318D01*
X129593239Y-87414955D01*
X129593237Y-87414956D01*
X129447160Y-87475463D01*
X129321718Y-87571718D01*
X129225463Y-87697160D01*
X129164956Y-87843237D01*
X129164955Y-87843239D01*
X129144318Y-87999998D01*
X115700499Y-87999998D01*
X115700499Y-86749998D01*
X162644318Y-86749998D01*
X162644318Y-86750001D01*
X162664955Y-86906760D01*
X162664956Y-86906762D01*
X162725464Y-87052841D01*
X162821718Y-87178282D01*
X162947159Y-87274536D01*
X163093238Y-87335044D01*
X163171619Y-87345363D01*
X163249999Y-87355682D01*
X163250000Y-87355682D01*
X163250001Y-87355682D01*
X163302254Y-87348802D01*
X163406762Y-87335044D01*
X163552841Y-87274536D01*
X163678282Y-87178282D01*
X163774536Y-87052841D01*
X163835044Y-86906762D01*
X163855682Y-86750000D01*
X163835044Y-86593238D01*
X163774536Y-86447159D01*
X163678282Y-86321718D01*
X163552841Y-86225464D01*
X163406762Y-86164956D01*
X163406760Y-86164955D01*
X163250001Y-86144318D01*
X163249999Y-86144318D01*
X163093239Y-86164955D01*
X163093237Y-86164956D01*
X162947160Y-86225463D01*
X162821718Y-86321718D01*
X162725463Y-86447160D01*
X162664956Y-86593237D01*
X162664955Y-86593239D01*
X162644318Y-86749998D01*
X115700499Y-86749998D01*
X115700499Y-85124998D01*
X133519318Y-85124998D01*
X133519318Y-85125001D01*
X133539955Y-85281760D01*
X133539956Y-85281762D01*
X133600464Y-85427841D01*
X133696718Y-85553282D01*
X133822159Y-85649536D01*
X133968238Y-85710044D01*
X134046619Y-85720363D01*
X134124999Y-85730682D01*
X134125000Y-85730682D01*
X134125001Y-85730682D01*
X134177254Y-85723802D01*
X134281762Y-85710044D01*
X134427841Y-85649536D01*
X134553282Y-85553282D01*
X134649536Y-85427841D01*
X134710044Y-85281762D01*
X134730682Y-85125000D01*
X134710044Y-84968238D01*
X134649536Y-84822159D01*
X134553282Y-84696718D01*
X134427841Y-84600464D01*
X134281762Y-84539956D01*
X134281760Y-84539955D01*
X134125001Y-84519318D01*
X134124999Y-84519318D01*
X133968239Y-84539955D01*
X133968237Y-84539956D01*
X133822160Y-84600463D01*
X133696718Y-84696718D01*
X133600463Y-84822160D01*
X133539956Y-84968237D01*
X133539955Y-84968239D01*
X133519318Y-85124998D01*
X115700499Y-85124998D01*
X115700499Y-84249998D01*
X147894318Y-84249998D01*
X147894318Y-84250001D01*
X147914955Y-84406760D01*
X147914956Y-84406762D01*
X147975464Y-84552841D01*
X148071718Y-84678282D01*
X148197159Y-84774536D01*
X148343238Y-84835044D01*
X148421619Y-84845363D01*
X148499999Y-84855682D01*
X148500000Y-84855682D01*
X148500001Y-84855682D01*
X148552254Y-84848802D01*
X148656762Y-84835044D01*
X148802841Y-84774536D01*
X148928282Y-84678282D01*
X149024536Y-84552841D01*
X149085044Y-84406762D01*
X149105682Y-84250000D01*
X149085044Y-84093238D01*
X149024536Y-83947159D01*
X148928282Y-83821718D01*
X148834814Y-83749998D01*
X150644318Y-83749998D01*
X150644318Y-83750001D01*
X150664955Y-83906760D01*
X150664956Y-83906762D01*
X150725464Y-84052841D01*
X150821718Y-84178282D01*
X150947159Y-84274536D01*
X151093238Y-84335044D01*
X151171619Y-84345363D01*
X151249999Y-84355682D01*
X151250000Y-84355682D01*
X151250001Y-84355682D01*
X151302254Y-84348802D01*
X151406762Y-84335044D01*
X151552841Y-84274536D01*
X151678282Y-84178282D01*
X151774536Y-84052841D01*
X151835044Y-83906762D01*
X151855682Y-83750000D01*
X151855682Y-83749998D01*
X152144318Y-83749998D01*
X152144318Y-83750001D01*
X152164955Y-83906760D01*
X152164956Y-83906762D01*
X152225464Y-84052841D01*
X152321718Y-84178282D01*
X152447159Y-84274536D01*
X152593238Y-84335044D01*
X152671619Y-84345363D01*
X152749999Y-84355682D01*
X152750000Y-84355682D01*
X152750001Y-84355682D01*
X152802254Y-84348802D01*
X152906762Y-84335044D01*
X153052841Y-84274536D01*
X153178282Y-84178282D01*
X153274536Y-84052841D01*
X153335044Y-83906762D01*
X153355682Y-83750000D01*
X153335044Y-83593238D01*
X153274536Y-83447159D01*
X153178282Y-83321718D01*
X153052841Y-83225464D01*
X152906762Y-83164956D01*
X152906760Y-83164955D01*
X152750001Y-83144318D01*
X152749999Y-83144318D01*
X152593239Y-83164955D01*
X152593237Y-83164956D01*
X152447160Y-83225463D01*
X152321718Y-83321718D01*
X152225463Y-83447160D01*
X152164956Y-83593237D01*
X152164955Y-83593239D01*
X152144318Y-83749998D01*
X151855682Y-83749998D01*
X151835044Y-83593238D01*
X151774536Y-83447159D01*
X151678282Y-83321718D01*
X151552841Y-83225464D01*
X151406762Y-83164956D01*
X151406760Y-83164955D01*
X151250001Y-83144318D01*
X151249999Y-83144318D01*
X151093239Y-83164955D01*
X151093237Y-83164956D01*
X150947160Y-83225463D01*
X150821718Y-83321718D01*
X150725463Y-83447160D01*
X150664956Y-83593237D01*
X150664955Y-83593239D01*
X150644318Y-83749998D01*
X148834814Y-83749998D01*
X148802841Y-83725464D01*
X148656762Y-83664956D01*
X148656760Y-83664955D01*
X148500001Y-83644318D01*
X148499999Y-83644318D01*
X148343239Y-83664955D01*
X148343237Y-83664956D01*
X148197160Y-83725463D01*
X148071718Y-83821718D01*
X147975463Y-83947160D01*
X147914956Y-84093237D01*
X147914955Y-84093239D01*
X147894318Y-84249998D01*
X115700499Y-84249998D01*
X115700499Y-82249998D01*
X148894318Y-82249998D01*
X148894318Y-82250001D01*
X148914955Y-82406760D01*
X148914956Y-82406762D01*
X148975464Y-82552841D01*
X149071718Y-82678282D01*
X149197159Y-82774536D01*
X149343238Y-82835044D01*
X149421619Y-82845363D01*
X149499999Y-82855682D01*
X149500000Y-82855682D01*
X149500001Y-82855682D01*
X149552254Y-82848802D01*
X149656762Y-82835044D01*
X149802841Y-82774536D01*
X149928282Y-82678282D01*
X150024536Y-82552841D01*
X150085044Y-82406762D01*
X150105682Y-82250000D01*
X150085044Y-82093238D01*
X150024536Y-81947159D01*
X149928282Y-81821718D01*
X149802841Y-81725464D01*
X149656762Y-81664956D01*
X149656760Y-81664955D01*
X149500001Y-81644318D01*
X149499999Y-81644318D01*
X149343239Y-81664955D01*
X149343237Y-81664956D01*
X149197160Y-81725463D01*
X149071718Y-81821718D01*
X148975463Y-81947160D01*
X148914956Y-82093237D01*
X148914955Y-82093239D01*
X148894318Y-82249998D01*
X115700499Y-82249998D01*
X115700499Y-80499998D01*
X128144318Y-80499998D01*
X128144318Y-80500001D01*
X128164955Y-80656760D01*
X128164956Y-80656762D01*
X128225464Y-80802841D01*
X128321718Y-80928282D01*
X128447159Y-81024536D01*
X128593238Y-81085044D01*
X128671619Y-81095363D01*
X128749999Y-81105682D01*
X128750000Y-81105682D01*
X128750001Y-81105682D01*
X128802254Y-81098802D01*
X128906762Y-81085044D01*
X129052841Y-81024536D01*
X129178282Y-80928282D01*
X129274536Y-80802841D01*
X129335044Y-80656762D01*
X129355682Y-80500000D01*
X129355682Y-80499998D01*
X138894318Y-80499998D01*
X138894318Y-80500001D01*
X138914955Y-80656760D01*
X138914956Y-80656762D01*
X138975464Y-80802841D01*
X139071718Y-80928282D01*
X139197159Y-81024536D01*
X139343238Y-81085044D01*
X139421619Y-81095363D01*
X139499999Y-81105682D01*
X139500000Y-81105682D01*
X139500001Y-81105682D01*
X139552254Y-81098802D01*
X139656762Y-81085044D01*
X139802841Y-81024536D01*
X139928282Y-80928282D01*
X140024536Y-80802841D01*
X140085044Y-80656762D01*
X140105682Y-80500000D01*
X140085044Y-80343238D01*
X140024536Y-80197159D01*
X139928282Y-80071718D01*
X139802841Y-79975464D01*
X139656762Y-79914956D01*
X139656760Y-79914955D01*
X139500001Y-79894318D01*
X139499999Y-79894318D01*
X139343239Y-79914955D01*
X139343237Y-79914956D01*
X139197160Y-79975463D01*
X139071718Y-80071718D01*
X138975463Y-80197160D01*
X138914956Y-80343237D01*
X138914955Y-80343239D01*
X138894318Y-80499998D01*
X129355682Y-80499998D01*
X129335044Y-80343238D01*
X129274536Y-80197159D01*
X129178282Y-80071718D01*
X129052841Y-79975464D01*
X128906762Y-79914956D01*
X128906760Y-79914955D01*
X128750001Y-79894318D01*
X128749999Y-79894318D01*
X128593239Y-79914955D01*
X128593237Y-79914956D01*
X128447160Y-79975463D01*
X128321718Y-80071718D01*
X128225463Y-80197160D01*
X128164956Y-80343237D01*
X128164955Y-80343239D01*
X128144318Y-80499998D01*
X115700499Y-80499998D01*
X115700499Y-77753479D01*
X115700694Y-77746526D01*
X115704566Y-77677578D01*
X115717712Y-77443494D01*
X115719266Y-77429700D01*
X115769522Y-77133914D01*
X115772615Y-77120362D01*
X115778306Y-77100608D01*
X123545500Y-77100608D01*
X123545500Y-77239391D01*
X123572571Y-77375487D01*
X123572573Y-77375495D01*
X123625678Y-77503703D01*
X123625683Y-77503712D01*
X123702778Y-77619092D01*
X123702781Y-77619096D01*
X123800903Y-77717218D01*
X123800907Y-77717221D01*
X123916287Y-77794316D01*
X123916293Y-77794319D01*
X123916294Y-77794320D01*
X124044505Y-77847427D01*
X124163429Y-77871082D01*
X124180608Y-77874499D01*
X124180612Y-77874500D01*
X124180613Y-77874500D01*
X124319388Y-77874500D01*
X124319389Y-77874499D01*
X124455495Y-77847427D01*
X124583706Y-77794320D01*
X124699093Y-77717221D01*
X124797221Y-77619093D01*
X124874320Y-77503706D01*
X124927427Y-77375495D01*
X124954500Y-77239387D01*
X124954500Y-77100613D01*
X124954499Y-77100608D01*
X126545500Y-77100608D01*
X126545500Y-77239391D01*
X126572571Y-77375487D01*
X126572573Y-77375495D01*
X126625678Y-77503703D01*
X126625683Y-77503712D01*
X126702778Y-77619092D01*
X126702781Y-77619096D01*
X126800903Y-77717218D01*
X126800907Y-77717221D01*
X126916287Y-77794316D01*
X126916293Y-77794319D01*
X126916294Y-77794320D01*
X127044505Y-77847427D01*
X127163429Y-77871082D01*
X127180608Y-77874499D01*
X127180612Y-77874500D01*
X127180613Y-77874500D01*
X127319388Y-77874500D01*
X127319389Y-77874499D01*
X127455495Y-77847427D01*
X127583706Y-77794320D01*
X127699093Y-77717221D01*
X127797221Y-77619093D01*
X127874320Y-77503706D01*
X127927427Y-77375495D01*
X127954500Y-77239387D01*
X127954500Y-77100613D01*
X127949526Y-77075608D01*
X135045500Y-77075608D01*
X135045500Y-77214391D01*
X135072571Y-77350487D01*
X135072573Y-77350495D01*
X135125678Y-77478703D01*
X135125683Y-77478712D01*
X135202778Y-77594092D01*
X135202781Y-77594096D01*
X135300903Y-77692218D01*
X135300907Y-77692221D01*
X135416287Y-77769316D01*
X135416293Y-77769319D01*
X135416294Y-77769320D01*
X135544505Y-77822427D01*
X135670186Y-77847426D01*
X135680608Y-77849499D01*
X135680612Y-77849500D01*
X135680613Y-77849500D01*
X135819388Y-77849500D01*
X135819389Y-77849499D01*
X135955495Y-77822427D01*
X136083706Y-77769320D01*
X136199093Y-77692221D01*
X136297221Y-77594093D01*
X136374320Y-77478706D01*
X136427427Y-77350495D01*
X136454500Y-77214387D01*
X136454500Y-77075613D01*
X136454499Y-77075608D01*
X138045500Y-77075608D01*
X138045500Y-77214391D01*
X138072571Y-77350487D01*
X138072573Y-77350495D01*
X138125678Y-77478703D01*
X138125683Y-77478712D01*
X138202778Y-77594092D01*
X138202781Y-77594096D01*
X138300903Y-77692218D01*
X138300907Y-77692221D01*
X138416287Y-77769316D01*
X138416293Y-77769319D01*
X138416294Y-77769320D01*
X138544505Y-77822427D01*
X138670186Y-77847426D01*
X138680608Y-77849499D01*
X138680612Y-77849500D01*
X138680613Y-77849500D01*
X138819388Y-77849500D01*
X138819389Y-77849499D01*
X138955495Y-77822427D01*
X139083706Y-77769320D01*
X139199093Y-77692221D01*
X139297221Y-77594093D01*
X139374320Y-77478706D01*
X139427427Y-77350495D01*
X139454500Y-77214387D01*
X139454500Y-77075613D01*
X139427427Y-76939505D01*
X139384675Y-76836294D01*
X139374321Y-76811296D01*
X139374316Y-76811287D01*
X139333364Y-76749999D01*
X151879364Y-76749999D01*
X151879364Y-76750000D01*
X152776988Y-76750000D01*
X152744075Y-76807007D01*
X152710000Y-76934174D01*
X152710000Y-77065826D01*
X152744075Y-77192993D01*
X152776988Y-77250000D01*
X151879364Y-77250000D01*
X151936567Y-77463486D01*
X151936570Y-77463492D01*
X152036399Y-77677578D01*
X152171894Y-77871082D01*
X152338917Y-78038105D01*
X152532421Y-78173600D01*
X152746507Y-78273429D01*
X152746516Y-78273433D01*
X152960000Y-78330634D01*
X152960000Y-77433012D01*
X153017007Y-77465925D01*
X153144174Y-77500000D01*
X153275826Y-77500000D01*
X153402993Y-77465925D01*
X153460000Y-77433012D01*
X153460000Y-78330633D01*
X153673483Y-78273433D01*
X153673492Y-78273429D01*
X153887578Y-78173600D01*
X154081082Y-78038105D01*
X154248105Y-77871082D01*
X154383600Y-77677578D01*
X154477294Y-77476651D01*
X154523466Y-77424212D01*
X154590660Y-77405060D01*
X154657541Y-77425276D01*
X154700676Y-77473785D01*
X154767632Y-77608253D01*
X154896127Y-77778406D01*
X154896128Y-77778407D01*
X155053698Y-77922052D01*
X155234981Y-78034298D01*
X155433802Y-78111321D01*
X155643390Y-78150500D01*
X155643392Y-78150500D01*
X155856608Y-78150500D01*
X155856610Y-78150500D01*
X156066198Y-78111321D01*
X156265019Y-78034298D01*
X156446302Y-77922052D01*
X156603872Y-77778407D01*
X156732366Y-77608255D01*
X156796875Y-77478703D01*
X156827403Y-77417394D01*
X156827403Y-77417393D01*
X156827405Y-77417389D01*
X156885756Y-77212310D01*
X156896529Y-77096047D01*
X156922315Y-77031111D01*
X156964622Y-77000804D01*
X157073130Y-77000804D01*
X157109503Y-77021668D01*
X157141693Y-77083681D01*
X157143470Y-77096047D01*
X157154244Y-77212310D01*
X157207675Y-77400099D01*
X157212596Y-77417392D01*
X157212596Y-77417394D01*
X157307632Y-77608253D01*
X157436127Y-77778406D01*
X157436128Y-77778407D01*
X157593698Y-77922052D01*
X157774981Y-78034298D01*
X157973802Y-78111321D01*
X158183390Y-78150500D01*
X158183392Y-78150500D01*
X158396608Y-78150500D01*
X158396610Y-78150500D01*
X158606198Y-78111321D01*
X158805019Y-78034298D01*
X158986302Y-77922052D01*
X159143872Y-77778407D01*
X159272366Y-77608255D01*
X159336875Y-77478703D01*
X159367403Y-77417394D01*
X159367403Y-77417393D01*
X159367405Y-77417389D01*
X159425756Y-77212310D01*
X159432029Y-77144605D01*
X159457814Y-77079669D01*
X159514614Y-77038981D01*
X159584395Y-77035461D01*
X159645002Y-77070225D01*
X159677193Y-77132238D01*
X159679500Y-77156047D01*
X159679500Y-77894856D01*
X159679502Y-77894882D01*
X159682413Y-77919987D01*
X159682415Y-77919991D01*
X159727793Y-78022764D01*
X159727794Y-78022765D01*
X159807235Y-78102206D01*
X159910009Y-78147585D01*
X159935135Y-78150500D01*
X161724864Y-78150499D01*
X161724879Y-78150497D01*
X161724882Y-78150497D01*
X161749987Y-78147586D01*
X161749988Y-78147585D01*
X161749991Y-78147585D01*
X161852765Y-78102206D01*
X161932206Y-78022765D01*
X161977585Y-77919991D01*
X161980500Y-77894865D01*
X161980499Y-76105136D01*
X161980497Y-76105117D01*
X161977586Y-76080012D01*
X161977585Y-76080010D01*
X161977585Y-76080009D01*
X161932206Y-75977235D01*
X161852765Y-75897794D01*
X161832124Y-75888680D01*
X161749992Y-75852415D01*
X161724865Y-75849500D01*
X159935143Y-75849500D01*
X159935117Y-75849502D01*
X159910012Y-75852413D01*
X159910008Y-75852415D01*
X159807235Y-75897793D01*
X159727794Y-75977234D01*
X159682415Y-76080006D01*
X159682415Y-76080008D01*
X159679500Y-76105131D01*
X159679500Y-76843951D01*
X159659815Y-76910990D01*
X159607011Y-76956745D01*
X159537853Y-76966689D01*
X159474297Y-76937664D01*
X159436523Y-76878886D01*
X159432029Y-76855391D01*
X159429868Y-76832072D01*
X159425756Y-76787690D01*
X159367405Y-76582611D01*
X159367403Y-76582606D01*
X159367403Y-76582605D01*
X159272367Y-76391746D01*
X159143872Y-76221593D01*
X158986302Y-76077948D01*
X158805019Y-75965702D01*
X158805017Y-75965701D01*
X158705608Y-75927190D01*
X158606198Y-75888679D01*
X158396610Y-75849500D01*
X158183390Y-75849500D01*
X157973802Y-75888679D01*
X157973799Y-75888679D01*
X157973799Y-75888680D01*
X157774982Y-75965701D01*
X157774980Y-75965702D01*
X157593699Y-76077947D01*
X157436127Y-76221593D01*
X157307632Y-76391746D01*
X157212596Y-76582605D01*
X157212596Y-76582607D01*
X157154244Y-76787689D01*
X157143471Y-76903951D01*
X157117685Y-76968888D01*
X157073130Y-77000804D01*
X156964622Y-77000804D01*
X156966869Y-76999194D01*
X156930497Y-76978331D01*
X156898307Y-76916318D01*
X156896529Y-76903951D01*
X156890969Y-76843951D01*
X156885756Y-76787690D01*
X156827405Y-76582611D01*
X156827403Y-76582606D01*
X156827403Y-76582605D01*
X156732367Y-76391746D01*
X156603872Y-76221593D01*
X156446302Y-76077948D01*
X156265019Y-75965702D01*
X156265017Y-75965701D01*
X156165608Y-75927190D01*
X156066198Y-75888679D01*
X155856610Y-75849500D01*
X155643390Y-75849500D01*
X155433802Y-75888679D01*
X155433799Y-75888679D01*
X155433799Y-75888680D01*
X155234982Y-75965701D01*
X155234980Y-75965702D01*
X155053699Y-76077947D01*
X154896127Y-76221593D01*
X154767634Y-76391744D01*
X154700676Y-76526215D01*
X154653173Y-76577452D01*
X154585510Y-76594873D01*
X154519170Y-76572947D01*
X154477294Y-76523348D01*
X154383600Y-76322422D01*
X154383599Y-76322420D01*
X154248113Y-76128926D01*
X154248108Y-76128920D01*
X154081082Y-75961894D01*
X153887578Y-75826399D01*
X153673492Y-75726570D01*
X153673486Y-75726567D01*
X153460000Y-75669364D01*
X153460000Y-76566988D01*
X153402993Y-76534075D01*
X153275826Y-76500000D01*
X153144174Y-76500000D01*
X153017007Y-76534075D01*
X152960000Y-76566988D01*
X152960000Y-75669364D01*
X152959999Y-75669364D01*
X152746513Y-75726567D01*
X152746507Y-75726570D01*
X152532422Y-75826399D01*
X152532420Y-75826400D01*
X152338926Y-75961886D01*
X152338920Y-75961891D01*
X152171891Y-76128920D01*
X152171886Y-76128926D01*
X152036400Y-76322420D01*
X152036399Y-76322422D01*
X151936570Y-76536507D01*
X151936567Y-76536513D01*
X151879364Y-76749999D01*
X139333364Y-76749999D01*
X139297221Y-76695907D01*
X139297218Y-76695903D01*
X139199096Y-76597781D01*
X139199092Y-76597778D01*
X139083712Y-76520683D01*
X139083703Y-76520678D01*
X138955495Y-76467573D01*
X138955487Y-76467571D01*
X138819391Y-76440500D01*
X138819387Y-76440500D01*
X138680613Y-76440500D01*
X138680608Y-76440500D01*
X138544512Y-76467571D01*
X138544504Y-76467573D01*
X138416296Y-76520678D01*
X138416287Y-76520683D01*
X138300907Y-76597778D01*
X138300903Y-76597781D01*
X138202781Y-76695903D01*
X138202778Y-76695907D01*
X138125683Y-76811287D01*
X138125678Y-76811296D01*
X138072573Y-76939504D01*
X138072571Y-76939512D01*
X138045500Y-77075608D01*
X136454499Y-77075608D01*
X136427427Y-76939505D01*
X136384675Y-76836294D01*
X136374321Y-76811296D01*
X136374316Y-76811287D01*
X136297221Y-76695907D01*
X136297218Y-76695903D01*
X136199096Y-76597781D01*
X136199092Y-76597778D01*
X136083712Y-76520683D01*
X136083703Y-76520678D01*
X135955495Y-76467573D01*
X135955487Y-76467571D01*
X135819391Y-76440500D01*
X135819387Y-76440500D01*
X135680613Y-76440500D01*
X135680608Y-76440500D01*
X135544512Y-76467571D01*
X135544504Y-76467573D01*
X135416296Y-76520678D01*
X135416287Y-76520683D01*
X135300907Y-76597778D01*
X135300903Y-76597781D01*
X135202781Y-76695903D01*
X135202778Y-76695907D01*
X135125683Y-76811287D01*
X135125678Y-76811296D01*
X135072573Y-76939504D01*
X135072571Y-76939512D01*
X135045500Y-77075608D01*
X127949526Y-77075608D01*
X127927427Y-76964505D01*
X127874320Y-76836294D01*
X127874319Y-76836293D01*
X127874316Y-76836287D01*
X127797221Y-76720907D01*
X127797218Y-76720903D01*
X127699096Y-76622781D01*
X127699092Y-76622778D01*
X127583712Y-76545683D01*
X127583703Y-76545678D01*
X127455495Y-76492573D01*
X127455487Y-76492571D01*
X127319391Y-76465500D01*
X127319387Y-76465500D01*
X127180613Y-76465500D01*
X127180608Y-76465500D01*
X127044512Y-76492571D01*
X127044504Y-76492573D01*
X126916296Y-76545678D01*
X126916287Y-76545683D01*
X126800907Y-76622778D01*
X126800903Y-76622781D01*
X126702781Y-76720903D01*
X126702778Y-76720907D01*
X126625683Y-76836287D01*
X126625678Y-76836296D01*
X126572573Y-76964504D01*
X126572571Y-76964512D01*
X126545500Y-77100608D01*
X124954499Y-77100608D01*
X124927427Y-76964505D01*
X124874320Y-76836294D01*
X124874319Y-76836293D01*
X124874316Y-76836287D01*
X124797221Y-76720907D01*
X124797218Y-76720903D01*
X124699096Y-76622781D01*
X124699092Y-76622778D01*
X124583712Y-76545683D01*
X124583703Y-76545678D01*
X124455495Y-76492573D01*
X124455487Y-76492571D01*
X124319391Y-76465500D01*
X124319387Y-76465500D01*
X124180613Y-76465500D01*
X124180608Y-76465500D01*
X124044512Y-76492571D01*
X124044504Y-76492573D01*
X123916296Y-76545678D01*
X123916287Y-76545683D01*
X123800907Y-76622778D01*
X123800903Y-76622781D01*
X123702781Y-76720903D01*
X123702778Y-76720907D01*
X123625683Y-76836287D01*
X123625678Y-76836296D01*
X123572573Y-76964504D01*
X123572571Y-76964512D01*
X123545500Y-77100608D01*
X115778306Y-77100608D01*
X115785508Y-77075612D01*
X115855672Y-76832067D01*
X115860264Y-76818946D01*
X115863434Y-76811294D01*
X115975077Y-76541761D01*
X115981097Y-76529262D01*
X116126239Y-76266645D01*
X116133616Y-76254906D01*
X116307238Y-76010210D01*
X116315884Y-75999367D01*
X116515823Y-75775635D01*
X116525635Y-75765823D01*
X116749367Y-75565884D01*
X116760214Y-75557236D01*
X117004906Y-75383616D01*
X117016645Y-75376239D01*
X117279262Y-75231097D01*
X117291761Y-75225077D01*
X117568950Y-75110262D01*
X117582067Y-75105672D01*
X117870368Y-75022613D01*
X117883914Y-75019522D01*
X118179700Y-74969266D01*
X118193494Y-74967712D01*
X118496509Y-74950695D01*
X118503462Y-74950500D01*
X177460118Y-74950500D01*
X177496519Y-74950500D01*
X177503472Y-74950695D01*
G37*
%TD.AperFunction*%
%TD*%
M02*
